<ttFont>
<head>
    <!-- Most of this table will be recalculated by the compiler -->
    <tableVersion value="1.0"/>
    <fontRevision value="1.19999694824"/>
    <checkSumAdjustment value="0x4e0d8101"/>
    <magicNumber value="0x5f0f3cf5"/>
    <flags value="00000000 00001111"/>
    <unitsPerEm value="2048"/>
    <created value="Fri Oct 12 14:05:57 2001"/>
    <modified value="Fri Oct 12 10:47:54 2001"/>
    <xMin value="0"/>
    <yMin value="-432"/>
    <xMax value="1229"/>
    <yMax value="2033"/>
    <macStyle value="00000000 00000000"/>
    <lowestRecPPEM value="12"/>
    <fontDirectionHint value="2"/>
    <indexToLocFormat value="0"/>
    <glyphDataFormat value="0"/>
  </head>
    <TTGlyph name=".notdef" xMin="123" yMin="0" xMax="1106" yMax="1480">
      <contour>
        <pt x="123" y="0" on="1"/>
        <pt x="123" y="1480" on="1"/>
        <pt x="1106" y="1480" on="1"/>
        <pt x="1106" y="0" on="1"/>
      </contour>
      <contour>
        <pt x="983" y="123" on="1"/>
        <pt x="983" y="1357" on="1"/>
        <pt x="246" y="1357" on="1"/>
        <pt x="246" y="123" on="1"/>
      </contour>
    </TTGlyph>
    <TTGlyph name="A" xMin="25" yMin="0" xMax="1203" yMax="1480">
      <contour>
        <pt x="327" y="444" on="1"/>
        <pt x="228" y="123" on="1"/>
        <pt x="371" y="123" on="1"/>
        <pt x="371" y="0" on="1"/>
        <pt x="25" y="0" on="1"/>
        <pt x="25" y="123" on="1"/>
        <pt x="99" y="123" on="1"/>
        <pt x="520" y="1480" on="1"/>
        <pt x="709" y="1480" on="1"/>
        <pt x="1129" y="123" on="1"/>
        <pt x="1203" y="123" on="1"/>
        <pt x="1203" y="0" on="1"/>
        <pt x="766" y="0" on="1"/>
        <pt x="766" y="123" on="1"/>
        <pt x="923" y="123" on="1"/>
        <pt x="823" y="444" on="1"/>
      </contour>
      <contour>
        <pt x="366" y="568" on="1"/>
        <pt x="785" y="568" on="1"/>
        <pt x="577" y="1243" on="1"/>
        <pt x="575" y="1243" on="1"/>
      </contour>
    </TTGlyph>
    <TTGlyph name="AE" xMin="12" yMin="0" xMax="1217" yMax="1480">
      <contour>
        <pt x="824" y="703" on="1"/>
        <pt x="824" y="123" on="1"/>
        <pt x="1093" y="123" on="1"/>
        <pt x="1093" y="333" on="1"/>
        <pt x="1217" y="333" on="1"/>
        <pt x="1217" y="0" on="1"/>
        <pt x="528" y="0" on="1"/>
        <pt x="528" y="123" on="1"/>
        <pt x="639" y="123" on="1"/>
        <pt x="639" y="419" on="1"/>
        <pt x="310" y="419" on="1"/>
        <pt x="183" y="123" on="1"/>
        <pt x="304" y="123" on="1"/>
        <pt x="304" y="0" on="1"/>
        <pt x="12" y="0" on="1"/>
        <pt x="12" y="123" on="1"/>
        <pt x="56" y="123" on="1"/>
        <pt x="639" y="1480" on="1"/>
        <pt x="1198" y="1480" on="1"/>
        <pt x="1198" y="1166" on="1"/>
        <pt x="1075" y="1166" on="1"/>
        <pt x="1075" y="1357" on="1"/>
        <pt x="824" y="1357" on="1"/>
        <pt x="824" y="827" on="1"/>
        <pt x="1001" y="827" on="1"/>
        <pt x="1001" y="950" on="1"/>
        <pt x="1124" y="950" on="1"/>
        <pt x="1124" y="580" on="1"/>
        <pt x="1001" y="580" on="1"/>
        <pt x="1001" y="703" on="1"/>
      </contour>
      <contour>
        <pt x="363" y="543" on="1"/>
        <pt x="639" y="543" on="1"/>
        <pt x="639" y="1180" on="1"/>
        <pt x="638" y="1180" on="1"/>
      </contour>
    </TTGlyph>
    <TTGlyph name="Aacute" xMin="25" yMin="0" xMax="1203" yMax="1925">
      <contour>
        <pt x="327" y="444" on="1"/>
        <pt x="228" y="123" on="1"/>
        <pt x="371" y="123" on="1"/>
        <pt x="371" y="0" on="1"/>
        <pt x="25" y="0" on="1"/>
        <pt x="25" y="123" on="1"/>
        <pt x="99" y="123" on="1"/>
        <pt x="520" y="1480" on="1"/>
        <pt x="709" y="1480" on="1"/>
        <pt x="1129" y="123" on="1"/>
        <pt x="1203" y="123" on="1"/>
        <pt x="1203" y="0" on="1"/>
        <pt x="766" y="0" on="1"/>
        <pt x="766" y="123" on="1"/>
        <pt x="923" y="123" on="1"/>
        <pt x="823" y="444" on="1"/>
      </contour>
      <contour>
        <pt x="366" y="568" on="1"/>
        <pt x="785" y="568" on="1"/>
        <pt x="577" y="1243" on="1"/>
        <pt x="575" y="1243" on="1"/>
      </contour>
      <contour>
        <pt x="491" y="1604" on="1"/>
        <pt x="707" y="1925" on="1"/>
        <pt x="935" y="1925" on="1"/>
        <pt x="614" y="1604" on="1"/>
      </contour>
    </TTGlyph>
    <TTGlyph name="Abreve" xMin="25" yMin="0" xMax="1203" yMax="1925">
      <contour>
        <pt x="327" y="444" on="1"/>
        <pt x="228" y="123" on="1"/>
        <pt x="371" y="123" on="1"/>
        <pt x="371" y="0" on="1"/>
        <pt x="25" y="0" on="1"/>
        <pt x="25" y="123" on="1"/>
        <pt x="99" y="123" on="1"/>
        <pt x="520" y="1480" on="1"/>
        <pt x="709" y="1480" on="1"/>
        <pt x="1129" y="123" on="1"/>
        <pt x="1203" y="123" on="1"/>
        <pt x="1203" y="0" on="1"/>
        <pt x="766" y="0" on="1"/>
        <pt x="766" y="123" on="1"/>
        <pt x="923" y="123" on="1"/>
        <pt x="823" y="444" on="1"/>
      </contour>
      <contour>
        <pt x="366" y="568" on="1"/>
        <pt x="785" y="568" on="1"/>
        <pt x="577" y="1243" on="1"/>
        <pt x="575" y="1243" on="1"/>
      </contour>
      <contour>
        <pt x="269" y="1925" on="1"/>
        <pt x="392" y="1925" on="1"/>
        <pt x="440" y="1777" on="0"/>
        <pt x="614" y="1777" on="1"/>
        <pt x="789" y="1777" on="0"/>
        <pt x="837" y="1925" on="1"/>
        <pt x="960" y="1925" on="1"/>
        <pt x="937" y="1836" on="0"/>
        <pt x="911" y="1790" on="1"/>
        <pt x="820" y="1635" on="0"/>
        <pt x="618" y="1635" on="1"/>
        <pt x="466" y="1635" on="0"/>
        <pt x="377" y="1716" on="1"/>
        <pt x="322" y="1765" on="0"/>
        <pt x="294" y="1837" on="1"/>
        <pt x="283" y="1866" on="0"/>
      </contour>
    </TTGlyph>
    <TTGlyph name="Acircumflex" xMin="25" yMin="0" xMax="1203" yMax="1925">
      <contour>
        <pt x="327" y="444" on="1"/>
        <pt x="228" y="123" on="1"/>
        <pt x="371" y="123" on="1"/>
        <pt x="371" y="0" on="1"/>
        <pt x="25" y="0" on="1"/>
        <pt x="25" y="123" on="1"/>
        <pt x="99" y="123" on="1"/>
        <pt x="520" y="1480" on="1"/>
        <pt x="709" y="1480" on="1"/>
        <pt x="1129" y="123" on="1"/>
        <pt x="1203" y="123" on="1"/>
        <pt x="1203" y="0" on="1"/>
        <pt x="766" y="0" on="1"/>
        <pt x="766" y="123" on="1"/>
        <pt x="923" y="123" on="1"/>
        <pt x="823" y="444" on="1"/>
      </contour>
      <contour>
        <pt x="366" y="568" on="1"/>
        <pt x="785" y="568" on="1"/>
        <pt x="577" y="1243" on="1"/>
        <pt x="575" y="1243" on="1"/>
      </contour>
      <contour>
        <pt x="249" y="1604" on="1"/>
        <pt x="505" y="1925" on="1"/>
        <pt x="724" y="1925" on="1"/>
        <pt x="980" y="1604" on="1"/>
        <pt x="857" y="1604" on="1"/>
        <pt x="616" y="1806" on="1"/>
        <pt x="613" y="1806" on="1"/>
        <pt x="372" y="1604" on="1"/>
      </contour>
    </TTGlyph>
    <TTGlyph name="Adieresis" xMin="25" yMin="0" xMax="1203" yMax="1801">
      <contour>
        <pt x="327" y="444" on="1"/>
        <pt x="228" y="123" on="1"/>
        <pt x="371" y="123" on="1"/>
        <pt x="371" y="0" on="1"/>
        <pt x="25" y="0" on="1"/>
        <pt x="25" y="123" on="1"/>
        <pt x="99" y="123" on="1"/>
        <pt x="520" y="1480" on="1"/>
        <pt x="709" y="1480" on="1"/>
        <pt x="1129" y="123" on="1"/>
        <pt x="1203" y="123" on="1"/>
        <pt x="1203" y="0" on="1"/>
        <pt x="766" y="0" on="1"/>
        <pt x="766" y="123" on="1"/>
        <pt x="923" y="123" on="1"/>
        <pt x="823" y="444" on="1"/>
      </contour>
      <contour>
        <pt x="366" y="568" on="1"/>
        <pt x="785" y="568" on="1"/>
        <pt x="577" y="1243" on="1"/>
        <pt x="575" y="1243" on="1"/>
      </contour>
      <contour>
        <pt x="281" y="1604" on="1"/>
        <pt x="281" y="1801" on="1"/>
        <pt x="478" y="1801" on="1"/>
        <pt x="478" y="1604" on="1"/>
      </contour>
      <contour>
        <pt x="750" y="1604" on="1"/>
        <pt x="750" y="1801" on="1"/>
        <pt x="947" y="1801" on="1"/>
        <pt x="947" y="1604" on="1"/>
      </contour>
    </TTGlyph>
    <TTGlyph name="Agrave" xMin="25" yMin="0" xMax="1203" yMax="1925">
      <contour>
        <pt x="327" y="444" on="1"/>
        <pt x="228" y="123" on="1"/>
        <pt x="371" y="123" on="1"/>
        <pt x="371" y="0" on="1"/>
        <pt x="25" y="0" on="1"/>
        <pt x="25" y="123" on="1"/>
        <pt x="99" y="123" on="1"/>
        <pt x="520" y="1480" on="1"/>
        <pt x="709" y="1480" on="1"/>
        <pt x="1129" y="123" on="1"/>
        <pt x="1203" y="123" on="1"/>
        <pt x="1203" y="0" on="1"/>
        <pt x="766" y="0" on="1"/>
        <pt x="766" y="123" on="1"/>
        <pt x="923" y="123" on="1"/>
        <pt x="823" y="444" on="1"/>
      </contour>
      <contour>
        <pt x="366" y="568" on="1"/>
        <pt x="785" y="568" on="1"/>
        <pt x="577" y="1243" on="1"/>
        <pt x="575" y="1243" on="1"/>
      </contour>
      <contour>
        <pt x="738" y="1604" on="1"/>
        <pt x="615" y="1604" on="1"/>
        <pt x="294" y="1925" on="1"/>
        <pt x="522" y="1925" on="1"/>
      </contour>
    </TTGlyph>
    <TTGlyph name="Amacron" xMin="25" yMin="0" xMax="1203" yMax="1728">
      <contour>
        <pt x="327" y="444" on="1"/>
        <pt x="228" y="123" on="1"/>
        <pt x="371" y="123" on="1"/>
        <pt x="371" y="0" on="1"/>
        <pt x="25" y="0" on="1"/>
        <pt x="25" y="123" on="1"/>
        <pt x="99" y="123" on="1"/>
        <pt x="520" y="1480" on="1"/>
        <pt x="709" y="1480" on="1"/>
        <pt x="1129" y="123" on="1"/>
        <pt x="1203" y="123" on="1"/>
        <pt x="1203" y="0" on="1"/>
        <pt x="766" y="0" on="1"/>
        <pt x="766" y="123" on="1"/>
        <pt x="923" y="123" on="1"/>
        <pt x="823" y="444" on="1"/>
      </contour>
      <contour>
        <pt x="366" y="568" on="1"/>
        <pt x="785" y="568" on="1"/>
        <pt x="577" y="1243" on="1"/>
        <pt x="575" y="1243" on="1"/>
      </contour>
      <contour>
        <pt x="259" y="1604" on="1"/>
        <pt x="259" y="1728" on="1"/>
        <pt x="950" y="1728" on="1"/>
        <pt x="950" y="1604" on="1"/>
      </contour>
    </TTGlyph>
    <TTGlyph name="Aogonek" xMin="25" yMin="-370" xMax="1203" yMax="1480">
      <contour>
        <pt x="327" y="444" on="1"/>
        <pt x="228" y="123" on="1"/>
        <pt x="371" y="123" on="1"/>
        <pt x="371" y="0" on="1"/>
        <pt x="25" y="0" on="1"/>
        <pt x="25" y="123" on="1"/>
        <pt x="99" y="123" on="1"/>
        <pt x="520" y="1480" on="1"/>
        <pt x="709" y="1480" on="1"/>
        <pt x="1129" y="123" on="1"/>
        <pt x="1203" y="123" on="1"/>
        <pt x="1203" y="0" on="1"/>
        <pt x="766" y="0" on="1"/>
        <pt x="766" y="123" on="1"/>
        <pt x="923" y="123" on="1"/>
        <pt x="823" y="444" on="1"/>
      </contour>
      <contour>
        <pt x="366" y="568" on="1"/>
        <pt x="785" y="568" on="1"/>
        <pt x="577" y="1243" on="1"/>
        <pt x="575" y="1243" on="1"/>
      </contour>
      <contour>
        <pt x="920" y="0" on="1"/>
        <pt x="1027" y="0" on="1"/>
        <pt x="898" y="-81" on="0"/>
        <pt x="898" y="-179" on="1"/>
        <pt x="898" y="-275" on="0"/>
        <pt x="1013" y="-275" on="1"/>
        <pt x="1067" y="-275" on="0"/>
        <pt x="1104" y="-260" on="1"/>
        <pt x="1104" y="-341" on="1"/>
        <pt x="1042" y="-370" on="0"/>
        <pt x="964" y="-370" on="1"/>
        <pt x="762" y="-370" on="0"/>
        <pt x="762" y="-213" on="1"/>
        <pt x="762" y="-90" on="0"/>
      </contour>
    </TTGlyph>
    <TTGlyph name="Aring" xMin="25" yMin="0" xMax="1203" yMax="1935">
      <contour>
        <pt x="327" y="444" on="1"/>
        <pt x="228" y="123" on="1"/>
        <pt x="371" y="123" on="1"/>
        <pt x="371" y="0" on="1"/>
        <pt x="25" y="0" on="1"/>
        <pt x="25" y="123" on="1"/>
        <pt x="99" y="123" on="1"/>
        <pt x="520" y="1480" on="1"/>
        <pt x="709" y="1480" on="1"/>
        <pt x="1129" y="123" on="1"/>
        <pt x="1203" y="123" on="1"/>
        <pt x="1203" y="0" on="1"/>
        <pt x="766" y="0" on="1"/>
        <pt x="766" y="123" on="1"/>
        <pt x="923" y="123" on="1"/>
        <pt x="823" y="444" on="1"/>
      </contour>
      <contour>
        <pt x="366" y="568" on="1"/>
        <pt x="785" y="568" on="1"/>
        <pt x="577" y="1243" on="1"/>
        <pt x="575" y="1243" on="1"/>
      </contour>
      <contour>
        <pt x="615" y="1935" on="1"/>
        <pt x="709" y="1935" on="0"/>
        <pt x="775" y="1869" on="1"/>
        <pt x="842" y="1803" on="0"/>
        <pt x="842" y="1709" on="1"/>
        <pt x="842" y="1612" on="0"/>
        <pt x="775" y="1547" on="1"/>
        <pt x="709" y="1481" on="0"/>
        <pt x="613" y="1481" on="1"/>
        <pt x="530" y="1481" on="0"/>
        <pt x="468" y="1535" on="1"/>
        <pt x="388" y="1604" on="0"/>
        <pt x="388" y="1708" on="1"/>
        <pt x="388" y="1802" on="0"/>
        <pt x="455" y="1868" on="1"/>
        <pt x="521" y="1935" on="0"/>
      </contour>
      <contour>
        <pt x="615" y="1848" on="1"/>
        <pt x="557" y="1848" on="0"/>
        <pt x="516" y="1808" on="1"/>
        <pt x="474" y="1767" on="0"/>
        <pt x="474" y="1709" on="1"/>
        <pt x="474" y="1650" on="0"/>
        <pt x="515" y="1609" on="1"/>
        <pt x="556" y="1567" on="0"/>
        <pt x="613" y="1567" on="1"/>
        <pt x="667" y="1567" on="0"/>
        <pt x="706" y="1600" on="1"/>
        <pt x="756" y="1643" on="0"/>
        <pt x="756" y="1709" on="1"/>
        <pt x="756" y="1767" on="0"/>
        <pt x="714" y="1808" on="1"/>
        <pt x="673" y="1848" on="0"/>
      </contour>
    </TTGlyph>
    <TTGlyph name="Atilde" xMin="25" yMin="0" xMax="1203" yMax="1839">
      <contour>
        <pt x="327" y="444" on="1"/>
        <pt x="228" y="123" on="1"/>
        <pt x="371" y="123" on="1"/>
        <pt x="371" y="0" on="1"/>
        <pt x="25" y="0" on="1"/>
        <pt x="25" y="123" on="1"/>
        <pt x="99" y="123" on="1"/>
        <pt x="520" y="1480" on="1"/>
        <pt x="709" y="1480" on="1"/>
        <pt x="1129" y="123" on="1"/>
        <pt x="1203" y="123" on="1"/>
        <pt x="1203" y="0" on="1"/>
        <pt x="766" y="0" on="1"/>
        <pt x="766" y="123" on="1"/>
        <pt x="923" y="123" on="1"/>
        <pt x="823" y="444" on="1"/>
      </contour>
      <contour>
        <pt x="366" y="568" on="1"/>
        <pt x="785" y="568" on="1"/>
        <pt x="577" y="1243" on="1"/>
        <pt x="575" y="1243" on="1"/>
      </contour>
      <contour>
        <pt x="281" y="1604" on="1"/>
        <pt x="287" y="1699" on="0"/>
        <pt x="312" y="1749" on="1"/>
        <pt x="357" y="1839" on="0"/>
        <pt x="466" y="1839" on="1"/>
        <pt x="538" y="1839" on="0"/>
        <pt x="601" y="1800" on="1"/>
        <pt x="661" y="1763" on="1"/>
        <pt x="723" y="1725" on="0"/>
        <pt x="757" y="1725" on="1"/>
        <pt x="825" y="1725" on="0"/>
        <pt x="836" y="1839" on="1"/>
        <pt x="947" y="1839" on="1"/>
        <pt x="940" y="1745" on="0"/>
        <pt x="915" y="1695" on="1"/>
        <pt x="869" y="1604" on="0"/>
        <pt x="762" y="1604" on="1"/>
        <pt x="689" y="1604" on="0"/>
        <pt x="626" y="1643" on="1"/>
        <pt x="566" y="1680" on="1"/>
        <pt x="506" y="1717" on="0"/>
        <pt x="470" y="1717" on="1"/>
        <pt x="402" y="1717" on="0"/>
        <pt x="391" y="1604" on="1"/>
      </contour>
    </TTGlyph>
    <TTGlyph name="B" xMin="74" yMin="0" xMax="1112" yMax="1480">
      <contour>
        <pt x="247" y="123" on="1"/>
        <pt x="247" y="1357" on="1"/>
        <pt x="74" y="1357" on="1"/>
        <pt x="74" y="1480" on="1"/>
        <pt x="692" y="1480" on="1"/>
        <pt x="1066" y="1480" on="0"/>
        <pt x="1066" y="1155" on="1"/>
        <pt x="1066" y="987" on="0"/>
        <pt x="964" y="882" on="1"/>
        <pt x="904" y="819" on="0"/>
        <pt x="790" y="771" on="1"/>
        <pt x="888" y="745" on="0"/>
        <pt x="938" y="715" on="1"/>
        <pt x="1112" y="610" on="0"/>
        <pt x="1112" y="377" on="1"/>
        <pt x="1112" y="0" on="0"/>
        <pt x="668" y="0" on="1"/>
        <pt x="74" y="0" on="1"/>
        <pt x="74" y="123" on="1"/>
      </contour>
      <contour>
        <pt x="444" y="123" on="1"/>
        <pt x="607" y="123" on="1"/>
        <pt x="902" y="123" on="0"/>
        <pt x="902" y="384" on="1"/>
        <pt x="902" y="532" on="0"/>
        <pt x="805" y="618" on="1"/>
        <pt x="709" y="703" on="0"/>
        <pt x="541" y="703" on="1"/>
        <pt x="444" y="703" on="1"/>
      </contour>
      <contour>
        <pt x="444" y="827" on="1"/>
        <pt x="542" y="827" on="1"/>
        <pt x="855" y="827" on="0"/>
        <pt x="855" y="1139" on="1"/>
        <pt x="855" y="1357" on="0"/>
        <pt x="644" y="1357" on="1"/>
        <pt x="444" y="1357" on="1"/>
      </contour>
    </TTGlyph>
    <TTGlyph name="C" xMin="123" yMin="-37" xMax="1127" yMax="1517">
      <contour>
        <pt x="1127" y="74" on="1"/>
        <pt x="920" y="-37" on="0"/>
        <pt x="739" y="-37" on="1"/>
        <pt x="450" y="-37" on="0"/>
        <pt x="287" y="169" on="1"/>
        <pt x="123" y="375" on="0"/>
        <pt x="123" y="748" on="1"/>
        <pt x="123" y="1117" on="0"/>
        <pt x="279" y="1317" on="1"/>
        <pt x="435" y="1517" on="0"/>
        <pt x="725" y="1517" on="1"/>
        <pt x="889" y="1517" on="0"/>
        <pt x="1106" y="1453" on="1"/>
        <pt x="1106" y="1110" on="1"/>
        <pt x="983" y="1110" on="1"/>
        <pt x="954" y="1341" on="1"/>
        <pt x="841" y="1394" on="0"/>
        <pt x="730" y="1394" on="1"/>
        <pt x="543" y="1394" on="0"/>
        <pt x="439" y="1218" on="1"/>
        <pt x="336" y="1043" on="0"/>
        <pt x="336" y="734" on="1"/>
        <pt x="336" y="435" on="0"/>
        <pt x="450" y="267" on="1"/>
        <pt x="563" y="99" on="0"/>
        <pt x="763" y="99" on="1"/>
        <pt x="941" y="99" on="0"/>
        <pt x="1127" y="234" on="1"/>
      </contour>
    </TTGlyph>
    <TTGlyph name="Cacute" xMin="123" yMin="-37" xMax="1127" yMax="1925">
      <contour>
        <pt x="1127" y="74" on="1"/>
        <pt x="920" y="-37" on="0"/>
        <pt x="739" y="-37" on="1"/>
        <pt x="450" y="-37" on="0"/>
        <pt x="287" y="169" on="1"/>
        <pt x="123" y="375" on="0"/>
        <pt x="123" y="748" on="1"/>
        <pt x="123" y="1117" on="0"/>
        <pt x="279" y="1317" on="1"/>
        <pt x="435" y="1517" on="0"/>
        <pt x="725" y="1517" on="1"/>
        <pt x="889" y="1517" on="0"/>
        <pt x="1106" y="1453" on="1"/>
        <pt x="1106" y="1110" on="1"/>
        <pt x="983" y="1110" on="1"/>
        <pt x="954" y="1341" on="1"/>
        <pt x="841" y="1394" on="0"/>
        <pt x="730" y="1394" on="1"/>
        <pt x="543" y="1394" on="0"/>
        <pt x="439" y="1218" on="1"/>
        <pt x="336" y="1043" on="0"/>
        <pt x="336" y="734" on="1"/>
        <pt x="336" y="435" on="0"/>
        <pt x="450" y="267" on="1"/>
        <pt x="563" y="99" on="0"/>
        <pt x="763" y="99" on="1"/>
        <pt x="941" y="99" on="0"/>
        <pt x="1127" y="234" on="1"/>
      </contour>
      <contour>
        <pt x="591" y="1604" on="1"/>
        <pt x="807" y="1925" on="1"/>
        <pt x="1035" y="1925" on="1"/>
        <pt x="714" y="1604" on="1"/>
      </contour>
    </TTGlyph>
    <TTGlyph name="Ccaron" xMin="123" yMin="-37" xMax="1127" yMax="1925">
      <contour>
        <pt x="1127" y="74" on="1"/>
        <pt x="920" y="-37" on="0"/>
        <pt x="739" y="-37" on="1"/>
        <pt x="450" y="-37" on="0"/>
        <pt x="287" y="169" on="1"/>
        <pt x="123" y="375" on="0"/>
        <pt x="123" y="748" on="1"/>
        <pt x="123" y="1117" on="0"/>
        <pt x="279" y="1317" on="1"/>
        <pt x="435" y="1517" on="0"/>
        <pt x="725" y="1517" on="1"/>
        <pt x="889" y="1517" on="0"/>
        <pt x="1106" y="1453" on="1"/>
        <pt x="1106" y="1110" on="1"/>
        <pt x="983" y="1110" on="1"/>
        <pt x="954" y="1341" on="1"/>
        <pt x="841" y="1394" on="0"/>
        <pt x="730" y="1394" on="1"/>
        <pt x="543" y="1394" on="0"/>
        <pt x="439" y="1218" on="1"/>
        <pt x="336" y="1043" on="0"/>
        <pt x="336" y="734" on="1"/>
        <pt x="336" y="435" on="0"/>
        <pt x="450" y="267" on="1"/>
        <pt x="563" y="99" on="0"/>
        <pt x="763" y="99" on="1"/>
        <pt x="941" y="99" on="0"/>
        <pt x="1127" y="234" on="1"/>
      </contour>
      <contour>
        <pt x="1080" y="1925" on="1"/>
        <pt x="823" y="1604" on="1"/>
        <pt x="605" y="1604" on="1"/>
        <pt x="348" y="1925" on="1"/>
        <pt x="472" y="1925" on="1"/>
        <pt x="713" y="1723" on="1"/>
        <pt x="715" y="1723" on="1"/>
        <pt x="957" y="1925" on="1"/>
      </contour>
    </TTGlyph>
    <TTGlyph name="Ccedilla" xMin="123" yMin="-432" xMax="1127" yMax="1517">
      <contour>
        <pt x="1127" y="74" on="1"/>
        <pt x="920" y="-37" on="0"/>
        <pt x="739" y="-37" on="1"/>
        <pt x="450" y="-37" on="0"/>
        <pt x="287" y="169" on="1"/>
        <pt x="123" y="375" on="0"/>
        <pt x="123" y="748" on="1"/>
        <pt x="123" y="1117" on="0"/>
        <pt x="279" y="1317" on="1"/>
        <pt x="435" y="1517" on="0"/>
        <pt x="725" y="1517" on="1"/>
        <pt x="889" y="1517" on="0"/>
        <pt x="1106" y="1453" on="1"/>
        <pt x="1106" y="1110" on="1"/>
        <pt x="983" y="1110" on="1"/>
        <pt x="954" y="1341" on="1"/>
        <pt x="841" y="1394" on="0"/>
        <pt x="730" y="1394" on="1"/>
        <pt x="542" y="1394" on="0"/>
        <pt x="439" y="1218" on="1"/>
        <pt x="336" y="1042" on="0"/>
        <pt x="336" y="734" on="1"/>
        <pt x="336" y="436" on="0"/>
        <pt x="450" y="267" on="1"/>
        <pt x="563" y="99" on="0"/>
        <pt x="763" y="99" on="1"/>
        <pt x="941" y="99" on="0"/>
        <pt x="1127" y="234" on="1"/>
      </contour>
      <contour>
        <pt x="669" y="0" on="1"/>
        <pt x="766" y="0" on="1"/>
        <pt x="706" y="-109" on="1"/>
        <pt x="778" y="-111" on="0"/>
        <pt x="830" y="-148" on="1"/>
        <pt x="900" y="-197" on="0"/>
        <pt x="900" y="-269" on="1"/>
        <pt x="900" y="-337" on="0"/>
        <pt x="841" y="-384" on="1"/>
        <pt x="782" y="-432" on="0"/>
        <pt x="697" y="-432" on="1"/>
        <pt x="630" y="-432" on="0"/>
        <pt x="553" y="-411" on="1"/>
        <pt x="553" y="-330" on="1"/>
        <pt x="603" y="-345" on="0"/>
        <pt x="657" y="-345" on="1"/>
        <pt x="761" y="-345" on="0"/>
        <pt x="761" y="-271" on="1"/>
        <pt x="761" y="-178" on="0"/>
        <pt x="574" y="-175" on="1"/>
      </contour>
    </TTGlyph>
    <TTGlyph name="Ccircumflex" xMin="123" yMin="-37" xMax="1127" yMax="1925">
      <contour>
        <pt x="1127" y="74" on="1"/>
        <pt x="920" y="-37" on="0"/>
        <pt x="739" y="-37" on="1"/>
        <pt x="450" y="-37" on="0"/>
        <pt x="287" y="169" on="1"/>
        <pt x="123" y="375" on="0"/>
        <pt x="123" y="748" on="1"/>
        <pt x="123" y="1117" on="0"/>
        <pt x="279" y="1317" on="1"/>
        <pt x="435" y="1517" on="0"/>
        <pt x="725" y="1517" on="1"/>
        <pt x="889" y="1517" on="0"/>
        <pt x="1106" y="1453" on="1"/>
        <pt x="1106" y="1110" on="1"/>
        <pt x="983" y="1110" on="1"/>
        <pt x="954" y="1341" on="1"/>
        <pt x="841" y="1394" on="0"/>
        <pt x="730" y="1394" on="1"/>
        <pt x="543" y="1394" on="0"/>
        <pt x="439" y="1218" on="1"/>
        <pt x="336" y="1043" on="0"/>
        <pt x="336" y="734" on="1"/>
        <pt x="336" y="435" on="0"/>
        <pt x="450" y="267" on="1"/>
        <pt x="563" y="99" on="0"/>
        <pt x="763" y="99" on="1"/>
        <pt x="941" y="99" on="0"/>
        <pt x="1127" y="234" on="1"/>
      </contour>
      <contour>
        <pt x="348" y="1604" on="1"/>
        <pt x="604" y="1925" on="1"/>
        <pt x="823" y="1925" on="1"/>
        <pt x="1079" y="1604" on="1"/>
        <pt x="956" y="1604" on="1"/>
        <pt x="715" y="1806" on="1"/>
        <pt x="712" y="1806" on="1"/>
        <pt x="471" y="1604" on="1"/>
      </contour>
    </TTGlyph>
    <TTGlyph name="Cdotaccent" xMin="123" yMin="-37" xMax="1127" yMax="1801">
      <contour>
        <pt x="1127" y="74" on="1"/>
        <pt x="920" y="-37" on="0"/>
        <pt x="739" y="-37" on="1"/>
        <pt x="450" y="-37" on="0"/>
        <pt x="287" y="169" on="1"/>
        <pt x="123" y="375" on="0"/>
        <pt x="123" y="748" on="1"/>
        <pt x="123" y="1117" on="0"/>
        <pt x="279" y="1317" on="1"/>
        <pt x="435" y="1517" on="0"/>
        <pt x="725" y="1517" on="1"/>
        <pt x="889" y="1517" on="0"/>
        <pt x="1106" y="1453" on="1"/>
        <pt x="1106" y="1110" on="1"/>
        <pt x="983" y="1110" on="1"/>
        <pt x="954" y="1341" on="1"/>
        <pt x="841" y="1394" on="0"/>
        <pt x="730" y="1394" on="1"/>
        <pt x="543" y="1394" on="0"/>
        <pt x="439" y="1218" on="1"/>
        <pt x="336" y="1043" on="0"/>
        <pt x="336" y="734" on="1"/>
        <pt x="336" y="435" on="0"/>
        <pt x="450" y="267" on="1"/>
        <pt x="563" y="99" on="0"/>
        <pt x="763" y="99" on="1"/>
        <pt x="941" y="99" on="0"/>
        <pt x="1127" y="234" on="1"/>
      </contour>
      <contour>
        <pt x="615" y="1604" on="1"/>
        <pt x="615" y="1801" on="1"/>
        <pt x="812" y="1801" on="1"/>
        <pt x="812" y="1604" on="1"/>
      </contour>
    </TTGlyph>
    <TTGlyph name="D" xMin="49" yMin="0" xMax="1167" yMax="1480">
      <contour>
        <pt x="49" y="0" on="1"/>
        <pt x="49" y="123" on="1"/>
        <pt x="197" y="123" on="1"/>
        <pt x="197" y="1357" on="1"/>
        <pt x="49" y="1357" on="1"/>
        <pt x="49" y="1480" on="1"/>
        <pt x="559" y="1480" on="1"/>
        <pt x="1167" y="1480" on="0"/>
        <pt x="1167" y="775" on="1"/>
        <pt x="1167" y="419" on="0"/>
        <pt x="1007" y="209" on="1"/>
        <pt x="847" y="0" on="0"/>
        <pt x="577" y="0" on="1"/>
      </contour>
      <contour>
        <pt x="395" y="123" on="1"/>
        <pt x="513" y="123" on="1"/>
        <pt x="954" y="123" on="0"/>
        <pt x="954" y="754" on="1"/>
        <pt x="954" y="1063" on="0"/>
        <pt x="843" y="1210" on="1"/>
        <pt x="731" y="1357" on="0"/>
        <pt x="499" y="1357" on="1"/>
        <pt x="395" y="1357" on="1"/>
      </contour>
    </TTGlyph>
    <TTGlyph name="Dcaron" xMin="49" yMin="0" xMax="1167" yMax="1925">
      <contour>
        <pt x="49" y="0" on="1"/>
        <pt x="49" y="123" on="1"/>
        <pt x="197" y="123" on="1"/>
        <pt x="197" y="1357" on="1"/>
        <pt x="49" y="1357" on="1"/>
        <pt x="49" y="1480" on="1"/>
        <pt x="559" y="1480" on="1"/>
        <pt x="1167" y="1480" on="0"/>
        <pt x="1167" y="775" on="1"/>
        <pt x="1167" y="419" on="0"/>
        <pt x="1007" y="209" on="1"/>
        <pt x="847" y="0" on="0"/>
        <pt x="577" y="0" on="1"/>
      </contour>
      <contour>
        <pt x="395" y="123" on="1"/>
        <pt x="513" y="123" on="1"/>
        <pt x="954" y="123" on="0"/>
        <pt x="954" y="754" on="1"/>
        <pt x="954" y="1063" on="0"/>
        <pt x="843" y="1210" on="1"/>
        <pt x="731" y="1357" on="0"/>
        <pt x="499" y="1357" on="1"/>
        <pt x="395" y="1357" on="1"/>
      </contour>
      <contour>
        <pt x="919" y="1925" on="1"/>
        <pt x="662" y="1604" on="1"/>
        <pt x="444" y="1604" on="1"/>
        <pt x="187" y="1925" on="1"/>
        <pt x="311" y="1925" on="1"/>
        <pt x="552" y="1723" on="1"/>
        <pt x="554" y="1723" on="1"/>
        <pt x="796" y="1925" on="1"/>
      </contour>
    </TTGlyph>
    <TTGlyph name="Dcroat" xMin="49" yMin="0" xMax="1167" yMax="1480">
      <contour>
        <pt x="49" y="0" on="1"/>
        <pt x="49" y="123" on="1"/>
        <pt x="197" y="123" on="1"/>
        <pt x="197" y="716" on="1"/>
        <pt x="49" y="716" on="1"/>
        <pt x="49" y="839" on="1"/>
        <pt x="197" y="839" on="1"/>
        <pt x="197" y="1357" on="1"/>
        <pt x="49" y="1357" on="1"/>
        <pt x="49" y="1480" on="1"/>
        <pt x="558" y="1480" on="1"/>
        <pt x="1167" y="1480" on="0"/>
        <pt x="1167" y="776" on="1"/>
        <pt x="1167" y="419" on="0"/>
        <pt x="1007" y="209" on="1"/>
        <pt x="847" y="0" on="0"/>
        <pt x="577" y="0" on="1"/>
      </contour>
      <contour>
        <pt x="394" y="1357" on="1"/>
        <pt x="394" y="839" on="1"/>
        <pt x="666" y="839" on="1"/>
        <pt x="666" y="716" on="1"/>
        <pt x="394" y="716" on="1"/>
        <pt x="394" y="123" on="1"/>
        <pt x="513" y="123" on="1"/>
        <pt x="954" y="123" on="0"/>
        <pt x="954" y="754" on="1"/>
        <pt x="954" y="1062" on="0"/>
        <pt x="842" y="1210" on="1"/>
        <pt x="730" y="1357" on="0"/>
        <pt x="499" y="1357" on="1"/>
      </contour>
    </TTGlyph>
    <TTGlyph name="E" xMin="74" yMin="0" xMax="1106" yMax="1480">
      <contour>
        <pt x="74" y="0" on="1"/>
        <pt x="74" y="123" on="1"/>
        <pt x="259" y="123" on="1"/>
        <pt x="259" y="1357" on="1"/>
        <pt x="74" y="1357" on="1"/>
        <pt x="74" y="1480" on="1"/>
        <pt x="1056" y="1480" on="1"/>
        <pt x="1056" y="1123" on="1"/>
        <pt x="933" y="1123" on="1"/>
        <pt x="933" y="1357" on="1"/>
        <pt x="457" y="1357" on="1"/>
        <pt x="457" y="814" on="1"/>
        <pt x="748" y="814" on="1"/>
        <pt x="748" y="938" on="1"/>
        <pt x="871" y="938" on="1"/>
        <pt x="871" y="567" on="1"/>
        <pt x="748" y="567" on="1"/>
        <pt x="748" y="691" on="1"/>
        <pt x="457" y="691" on="1"/>
        <pt x="457" y="136" on="1"/>
        <pt x="982" y="136" on="1"/>
        <pt x="982" y="383" on="1"/>
        <pt x="1106" y="383" on="1"/>
        <pt x="1106" y="0" on="1"/>
      </contour>
    </TTGlyph>
    <TTGlyph name="Eacute" xMin="74" yMin="0" xMax="1106" yMax="1925">
      <contour>
        <pt x="74" y="0" on="1"/>
        <pt x="74" y="123" on="1"/>
        <pt x="259" y="123" on="1"/>
        <pt x="259" y="1357" on="1"/>
        <pt x="74" y="1357" on="1"/>
        <pt x="74" y="1480" on="1"/>
        <pt x="1056" y="1480" on="1"/>
        <pt x="1056" y="1123" on="1"/>
        <pt x="933" y="1123" on="1"/>
        <pt x="933" y="1357" on="1"/>
        <pt x="457" y="1357" on="1"/>
        <pt x="457" y="814" on="1"/>
        <pt x="748" y="814" on="1"/>
        <pt x="748" y="938" on="1"/>
        <pt x="871" y="938" on="1"/>
        <pt x="871" y="567" on="1"/>
        <pt x="748" y="567" on="1"/>
        <pt x="748" y="691" on="1"/>
        <pt x="457" y="691" on="1"/>
        <pt x="457" y="136" on="1"/>
        <pt x="982" y="136" on="1"/>
        <pt x="982" y="383" on="1"/>
        <pt x="1106" y="383" on="1"/>
        <pt x="1106" y="0" on="1"/>
      </contour>
      <contour>
        <pt x="481" y="1604" on="1"/>
        <pt x="697" y="1925" on="1"/>
        <pt x="925" y="1925" on="1"/>
        <pt x="604" y="1604" on="1"/>
      </contour>
    </TTGlyph>
    <TTGlyph name="Ebreve" xMin="74" yMin="0" xMax="1106" yMax="1925">
      <contour>
        <pt x="74" y="0" on="1"/>
        <pt x="74" y="123" on="1"/>
        <pt x="259" y="123" on="1"/>
        <pt x="259" y="1357" on="1"/>
        <pt x="74" y="1357" on="1"/>
        <pt x="74" y="1480" on="1"/>
        <pt x="1056" y="1480" on="1"/>
        <pt x="1056" y="1123" on="1"/>
        <pt x="933" y="1123" on="1"/>
        <pt x="933" y="1357" on="1"/>
        <pt x="457" y="1357" on="1"/>
        <pt x="457" y="814" on="1"/>
        <pt x="748" y="814" on="1"/>
        <pt x="748" y="938" on="1"/>
        <pt x="871" y="938" on="1"/>
        <pt x="871" y="567" on="1"/>
        <pt x="748" y="567" on="1"/>
        <pt x="748" y="691" on="1"/>
        <pt x="457" y="691" on="1"/>
        <pt x="457" y="136" on="1"/>
        <pt x="982" y="136" on="1"/>
        <pt x="982" y="383" on="1"/>
        <pt x="1106" y="383" on="1"/>
        <pt x="1106" y="0" on="1"/>
      </contour>
      <contour>
        <pt x="259" y="1925" on="1"/>
        <pt x="382" y="1925" on="1"/>
        <pt x="430" y="1777" on="0"/>
        <pt x="604" y="1777" on="1"/>
        <pt x="779" y="1777" on="0"/>
        <pt x="827" y="1925" on="1"/>
        <pt x="950" y="1925" on="1"/>
        <pt x="927" y="1836" on="0"/>
        <pt x="901" y="1790" on="1"/>
        <pt x="810" y="1635" on="0"/>
        <pt x="608" y="1635" on="1"/>
        <pt x="456" y="1635" on="0"/>
        <pt x="367" y="1716" on="1"/>
        <pt x="312" y="1765" on="0"/>
        <pt x="284" y="1837" on="1"/>
        <pt x="273" y="1866" on="0"/>
      </contour>
    </TTGlyph>
    <TTGlyph name="Ecaron" xMin="74" yMin="0" xMax="1106" yMax="1925">
      <contour>
        <pt x="74" y="0" on="1"/>
        <pt x="74" y="123" on="1"/>
        <pt x="259" y="123" on="1"/>
        <pt x="259" y="1357" on="1"/>
        <pt x="74" y="1357" on="1"/>
        <pt x="74" y="1480" on="1"/>
        <pt x="1056" y="1480" on="1"/>
        <pt x="1056" y="1123" on="1"/>
        <pt x="933" y="1123" on="1"/>
        <pt x="933" y="1357" on="1"/>
        <pt x="457" y="1357" on="1"/>
        <pt x="457" y="814" on="1"/>
        <pt x="748" y="814" on="1"/>
        <pt x="748" y="938" on="1"/>
        <pt x="871" y="938" on="1"/>
        <pt x="871" y="567" on="1"/>
        <pt x="748" y="567" on="1"/>
        <pt x="748" y="691" on="1"/>
        <pt x="457" y="691" on="1"/>
        <pt x="457" y="136" on="1"/>
        <pt x="982" y="136" on="1"/>
        <pt x="982" y="383" on="1"/>
        <pt x="1106" y="383" on="1"/>
        <pt x="1106" y="0" on="1"/>
      </contour>
      <contour>
        <pt x="957" y="1925" on="1"/>
        <pt x="700" y="1604" on="1"/>
        <pt x="482" y="1604" on="1"/>
        <pt x="225" y="1925" on="1"/>
        <pt x="349" y="1925" on="1"/>
        <pt x="590" y="1723" on="1"/>
        <pt x="592" y="1723" on="1"/>
        <pt x="834" y="1925" on="1"/>
      </contour>
    </TTGlyph>
    <TTGlyph name="Ecircumflex" xMin="74" yMin="0" xMax="1106" yMax="1925">
      <contour>
        <pt x="74" y="0" on="1"/>
        <pt x="74" y="123" on="1"/>
        <pt x="259" y="123" on="1"/>
        <pt x="259" y="1357" on="1"/>
        <pt x="74" y="1357" on="1"/>
        <pt x="74" y="1480" on="1"/>
        <pt x="1056" y="1480" on="1"/>
        <pt x="1056" y="1123" on="1"/>
        <pt x="933" y="1123" on="1"/>
        <pt x="933" y="1357" on="1"/>
        <pt x="457" y="1357" on="1"/>
        <pt x="457" y="814" on="1"/>
        <pt x="748" y="814" on="1"/>
        <pt x="748" y="938" on="1"/>
        <pt x="871" y="938" on="1"/>
        <pt x="871" y="567" on="1"/>
        <pt x="748" y="567" on="1"/>
        <pt x="748" y="691" on="1"/>
        <pt x="457" y="691" on="1"/>
        <pt x="457" y="136" on="1"/>
        <pt x="982" y="136" on="1"/>
        <pt x="982" y="383" on="1"/>
        <pt x="1106" y="383" on="1"/>
        <pt x="1106" y="0" on="1"/>
      </contour>
      <contour>
        <pt x="259" y="1604" on="1"/>
        <pt x="515" y="1925" on="1"/>
        <pt x="734" y="1925" on="1"/>
        <pt x="990" y="1604" on="1"/>
        <pt x="867" y="1604" on="1"/>
        <pt x="626" y="1806" on="1"/>
        <pt x="623" y="1806" on="1"/>
        <pt x="382" y="1604" on="1"/>
      </contour>
    </TTGlyph>
    <TTGlyph name="Edieresis" xMin="74" yMin="0" xMax="1106" yMax="1801">
      <contour>
        <pt x="74" y="0" on="1"/>
        <pt x="74" y="123" on="1"/>
        <pt x="259" y="123" on="1"/>
        <pt x="259" y="1357" on="1"/>
        <pt x="74" y="1357" on="1"/>
        <pt x="74" y="1480" on="1"/>
        <pt x="1056" y="1480" on="1"/>
        <pt x="1056" y="1123" on="1"/>
        <pt x="933" y="1123" on="1"/>
        <pt x="933" y="1357" on="1"/>
        <pt x="457" y="1357" on="1"/>
        <pt x="457" y="814" on="1"/>
        <pt x="748" y="814" on="1"/>
        <pt x="748" y="938" on="1"/>
        <pt x="871" y="938" on="1"/>
        <pt x="871" y="567" on="1"/>
        <pt x="748" y="567" on="1"/>
        <pt x="748" y="691" on="1"/>
        <pt x="457" y="691" on="1"/>
        <pt x="457" y="136" on="1"/>
        <pt x="982" y="136" on="1"/>
        <pt x="982" y="383" on="1"/>
        <pt x="1106" y="383" on="1"/>
        <pt x="1106" y="0" on="1"/>
      </contour>
      <contour>
        <pt x="259" y="1604" on="1"/>
        <pt x="259" y="1801" on="1"/>
        <pt x="456" y="1801" on="1"/>
        <pt x="456" y="1604" on="1"/>
      </contour>
      <contour>
        <pt x="728" y="1604" on="1"/>
        <pt x="728" y="1801" on="1"/>
        <pt x="925" y="1801" on="1"/>
        <pt x="925" y="1604" on="1"/>
      </contour>
    </TTGlyph>
    <TTGlyph name="Edotaccent" xMin="74" yMin="0" xMax="1106" yMax="1801">
      <contour>
        <pt x="74" y="0" on="1"/>
        <pt x="74" y="123" on="1"/>
        <pt x="259" y="123" on="1"/>
        <pt x="259" y="1357" on="1"/>
        <pt x="74" y="1357" on="1"/>
        <pt x="74" y="1480" on="1"/>
        <pt x="1056" y="1480" on="1"/>
        <pt x="1056" y="1123" on="1"/>
        <pt x="933" y="1123" on="1"/>
        <pt x="933" y="1357" on="1"/>
        <pt x="457" y="1357" on="1"/>
        <pt x="457" y="814" on="1"/>
        <pt x="748" y="814" on="1"/>
        <pt x="748" y="938" on="1"/>
        <pt x="871" y="938" on="1"/>
        <pt x="871" y="567" on="1"/>
        <pt x="748" y="567" on="1"/>
        <pt x="748" y="691" on="1"/>
        <pt x="457" y="691" on="1"/>
        <pt x="457" y="136" on="1"/>
        <pt x="982" y="136" on="1"/>
        <pt x="982" y="383" on="1"/>
        <pt x="1106" y="383" on="1"/>
        <pt x="1106" y="0" on="1"/>
      </contour>
      <contour>
        <pt x="543" y="1604" on="1"/>
        <pt x="543" y="1801" on="1"/>
        <pt x="740" y="1801" on="1"/>
        <pt x="740" y="1604" on="1"/>
      </contour>
    </TTGlyph>
    <TTGlyph name="Egrave" xMin="74" yMin="0" xMax="1106" yMax="1925">
      <contour>
        <pt x="74" y="0" on="1"/>
        <pt x="74" y="123" on="1"/>
        <pt x="259" y="123" on="1"/>
        <pt x="259" y="1357" on="1"/>
        <pt x="74" y="1357" on="1"/>
        <pt x="74" y="1480" on="1"/>
        <pt x="1056" y="1480" on="1"/>
        <pt x="1056" y="1123" on="1"/>
        <pt x="933" y="1123" on="1"/>
        <pt x="933" y="1357" on="1"/>
        <pt x="457" y="1357" on="1"/>
        <pt x="457" y="814" on="1"/>
        <pt x="748" y="814" on="1"/>
        <pt x="748" y="938" on="1"/>
        <pt x="871" y="938" on="1"/>
        <pt x="871" y="567" on="1"/>
        <pt x="748" y="567" on="1"/>
        <pt x="748" y="691" on="1"/>
        <pt x="457" y="691" on="1"/>
        <pt x="457" y="136" on="1"/>
        <pt x="982" y="136" on="1"/>
        <pt x="982" y="383" on="1"/>
        <pt x="1106" y="383" on="1"/>
        <pt x="1106" y="0" on="1"/>
      </contour>
      <contour>
        <pt x="740" y="1604" on="1"/>
        <pt x="617" y="1604" on="1"/>
        <pt x="296" y="1925" on="1"/>
        <pt x="524" y="1925" on="1"/>
      </contour>
    </TTGlyph>
    <TTGlyph name="Emacron" xMin="74" yMin="0" xMax="1106" yMax="1728">
      <contour>
        <pt x="74" y="0" on="1"/>
        <pt x="74" y="123" on="1"/>
        <pt x="259" y="123" on="1"/>
        <pt x="259" y="1357" on="1"/>
        <pt x="74" y="1357" on="1"/>
        <pt x="74" y="1480" on="1"/>
        <pt x="1056" y="1480" on="1"/>
        <pt x="1056" y="1123" on="1"/>
        <pt x="933" y="1123" on="1"/>
        <pt x="933" y="1357" on="1"/>
        <pt x="457" y="1357" on="1"/>
        <pt x="457" y="814" on="1"/>
        <pt x="748" y="814" on="1"/>
        <pt x="748" y="938" on="1"/>
        <pt x="871" y="938" on="1"/>
        <pt x="871" y="567" on="1"/>
        <pt x="748" y="567" on="1"/>
        <pt x="748" y="691" on="1"/>
        <pt x="457" y="691" on="1"/>
        <pt x="457" y="136" on="1"/>
        <pt x="982" y="136" on="1"/>
        <pt x="982" y="383" on="1"/>
        <pt x="1106" y="383" on="1"/>
        <pt x="1106" y="0" on="1"/>
      </contour>
      <contour>
        <pt x="284" y="1604" on="1"/>
        <pt x="284" y="1728" on="1"/>
        <pt x="975" y="1728" on="1"/>
        <pt x="975" y="1604" on="1"/>
      </contour>
    </TTGlyph>
    <TTGlyph name="Eng" xMin="74" yMin="-296" xMax="1155" yMax="1480">
      <contour>
        <pt x="74" y="0" on="1"/>
        <pt x="74" y="123" on="1"/>
        <pt x="185" y="123" on="1"/>
        <pt x="185" y="1357" on="1"/>
        <pt x="74" y="1357" on="1"/>
        <pt x="74" y="1480" on="1"/>
        <pt x="308" y="1480" on="1"/>
        <pt x="918" y="405" on="1"/>
        <pt x="920" y="405" on="1"/>
        <pt x="920" y="1357" on="1"/>
        <pt x="810" y="1357" on="1"/>
        <pt x="810" y="1480" on="1"/>
        <pt x="1155" y="1480" on="1"/>
        <pt x="1155" y="1357" on="1"/>
        <pt x="1044" y="1357" on="1"/>
        <pt x="1044" y="0" on="1"/>
        <pt x="1044" y="-134" on="0"/>
        <pt x="964" y="-215" on="1"/>
        <pt x="885" y="-296" on="0"/>
        <pt x="752" y="-296" on="1"/>
        <pt x="664" y="-296" on="0"/>
        <pt x="536" y="-259" on="1"/>
        <pt x="536" y="-49" on="1"/>
        <pt x="659" y="-49" on="1"/>
        <pt x="672" y="-167" on="1"/>
        <pt x="736" y="-198" on="0"/>
        <pt x="783" y="-198" on="1"/>
        <pt x="845" y="-198" on="0"/>
        <pt x="880" y="-158" on="1"/>
        <pt x="922" y="-111" on="0"/>
        <pt x="922" y="-26" on="1"/>
        <pt x="922" y="-19" on="0"/>
        <pt x="921" y="-10" on="1"/>
        <pt x="920" y="0" on="1"/>
        <pt x="311" y="1076" on="1"/>
        <pt x="308" y="1076" on="1"/>
        <pt x="308" y="123" on="1"/>
        <pt x="419" y="123" on="1"/>
        <pt x="419" y="0" on="1"/>
      </contour>
    </TTGlyph>
    <TTGlyph name="Eogonek" xMin="74" yMin="-370" xMax="1106" yMax="1480">
      <contour>
        <pt x="74" y="0" on="1"/>
        <pt x="74" y="123" on="1"/>
        <pt x="259" y="123" on="1"/>
        <pt x="259" y="1357" on="1"/>
        <pt x="74" y="1357" on="1"/>
        <pt x="74" y="1480" on="1"/>
        <pt x="1056" y="1480" on="1"/>
        <pt x="1056" y="1123" on="1"/>
        <pt x="933" y="1123" on="1"/>
        <pt x="933" y="1357" on="1"/>
        <pt x="457" y="1357" on="1"/>
        <pt x="457" y="814" on="1"/>
        <pt x="748" y="814" on="1"/>
        <pt x="748" y="938" on="1"/>
        <pt x="871" y="938" on="1"/>
        <pt x="871" y="567" on="1"/>
        <pt x="748" y="567" on="1"/>
        <pt x="748" y="691" on="1"/>
        <pt x="457" y="691" on="1"/>
        <pt x="457" y="136" on="1"/>
        <pt x="982" y="136" on="1"/>
        <pt x="982" y="383" on="1"/>
        <pt x="1106" y="383" on="1"/>
        <pt x="1106" y="0" on="1"/>
      </contour>
      <contour>
        <pt x="860" y="0" on="1"/>
        <pt x="967" y="0" on="1"/>
        <pt x="838" y="-81" on="0"/>
        <pt x="838" y="-179" on="1"/>
        <pt x="838" y="-275" on="0"/>
        <pt x="953" y="-275" on="1"/>
        <pt x="1007" y="-275" on="0"/>
        <pt x="1044" y="-260" on="1"/>
        <pt x="1044" y="-341" on="1"/>
        <pt x="982" y="-370" on="0"/>
        <pt x="904" y="-370" on="1"/>
        <pt x="702" y="-370" on="0"/>
        <pt x="702" y="-213" on="1"/>
        <pt x="702" y="-90" on="0"/>
      </contour>
    </TTGlyph>
    <TTGlyph name="Eth" xMin="49" yMin="0" xMax="1167" yMax="1480">
      <contour>
        <pt x="49" y="0" on="1"/>
        <pt x="49" y="123" on="1"/>
        <pt x="197" y="123" on="1"/>
        <pt x="197" y="716" on="1"/>
        <pt x="49" y="716" on="1"/>
        <pt x="49" y="839" on="1"/>
        <pt x="197" y="839" on="1"/>
        <pt x="197" y="1357" on="1"/>
        <pt x="49" y="1357" on="1"/>
        <pt x="49" y="1480" on="1"/>
        <pt x="558" y="1480" on="1"/>
        <pt x="1167" y="1480" on="0"/>
        <pt x="1167" y="776" on="1"/>
        <pt x="1167" y="419" on="0"/>
        <pt x="1007" y="209" on="1"/>
        <pt x="847" y="0" on="0"/>
        <pt x="577" y="0" on="1"/>
      </contour>
      <contour>
        <pt x="394" y="1357" on="1"/>
        <pt x="394" y="839" on="1"/>
        <pt x="666" y="839" on="1"/>
        <pt x="666" y="716" on="1"/>
        <pt x="394" y="716" on="1"/>
        <pt x="394" y="123" on="1"/>
        <pt x="513" y="123" on="1"/>
        <pt x="954" y="123" on="0"/>
        <pt x="954" y="754" on="1"/>
        <pt x="954" y="1062" on="0"/>
        <pt x="842" y="1210" on="1"/>
        <pt x="730" y="1357" on="0"/>
        <pt x="499" y="1357" on="1"/>
      </contour>
    </TTGlyph>
    <TTGlyph name="Euro" xMin="6" yMin="-37" xMax="1127" yMax="1517">
      <contour>
        <pt x="127" y="857" on="1"/>
        <pt x="6" y="857" on="1"/>
        <pt x="57" y="981" on="1"/>
        <pt x="143" y="981" on="1"/>
        <pt x="182" y="1150" on="0"/>
        <pt x="230" y="1236" on="1"/>
        <pt x="385" y="1517" on="0"/>
        <pt x="725" y="1517" on="1"/>
        <pt x="889" y="1517" on="0"/>
        <pt x="1106" y="1453" on="1"/>
        <pt x="1106" y="1172" on="1"/>
        <pt x="983" y="1172" on="1"/>
        <pt x="954" y="1341" on="1"/>
        <pt x="841" y="1394" on="0"/>
        <pt x="729" y="1394" on="1"/>
        <pt x="536" y="1394" on="0"/>
        <pt x="438" y="1222" on="1"/>
        <pt x="389" y="1137" on="0"/>
        <pt x="359" y="981" on="1"/>
        <pt x="1027" y="981" on="1"/>
        <pt x="976" y="857" on="1"/>
        <pt x="341" y="857" on="1"/>
        <pt x="337" y="802" on="0"/>
        <pt x="337" y="785" on="1"/>
        <pt x="336" y="761" on="0"/>
        <pt x="335" y="757" on="1"/>
        <pt x="334" y="743" on="0"/>
        <pt x="335" y="739" on="1"/>
        <pt x="336" y="734" on="0"/>
        <pt x="336" y="733" on="1"/>
        <pt x="338" y="660" on="1"/>
        <pt x="894" y="660" on="1"/>
        <pt x="843" y="537" on="1"/>
        <pt x="351" y="537" on="1"/>
        <pt x="377" y="399" on="0"/>
        <pt x="415" y="320" on="1"/>
        <pt x="521" y="99" on="0"/>
        <pt x="762" y="99" on="1"/>
        <pt x="942" y="99" on="0"/>
        <pt x="1127" y="234" on="1"/>
        <pt x="1127" y="74" on="1"/>
        <pt x="920" y="-37" on="0"/>
        <pt x="740" y="-37" on="1"/>
        <pt x="501" y="-37" on="0"/>
        <pt x="348" y="104" on="1"/>
        <pt x="242" y="202" on="0"/>
        <pt x="186" y="357" on="1"/>
        <pt x="165" y="416" on="0"/>
        <pt x="139" y="537" on="1"/>
        <pt x="6" y="537" on="1"/>
        <pt x="57" y="660" on="1"/>
        <pt x="125" y="660" on="1"/>
        <pt x="123" y="748" on="1"/>
        <pt x="121" y="759" on="1"/>
        <pt x="121" y="760" on="0"/>
        <pt x="123" y="768" on="1"/>
        <pt x="124" y="772" on="0"/>
        <pt x="124" y="791" on="1"/>
        <pt x="123" y="797" on="0"/>
        <pt x="125" y="815" on="1"/>
        <pt x="126" y="840" on="1"/>
      </contour>
    </TTGlyph>
    <TTGlyph name="Euro#1" xMin="6" yMin="-37" xMax="1127" yMax="1517">
      <contour>
        <pt x="127" y="857" on="1"/>
        <pt x="6" y="857" on="1"/>
        <pt x="57" y="981" on="1"/>
        <pt x="143" y="981" on="1"/>
        <pt x="182" y="1150" on="0"/>
        <pt x="230" y="1236" on="1"/>
        <pt x="385" y="1517" on="0"/>
        <pt x="725" y="1517" on="1"/>
        <pt x="889" y="1517" on="0"/>
        <pt x="1106" y="1453" on="1"/>
        <pt x="1106" y="1172" on="1"/>
        <pt x="983" y="1172" on="1"/>
        <pt x="954" y="1341" on="1"/>
        <pt x="841" y="1394" on="0"/>
        <pt x="729" y="1394" on="1"/>
        <pt x="536" y="1394" on="0"/>
        <pt x="438" y="1222" on="1"/>
        <pt x="389" y="1137" on="0"/>
        <pt x="359" y="981" on="1"/>
        <pt x="1027" y="981" on="1"/>
        <pt x="976" y="857" on="1"/>
        <pt x="341" y="857" on="1"/>
        <pt x="337" y="802" on="0"/>
        <pt x="337" y="785" on="1"/>
        <pt x="336" y="761" on="0"/>
        <pt x="335" y="757" on="1"/>
        <pt x="334" y="743" on="0"/>
        <pt x="335" y="739" on="1"/>
        <pt x="336" y="734" on="0"/>
        <pt x="336" y="733" on="1"/>
        <pt x="338" y="660" on="1"/>
        <pt x="894" y="660" on="1"/>
        <pt x="843" y="537" on="1"/>
        <pt x="351" y="537" on="1"/>
        <pt x="377" y="399" on="0"/>
        <pt x="415" y="320" on="1"/>
        <pt x="521" y="99" on="0"/>
        <pt x="762" y="99" on="1"/>
        <pt x="942" y="99" on="0"/>
        <pt x="1127" y="234" on="1"/>
        <pt x="1127" y="74" on="1"/>
        <pt x="920" y="-37" on="0"/>
        <pt x="740" y="-37" on="1"/>
        <pt x="501" y="-37" on="0"/>
        <pt x="348" y="104" on="1"/>
        <pt x="242" y="202" on="0"/>
        <pt x="186" y="357" on="1"/>
        <pt x="165" y="416" on="0"/>
        <pt x="139" y="537" on="1"/>
        <pt x="6" y="537" on="1"/>
        <pt x="57" y="660" on="1"/>
        <pt x="125" y="660" on="1"/>
        <pt x="123" y="748" on="1"/>
        <pt x="121" y="759" on="1"/>
        <pt x="121" y="760" on="0"/>
        <pt x="123" y="768" on="1"/>
        <pt x="124" y="772" on="0"/>
        <pt x="124" y="791" on="1"/>
        <pt x="123" y="797" on="0"/>
        <pt x="125" y="815" on="1"/>
        <pt x="126" y="840" on="1"/>
      </contour>
    </TTGlyph>
    <TTGlyph name="F" xMin="111" yMin="0" xMax="1136" yMax="1480">
      <contour>
        <pt x="530" y="123" on="1"/>
        <pt x="802" y="123" on="1"/>
        <pt x="802" y="0" on="1"/>
        <pt x="111" y="0" on="1"/>
        <pt x="111" y="123" on="1"/>
        <pt x="333" y="123" on="1"/>
        <pt x="333" y="1357" on="1"/>
        <pt x="111" y="1357" on="1"/>
        <pt x="111" y="1480" on="1"/>
        <pt x="1136" y="1480" on="1"/>
        <pt x="1136" y="1110" on="1"/>
        <pt x="1013" y="1110" on="1"/>
        <pt x="1013" y="1357" on="1"/>
        <pt x="530" y="1357" on="1"/>
        <pt x="530" y="777" on="1"/>
        <pt x="828" y="777" on="1"/>
        <pt x="828" y="901" on="1"/>
        <pt x="951" y="901" on="1"/>
        <pt x="951" y="530" on="1"/>
        <pt x="828" y="530" on="1"/>
        <pt x="828" y="654" on="1"/>
        <pt x="530" y="654" on="1"/>
      </contour>
    </TTGlyph>
    <TTGlyph name="G" xMin="74" yMin="-37" xMax="1081" yMax="1518">
      <contour>
        <pt x="1081" y="74" on="1"/>
        <pt x="899" y="-37" on="0"/>
        <pt x="698" y="-37" on="1"/>
        <pt x="402" y="-37" on="0"/>
        <pt x="238" y="169" on="1"/>
        <pt x="74" y="374" on="0"/>
        <pt x="74" y="747" on="1"/>
        <pt x="74" y="1120" on="0"/>
        <pt x="231" y="1319" on="1"/>
        <pt x="389" y="1518" on="0"/>
        <pt x="688" y="1518" on="1"/>
        <pt x="861" y="1518" on="0"/>
        <pt x="1057" y="1456" on="1"/>
        <pt x="1057" y="1110" on="1"/>
        <pt x="934" y="1110" on="1"/>
        <pt x="905" y="1341" on="1"/>
        <pt x="791" y="1395" on="0"/>
        <pt x="692" y="1395" on="1"/>
        <pt x="287" y="1395" on="0"/>
        <pt x="287" y="737" on="1"/>
        <pt x="287" y="430" on="0"/>
        <pt x="402" y="264" on="1"/>
        <pt x="517" y="99" on="0"/>
        <pt x="721" y="99" on="1"/>
        <pt x="799" y="99" on="0"/>
        <pt x="883" y="131" on="1"/>
        <pt x="883" y="537" on="1"/>
        <pt x="711" y="537" on="1"/>
        <pt x="711" y="660" on="1"/>
        <pt x="1081" y="660" on="1"/>
      </contour>
    </TTGlyph>
    <TTGlyph name="Gbreve" xMin="74" yMin="-37" xMax="1081" yMax="1925">
      <contour>
        <pt x="1081" y="74" on="1"/>
        <pt x="899" y="-37" on="0"/>
        <pt x="698" y="-37" on="1"/>
        <pt x="402" y="-37" on="0"/>
        <pt x="238" y="169" on="1"/>
        <pt x="74" y="374" on="0"/>
        <pt x="74" y="747" on="1"/>
        <pt x="74" y="1120" on="0"/>
        <pt x="231" y="1319" on="1"/>
        <pt x="389" y="1518" on="0"/>
        <pt x="688" y="1518" on="1"/>
        <pt x="861" y="1518" on="0"/>
        <pt x="1057" y="1456" on="1"/>
        <pt x="1057" y="1110" on="1"/>
        <pt x="934" y="1110" on="1"/>
        <pt x="905" y="1341" on="1"/>
        <pt x="791" y="1395" on="0"/>
        <pt x="692" y="1395" on="1"/>
        <pt x="287" y="1395" on="0"/>
        <pt x="287" y="737" on="1"/>
        <pt x="287" y="430" on="0"/>
        <pt x="402" y="264" on="1"/>
        <pt x="517" y="99" on="0"/>
        <pt x="721" y="99" on="1"/>
        <pt x="799" y="99" on="0"/>
        <pt x="883" y="131" on="1"/>
        <pt x="883" y="537" on="1"/>
        <pt x="711" y="537" on="1"/>
        <pt x="711" y="660" on="1"/>
        <pt x="1081" y="660" on="1"/>
      </contour>
      <contour>
        <pt x="320" y="1925" on="1"/>
        <pt x="443" y="1925" on="1"/>
        <pt x="491" y="1777" on="0"/>
        <pt x="665" y="1777" on="1"/>
        <pt x="840" y="1777" on="0"/>
        <pt x="888" y="1925" on="1"/>
        <pt x="1011" y="1925" on="1"/>
        <pt x="988" y="1836" on="0"/>
        <pt x="962" y="1790" on="1"/>
        <pt x="871" y="1635" on="0"/>
        <pt x="670" y="1635" on="1"/>
        <pt x="517" y="1635" on="0"/>
        <pt x="428" y="1716" on="1"/>
        <pt x="373" y="1765" on="0"/>
        <pt x="345" y="1837" on="1"/>
        <pt x="334" y="1866" on="0"/>
      </contour>
    </TTGlyph>
    <TTGlyph name="Gcircumflex" xMin="74" yMin="-37" xMax="1081" yMax="1925">
      <contour>
        <pt x="1081" y="74" on="1"/>
        <pt x="899" y="-37" on="0"/>
        <pt x="698" y="-37" on="1"/>
        <pt x="402" y="-37" on="0"/>
        <pt x="238" y="169" on="1"/>
        <pt x="74" y="374" on="0"/>
        <pt x="74" y="747" on="1"/>
        <pt x="74" y="1120" on="0"/>
        <pt x="231" y="1319" on="1"/>
        <pt x="389" y="1518" on="0"/>
        <pt x="688" y="1518" on="1"/>
        <pt x="861" y="1518" on="0"/>
        <pt x="1057" y="1456" on="1"/>
        <pt x="1057" y="1110" on="1"/>
        <pt x="934" y="1110" on="1"/>
        <pt x="905" y="1341" on="1"/>
        <pt x="791" y="1395" on="0"/>
        <pt x="692" y="1395" on="1"/>
        <pt x="287" y="1395" on="0"/>
        <pt x="287" y="737" on="1"/>
        <pt x="287" y="430" on="0"/>
        <pt x="402" y="264" on="1"/>
        <pt x="517" y="99" on="0"/>
        <pt x="721" y="99" on="1"/>
        <pt x="799" y="99" on="0"/>
        <pt x="883" y="131" on="1"/>
        <pt x="883" y="537" on="1"/>
        <pt x="711" y="537" on="1"/>
        <pt x="711" y="660" on="1"/>
        <pt x="1081" y="660" on="1"/>
      </contour>
      <contour>
        <pt x="299" y="1604" on="1"/>
        <pt x="555" y="1925" on="1"/>
        <pt x="774" y="1925" on="1"/>
        <pt x="1030" y="1604" on="1"/>
        <pt x="907" y="1604" on="1"/>
        <pt x="666" y="1806" on="1"/>
        <pt x="663" y="1806" on="1"/>
        <pt x="422" y="1604" on="1"/>
      </contour>
    </TTGlyph>
    <TTGlyph name="Gcommaaccent" xMin="74" yMin="-432" xMax="1081" yMax="1518">
      <contour>
        <pt x="1081" y="74" on="1"/>
        <pt x="899" y="-37" on="0"/>
        <pt x="698" y="-37" on="1"/>
        <pt x="402" y="-37" on="0"/>
        <pt x="238" y="169" on="1"/>
        <pt x="74" y="374" on="0"/>
        <pt x="74" y="747" on="1"/>
        <pt x="74" y="1120" on="0"/>
        <pt x="231" y="1319" on="1"/>
        <pt x="389" y="1518" on="0"/>
        <pt x="688" y="1518" on="1"/>
        <pt x="860" y="1518" on="0"/>
        <pt x="1057" y="1456" on="1"/>
        <pt x="1057" y="1110" on="1"/>
        <pt x="934" y="1110" on="1"/>
        <pt x="905" y="1341" on="1"/>
        <pt x="791" y="1395" on="0"/>
        <pt x="691" y="1395" on="1"/>
        <pt x="287" y="1395" on="0"/>
        <pt x="287" y="737" on="1"/>
        <pt x="287" y="430" on="0"/>
        <pt x="402" y="264" on="1"/>
        <pt x="517" y="99" on="0"/>
        <pt x="721" y="99" on="1"/>
        <pt x="799" y="99" on="0"/>
        <pt x="883" y="131" on="1"/>
        <pt x="883" y="537" on="1"/>
        <pt x="711" y="537" on="1"/>
        <pt x="711" y="660" on="1"/>
        <pt x="1081" y="660" on="1"/>
      </contour>
      <contour>
        <pt x="528" y="-421" on="1"/>
        <pt x="528" y="-336" on="1"/>
        <pt x="585" y="-345" on="0"/>
        <pt x="625" y="-345" on="1"/>
        <pt x="734" y="-345" on="0"/>
        <pt x="734" y="-278" on="1"/>
        <pt x="734" y="-204" on="0"/>
        <pt x="577" y="-188" on="1"/>
        <pt x="577" y="-111" on="1"/>
        <pt x="711" y="-114" on="0"/>
        <pt x="777" y="-143" on="1"/>
        <pt x="870" y="-185" on="0"/>
        <pt x="870" y="-280" on="1"/>
        <pt x="870" y="-432" on="0"/>
        <pt x="652" y="-432" on="1"/>
        <pt x="594" y="-432" on="0"/>
      </contour>
    </TTGlyph>
    <TTGlyph name="Gdotaccent" xMin="74" yMin="-37" xMax="1081" yMax="1801">
      <contour>
        <pt x="1081" y="74" on="1"/>
        <pt x="899" y="-37" on="0"/>
        <pt x="698" y="-37" on="1"/>
        <pt x="402" y="-37" on="0"/>
        <pt x="238" y="169" on="1"/>
        <pt x="74" y="374" on="0"/>
        <pt x="74" y="747" on="1"/>
        <pt x="74" y="1120" on="0"/>
        <pt x="231" y="1319" on="1"/>
        <pt x="389" y="1518" on="0"/>
        <pt x="688" y="1518" on="1"/>
        <pt x="861" y="1518" on="0"/>
        <pt x="1057" y="1456" on="1"/>
        <pt x="1057" y="1110" on="1"/>
        <pt x="934" y="1110" on="1"/>
        <pt x="905" y="1341" on="1"/>
        <pt x="791" y="1395" on="0"/>
        <pt x="692" y="1395" on="1"/>
        <pt x="287" y="1395" on="0"/>
        <pt x="287" y="737" on="1"/>
        <pt x="287" y="430" on="0"/>
        <pt x="402" y="264" on="1"/>
        <pt x="517" y="99" on="0"/>
        <pt x="721" y="99" on="1"/>
        <pt x="799" y="99" on="0"/>
        <pt x="883" y="131" on="1"/>
        <pt x="883" y="537" on="1"/>
        <pt x="711" y="537" on="1"/>
        <pt x="711" y="660" on="1"/>
        <pt x="1081" y="660" on="1"/>
      </contour>
      <contour>
        <pt x="566" y="1604" on="1"/>
        <pt x="566" y="1801" on="1"/>
        <pt x="763" y="1801" on="1"/>
        <pt x="763" y="1604" on="1"/>
      </contour>
    </TTGlyph>
    <TTGlyph name="H" xMin="62" yMin="0" xMax="1168" yMax="1480">
      <contour>
        <pt x="370" y="703" on="1"/>
        <pt x="370" y="123" on="1"/>
        <pt x="469" y="123" on="1"/>
        <pt x="469" y="0" on="1"/>
        <pt x="62" y="0" on="1"/>
        <pt x="62" y="123" on="1"/>
        <pt x="173" y="123" on="1"/>
        <pt x="173" y="1357" on="1"/>
        <pt x="62" y="1357" on="1"/>
        <pt x="62" y="1480" on="1"/>
        <pt x="469" y="1480" on="1"/>
        <pt x="469" y="1357" on="1"/>
        <pt x="370" y="1357" on="1"/>
        <pt x="370" y="827" on="1"/>
        <pt x="859" y="827" on="1"/>
        <pt x="859" y="1357" on="1"/>
        <pt x="760" y="1357" on="1"/>
        <pt x="760" y="1480" on="1"/>
        <pt x="1168" y="1480" on="1"/>
        <pt x="1168" y="1357" on="1"/>
        <pt x="1057" y="1357" on="1"/>
        <pt x="1057" y="123" on="1"/>
        <pt x="1168" y="123" on="1"/>
        <pt x="1168" y="0" on="1"/>
        <pt x="760" y="0" on="1"/>
        <pt x="760" y="123" on="1"/>
        <pt x="859" y="123" on="1"/>
        <pt x="859" y="703" on="1"/>
      </contour>
    </TTGlyph>
    <TTGlyph name="Hbar" xMin="37" yMin="0" xMax="1192" yMax="1480">
      <contour>
        <pt x="370" y="827" on="1"/>
        <pt x="859" y="827" on="1"/>
        <pt x="859" y="1086" on="1"/>
        <pt x="370" y="1086" on="1"/>
      </contour>
      <contour>
        <pt x="62" y="0" on="1"/>
        <pt x="62" y="123" on="1"/>
        <pt x="173" y="123" on="1"/>
        <pt x="173" y="1086" on="1"/>
        <pt x="37" y="1086" on="1"/>
        <pt x="37" y="1184" on="1"/>
        <pt x="173" y="1184" on="1"/>
        <pt x="173" y="1357" on="1"/>
        <pt x="62" y="1357" on="1"/>
        <pt x="62" y="1480" on="1"/>
        <pt x="469" y="1480" on="1"/>
        <pt x="469" y="1357" on="1"/>
        <pt x="370" y="1357" on="1"/>
        <pt x="370" y="1185" on="1"/>
        <pt x="859" y="1185" on="1"/>
        <pt x="859" y="1357" on="1"/>
        <pt x="760" y="1357" on="1"/>
        <pt x="760" y="1480" on="1"/>
        <pt x="1168" y="1480" on="1"/>
        <pt x="1168" y="1357" on="1"/>
        <pt x="1057" y="1357" on="1"/>
        <pt x="1057" y="1184" on="1"/>
        <pt x="1192" y="1184" on="1"/>
        <pt x="1192" y="1086" on="1"/>
        <pt x="1057" y="1086" on="1"/>
        <pt x="1057" y="123" on="1"/>
        <pt x="1168" y="123" on="1"/>
        <pt x="1168" y="0" on="1"/>
        <pt x="760" y="0" on="1"/>
        <pt x="760" y="123" on="1"/>
        <pt x="859" y="123" on="1"/>
        <pt x="859" y="703" on="1"/>
        <pt x="370" y="703" on="1"/>
        <pt x="370" y="123" on="1"/>
        <pt x="469" y="123" on="1"/>
        <pt x="469" y="0" on="1"/>
      </contour>
    </TTGlyph>
    <TTGlyph name="Hcircumflex" xMin="62" yMin="0" xMax="1168" yMax="1925">
      <contour>
        <pt x="370" y="703" on="1"/>
        <pt x="370" y="123" on="1"/>
        <pt x="469" y="123" on="1"/>
        <pt x="469" y="0" on="1"/>
        <pt x="62" y="0" on="1"/>
        <pt x="62" y="123" on="1"/>
        <pt x="173" y="123" on="1"/>
        <pt x="173" y="1357" on="1"/>
        <pt x="62" y="1357" on="1"/>
        <pt x="62" y="1480" on="1"/>
        <pt x="469" y="1480" on="1"/>
        <pt x="469" y="1357" on="1"/>
        <pt x="370" y="1357" on="1"/>
        <pt x="370" y="827" on="1"/>
        <pt x="859" y="827" on="1"/>
        <pt x="859" y="1357" on="1"/>
        <pt x="760" y="1357" on="1"/>
        <pt x="760" y="1480" on="1"/>
        <pt x="1168" y="1480" on="1"/>
        <pt x="1168" y="1357" on="1"/>
        <pt x="1057" y="1357" on="1"/>
        <pt x="1057" y="123" on="1"/>
        <pt x="1168" y="123" on="1"/>
        <pt x="1168" y="0" on="1"/>
        <pt x="760" y="0" on="1"/>
        <pt x="760" y="123" on="1"/>
        <pt x="859" y="123" on="1"/>
        <pt x="859" y="703" on="1"/>
      </contour>
      <contour>
        <pt x="249" y="1604" on="1"/>
        <pt x="505" y="1925" on="1"/>
        <pt x="724" y="1925" on="1"/>
        <pt x="980" y="1604" on="1"/>
        <pt x="857" y="1604" on="1"/>
        <pt x="616" y="1806" on="1"/>
        <pt x="613" y="1806" on="1"/>
        <pt x="372" y="1604" on="1"/>
      </contour>
    </TTGlyph>
    <TTGlyph name="I" xMin="160" yMin="0" xMax="1068" yMax="1480">
      <contour>
        <pt x="160" y="0" on="1"/>
        <pt x="160" y="123" on="1"/>
        <pt x="515" y="123" on="1"/>
        <pt x="515" y="1357" on="1"/>
        <pt x="160" y="1357" on="1"/>
        <pt x="160" y="1480" on="1"/>
        <pt x="1068" y="1480" on="1"/>
        <pt x="1068" y="1357" on="1"/>
        <pt x="713" y="1357" on="1"/>
        <pt x="713" y="123" on="1"/>
        <pt x="1068" y="123" on="1"/>
        <pt x="1068" y="0" on="1"/>
      </contour>
    </TTGlyph>
    <TTGlyph name="IJ" xMin="45" yMin="-37" xMax="1131" yMax="1480">
      <contour>
        <pt x="45" y="0" on="1"/>
        <pt x="45" y="123" on="1"/>
        <pt x="144" y="123" on="1"/>
        <pt x="144" y="1357" on="1"/>
        <pt x="45" y="1357" on="1"/>
        <pt x="45" y="1480" on="1"/>
        <pt x="440" y="1480" on="1"/>
        <pt x="440" y="1357" on="1"/>
        <pt x="341" y="1357" on="1"/>
        <pt x="341" y="123" on="1"/>
        <pt x="440" y="123" on="1"/>
        <pt x="440" y="0" on="1"/>
      </contour>
      <contour>
        <pt x="563" y="-19" on="1"/>
        <pt x="563" y="197" on="1"/>
        <pt x="687" y="197" on="1"/>
        <pt x="699" y="108" on="1"/>
        <pt x="729" y="86" on="0"/>
        <pt x="762" y="86" on="1"/>
        <pt x="933" y="86" on="0"/>
        <pt x="933" y="410" on="1"/>
        <pt x="933" y="1357" on="1"/>
        <pt x="736" y="1357" on="1"/>
        <pt x="736" y="1480" on="1"/>
        <pt x="1131" y="1480" on="1"/>
        <pt x="1131" y="533" on="1"/>
        <pt x="1131" y="226" on="0"/>
        <pt x="1034" y="105" on="1"/>
        <pt x="920" y="-37" on="0"/>
        <pt x="711" y="-37" on="1"/>
        <pt x="652" y="-37" on="0"/>
      </contour>
    </TTGlyph>
    <TTGlyph name="Iacute" xMin="160" yMin="0" xMax="1068" yMax="1925">
      <contour>
        <pt x="160" y="0" on="1"/>
        <pt x="160" y="123" on="1"/>
        <pt x="515" y="123" on="1"/>
        <pt x="515" y="1357" on="1"/>
        <pt x="160" y="1357" on="1"/>
        <pt x="160" y="1480" on="1"/>
        <pt x="1068" y="1480" on="1"/>
        <pt x="1068" y="1357" on="1"/>
        <pt x="713" y="1357" on="1"/>
        <pt x="713" y="123" on="1"/>
        <pt x="1068" y="123" on="1"/>
        <pt x="1068" y="0" on="1"/>
      </contour>
      <contour>
        <pt x="515" y="1604" on="1"/>
        <pt x="731" y="1925" on="1"/>
        <pt x="959" y="1925" on="1"/>
        <pt x="638" y="1604" on="1"/>
      </contour>
    </TTGlyph>
    <TTGlyph name="Ibreve" xMin="160" yMin="0" xMax="1068" yMax="1925">
      <contour>
        <pt x="160" y="0" on="1"/>
        <pt x="160" y="123" on="1"/>
        <pt x="515" y="123" on="1"/>
        <pt x="515" y="1357" on="1"/>
        <pt x="160" y="1357" on="1"/>
        <pt x="160" y="1480" on="1"/>
        <pt x="1068" y="1480" on="1"/>
        <pt x="1068" y="1357" on="1"/>
        <pt x="713" y="1357" on="1"/>
        <pt x="713" y="123" on="1"/>
        <pt x="1068" y="123" on="1"/>
        <pt x="1068" y="0" on="1"/>
      </contour>
      <contour>
        <pt x="269" y="1925" on="1"/>
        <pt x="392" y="1925" on="1"/>
        <pt x="440" y="1777" on="0"/>
        <pt x="614" y="1777" on="1"/>
        <pt x="789" y="1777" on="0"/>
        <pt x="837" y="1925" on="1"/>
        <pt x="960" y="1925" on="1"/>
        <pt x="937" y="1836" on="0"/>
        <pt x="911" y="1790" on="1"/>
        <pt x="820" y="1635" on="0"/>
        <pt x="618" y="1635" on="1"/>
        <pt x="466" y="1635" on="0"/>
        <pt x="377" y="1716" on="1"/>
        <pt x="322" y="1765" on="0"/>
        <pt x="294" y="1837" on="1"/>
        <pt x="283" y="1866" on="0"/>
      </contour>
    </TTGlyph>
    <TTGlyph name="Icircumflex" xMin="160" yMin="0" xMax="1068" yMax="1925">
      <contour>
        <pt x="160" y="0" on="1"/>
        <pt x="160" y="123" on="1"/>
        <pt x="515" y="123" on="1"/>
        <pt x="515" y="1357" on="1"/>
        <pt x="160" y="1357" on="1"/>
        <pt x="160" y="1480" on="1"/>
        <pt x="1068" y="1480" on="1"/>
        <pt x="1068" y="1357" on="1"/>
        <pt x="713" y="1357" on="1"/>
        <pt x="713" y="123" on="1"/>
        <pt x="1068" y="123" on="1"/>
        <pt x="1068" y="0" on="1"/>
      </contour>
      <contour>
        <pt x="248" y="1604" on="1"/>
        <pt x="504" y="1925" on="1"/>
        <pt x="723" y="1925" on="1"/>
        <pt x="979" y="1604" on="1"/>
        <pt x="856" y="1604" on="1"/>
        <pt x="615" y="1806" on="1"/>
        <pt x="612" y="1806" on="1"/>
        <pt x="371" y="1604" on="1"/>
      </contour>
    </TTGlyph>
    <TTGlyph name="Idieresis" xMin="160" yMin="0" xMax="1068" yMax="1801">
      <contour>
        <pt x="160" y="0" on="1"/>
        <pt x="160" y="123" on="1"/>
        <pt x="515" y="123" on="1"/>
        <pt x="515" y="1357" on="1"/>
        <pt x="160" y="1357" on="1"/>
        <pt x="160" y="1480" on="1"/>
        <pt x="1068" y="1480" on="1"/>
        <pt x="1068" y="1357" on="1"/>
        <pt x="713" y="1357" on="1"/>
        <pt x="713" y="123" on="1"/>
        <pt x="1068" y="123" on="1"/>
        <pt x="1068" y="0" on="1"/>
      </contour>
      <contour>
        <pt x="281" y="1604" on="1"/>
        <pt x="281" y="1801" on="1"/>
        <pt x="478" y="1801" on="1"/>
        <pt x="478" y="1604" on="1"/>
      </contour>
      <contour>
        <pt x="750" y="1604" on="1"/>
        <pt x="750" y="1801" on="1"/>
        <pt x="947" y="1801" on="1"/>
        <pt x="947" y="1604" on="1"/>
      </contour>
    </TTGlyph>
    <TTGlyph name="Idotaccent" xMin="160" yMin="0" xMax="1068" yMax="1801">
      <contour>
        <pt x="160" y="0" on="1"/>
        <pt x="160" y="123" on="1"/>
        <pt x="515" y="123" on="1"/>
        <pt x="515" y="1357" on="1"/>
        <pt x="160" y="1357" on="1"/>
        <pt x="160" y="1480" on="1"/>
        <pt x="1068" y="1480" on="1"/>
        <pt x="1068" y="1357" on="1"/>
        <pt x="713" y="1357" on="1"/>
        <pt x="713" y="123" on="1"/>
        <pt x="1068" y="123" on="1"/>
        <pt x="1068" y="0" on="1"/>
      </contour>
      <contour>
        <pt x="515" y="1604" on="1"/>
        <pt x="515" y="1801" on="1"/>
        <pt x="712" y="1801" on="1"/>
        <pt x="712" y="1604" on="1"/>
      </contour>
    </TTGlyph>
    <TTGlyph name="Igrave" xMin="160" yMin="0" xMax="1068" yMax="1925">
      <contour>
        <pt x="160" y="0" on="1"/>
        <pt x="160" y="123" on="1"/>
        <pt x="515" y="123" on="1"/>
        <pt x="515" y="1357" on="1"/>
        <pt x="160" y="1357" on="1"/>
        <pt x="160" y="1480" on="1"/>
        <pt x="1068" y="1480" on="1"/>
        <pt x="1068" y="1357" on="1"/>
        <pt x="713" y="1357" on="1"/>
        <pt x="713" y="123" on="1"/>
        <pt x="1068" y="123" on="1"/>
        <pt x="1068" y="0" on="1"/>
      </contour>
      <contour>
        <pt x="712" y="1604" on="1"/>
        <pt x="589" y="1604" on="1"/>
        <pt x="268" y="1925" on="1"/>
        <pt x="496" y="1925" on="1"/>
      </contour>
    </TTGlyph>
    <TTGlyph name="Imacron" xMin="160" yMin="0" xMax="1068" yMax="1728">
      <contour>
        <pt x="160" y="0" on="1"/>
        <pt x="160" y="123" on="1"/>
        <pt x="515" y="123" on="1"/>
        <pt x="515" y="1357" on="1"/>
        <pt x="160" y="1357" on="1"/>
        <pt x="160" y="1480" on="1"/>
        <pt x="1068" y="1480" on="1"/>
        <pt x="1068" y="1357" on="1"/>
        <pt x="713" y="1357" on="1"/>
        <pt x="713" y="123" on="1"/>
        <pt x="1068" y="123" on="1"/>
        <pt x="1068" y="0" on="1"/>
      </contour>
      <contour>
        <pt x="269" y="1604" on="1"/>
        <pt x="269" y="1728" on="1"/>
        <pt x="960" y="1728" on="1"/>
        <pt x="960" y="1604" on="1"/>
      </contour>
    </TTGlyph>
    <TTGlyph name="Iogonek" xMin="160" yMin="-370" xMax="1068" yMax="1480">
      <contour>
        <pt x="160" y="0" on="1"/>
        <pt x="160" y="123" on="1"/>
        <pt x="515" y="123" on="1"/>
        <pt x="515" y="1357" on="1"/>
        <pt x="160" y="1357" on="1"/>
        <pt x="160" y="1480" on="1"/>
        <pt x="1068" y="1480" on="1"/>
        <pt x="1068" y="1357" on="1"/>
        <pt x="713" y="1357" on="1"/>
        <pt x="713" y="123" on="1"/>
        <pt x="1068" y="123" on="1"/>
        <pt x="1068" y="0" on="1"/>
      </contour>
      <contour>
        <pt x="785" y="0" on="1"/>
        <pt x="892" y="0" on="1"/>
        <pt x="763" y="-81" on="0"/>
        <pt x="763" y="-179" on="1"/>
        <pt x="763" y="-275" on="0"/>
        <pt x="878" y="-275" on="1"/>
        <pt x="932" y="-275" on="0"/>
        <pt x="969" y="-260" on="1"/>
        <pt x="969" y="-341" on="1"/>
        <pt x="907" y="-370" on="0"/>
        <pt x="830" y="-370" on="1"/>
        <pt x="627" y="-370" on="0"/>
        <pt x="627" y="-213" on="1"/>
        <pt x="627" y="-90" on="0"/>
      </contour>
    </TTGlyph>
    <TTGlyph name="Itilde" xMin="160" yMin="0" xMax="1068" yMax="1839">
      <contour>
        <pt x="160" y="0" on="1"/>
        <pt x="160" y="123" on="1"/>
        <pt x="515" y="123" on="1"/>
        <pt x="515" y="1357" on="1"/>
        <pt x="160" y="1357" on="1"/>
        <pt x="160" y="1480" on="1"/>
        <pt x="1068" y="1480" on="1"/>
        <pt x="1068" y="1357" on="1"/>
        <pt x="713" y="1357" on="1"/>
        <pt x="713" y="123" on="1"/>
        <pt x="1068" y="123" on="1"/>
        <pt x="1068" y="0" on="1"/>
      </contour>
      <contour>
        <pt x="281" y="1604" on="1"/>
        <pt x="287" y="1699" on="0"/>
        <pt x="312" y="1749" on="1"/>
        <pt x="357" y="1839" on="0"/>
        <pt x="466" y="1839" on="1"/>
        <pt x="538" y="1839" on="0"/>
        <pt x="601" y="1800" on="1"/>
        <pt x="661" y="1763" on="1"/>
        <pt x="723" y="1725" on="0"/>
        <pt x="757" y="1725" on="1"/>
        <pt x="825" y="1725" on="0"/>
        <pt x="836" y="1839" on="1"/>
        <pt x="947" y="1839" on="1"/>
        <pt x="940" y="1745" on="0"/>
        <pt x="915" y="1695" on="1"/>
        <pt x="869" y="1604" on="0"/>
        <pt x="762" y="1604" on="1"/>
        <pt x="689" y="1604" on="0"/>
        <pt x="626" y="1643" on="1"/>
        <pt x="566" y="1680" on="1"/>
        <pt x="506" y="1717" on="0"/>
        <pt x="470" y="1717" on="1"/>
        <pt x="402" y="1717" on="0"/>
        <pt x="391" y="1604" on="1"/>
      </contour>
    </TTGlyph>
    <TTGlyph name="J" xMin="111" yMin="-37" xMax="1143" yMax="1480">
      <contour>
        <pt x="111" y="31" on="1"/>
        <pt x="111" y="444" on="1"/>
        <pt x="234" y="444" on="1"/>
        <pt x="273" y="135" on="1"/>
        <pt x="386" y="86" on="0"/>
        <pt x="467" y="86" on="1"/>
        <pt x="583" y="86" on="0"/>
        <pt x="634" y="141" on="1"/>
        <pt x="686" y="195" on="0"/>
        <pt x="686" y="322" on="1"/>
        <pt x="686" y="1357" on="1"/>
        <pt x="291" y="1357" on="1"/>
        <pt x="291" y="1480" on="1"/>
        <pt x="1143" y="1480" on="1"/>
        <pt x="1143" y="1357" on="1"/>
        <pt x="883" y="1357" on="1"/>
        <pt x="883" y="362" on="1"/>
        <pt x="883" y="148" on="0"/>
        <pt x="791" y="56" on="1"/>
        <pt x="699" y="-37" on="0"/>
        <pt x="487" y="-37" on="1"/>
        <pt x="329" y="-37" on="0"/>
      </contour>
    </TTGlyph>
    <TTGlyph name="Jcircumflex" xMin="111" yMin="-37" xMax="1143" yMax="1925">
      <contour>
        <pt x="111" y="31" on="1"/>
        <pt x="111" y="444" on="1"/>
        <pt x="234" y="444" on="1"/>
        <pt x="273" y="135" on="1"/>
        <pt x="386" y="86" on="0"/>
        <pt x="467" y="86" on="1"/>
        <pt x="583" y="86" on="0"/>
        <pt x="634" y="141" on="1"/>
        <pt x="686" y="195" on="0"/>
        <pt x="686" y="322" on="1"/>
        <pt x="686" y="1357" on="1"/>
        <pt x="291" y="1357" on="1"/>
        <pt x="291" y="1480" on="1"/>
        <pt x="1143" y="1480" on="1"/>
        <pt x="1143" y="1357" on="1"/>
        <pt x="883" y="1357" on="1"/>
        <pt x="883" y="362" on="1"/>
        <pt x="883" y="148" on="0"/>
        <pt x="791" y="56" on="1"/>
        <pt x="699" y="-37" on="0"/>
        <pt x="487" y="-37" on="1"/>
        <pt x="329" y="-37" on="0"/>
      </contour>
      <contour>
        <pt x="351" y="1604" on="1"/>
        <pt x="607" y="1925" on="1"/>
        <pt x="826" y="1925" on="1"/>
        <pt x="1082" y="1604" on="1"/>
        <pt x="959" y="1604" on="1"/>
        <pt x="718" y="1806" on="1"/>
        <pt x="715" y="1806" on="1"/>
        <pt x="474" y="1604" on="1"/>
      </contour>
    </TTGlyph>
    <TTGlyph name="K" xMin="74" yMin="0" xMax="1197" yMax="1480">
      <contour>
        <pt x="74" y="0" on="1"/>
        <pt x="74" y="123" on="1"/>
        <pt x="204" y="123" on="1"/>
        <pt x="204" y="1357" on="1"/>
        <pt x="74" y="1357" on="1"/>
        <pt x="74" y="1480" on="1"/>
        <pt x="506" y="1480" on="1"/>
        <pt x="506" y="1357" on="1"/>
        <pt x="401" y="1357" on="1"/>
        <pt x="401" y="756" on="1"/>
        <pt x="408" y="756" on="1"/>
        <pt x="838" y="1357" on="1"/>
        <pt x="727" y="1357" on="1"/>
        <pt x="727" y="1480" on="1"/>
        <pt x="1083" y="1480" on="1"/>
        <pt x="1083" y="1357" on="1"/>
        <pt x="991" y="1357" on="1"/>
        <pt x="594" y="811" on="1"/>
        <pt x="1123" y="123" on="1"/>
        <pt x="1197" y="123" on="1"/>
        <pt x="1197" y="0" on="1"/>
        <pt x="772" y="0" on="1"/>
        <pt x="772" y="123" on="1"/>
        <pt x="883" y="123" on="1"/>
        <pt x="408" y="740" on="1"/>
        <pt x="401" y="740" on="1"/>
        <pt x="401" y="123" on="1"/>
        <pt x="524" y="123" on="1"/>
        <pt x="524" y="0" on="1"/>
      </contour>
    </TTGlyph>
    <TTGlyph name="Kcommaaccent" xMin="74" yMin="-432" xMax="1197" yMax="1480">
      <contour>
        <pt x="74" y="0" on="1"/>
        <pt x="74" y="123" on="1"/>
        <pt x="204" y="123" on="1"/>
        <pt x="204" y="1357" on="1"/>
        <pt x="74" y="1357" on="1"/>
        <pt x="74" y="1480" on="1"/>
        <pt x="506" y="1480" on="1"/>
        <pt x="506" y="1357" on="1"/>
        <pt x="401" y="1357" on="1"/>
        <pt x="401" y="756" on="1"/>
        <pt x="408" y="756" on="1"/>
        <pt x="838" y="1357" on="1"/>
        <pt x="727" y="1357" on="1"/>
        <pt x="727" y="1480" on="1"/>
        <pt x="1083" y="1480" on="1"/>
        <pt x="1083" y="1357" on="1"/>
        <pt x="991" y="1357" on="1"/>
        <pt x="594" y="811" on="1"/>
        <pt x="1123" y="123" on="1"/>
        <pt x="1197" y="123" on="1"/>
        <pt x="1197" y="0" on="1"/>
        <pt x="772" y="0" on="1"/>
        <pt x="772" y="123" on="1"/>
        <pt x="883" y="123" on="1"/>
        <pt x="408" y="740" on="1"/>
        <pt x="401" y="740" on="1"/>
        <pt x="401" y="123" on="1"/>
        <pt x="524" y="123" on="1"/>
        <pt x="524" y="0" on="1"/>
      </contour>
      <contour>
        <pt x="512" y="-421" on="1"/>
        <pt x="512" y="-336" on="1"/>
        <pt x="569" y="-345" on="0"/>
        <pt x="609" y="-345" on="1"/>
        <pt x="718" y="-345" on="0"/>
        <pt x="718" y="-278" on="1"/>
        <pt x="718" y="-205" on="0"/>
        <pt x="561" y="-188" on="1"/>
        <pt x="561" y="-111" on="1"/>
        <pt x="695" y="-114" on="0"/>
        <pt x="761" y="-143" on="1"/>
        <pt x="854" y="-185" on="0"/>
        <pt x="854" y="-280" on="1"/>
        <pt x="854" y="-432" on="0"/>
        <pt x="636" y="-432" on="1"/>
        <pt x="578" y="-432" on="0"/>
      </contour>
    </TTGlyph>
    <TTGlyph name="L" xMin="86" yMin="0" xMax="1151" yMax="1480">
      <contour>
        <pt x="1151" y="0" on="1"/>
        <pt x="86" y="0" on="1"/>
        <pt x="86" y="123" on="1"/>
        <pt x="333" y="123" on="1"/>
        <pt x="333" y="1357" on="1"/>
        <pt x="86" y="1357" on="1"/>
        <pt x="86" y="1480" on="1"/>
        <pt x="765" y="1480" on="1"/>
        <pt x="765" y="1357" on="1"/>
        <pt x="530" y="1357" on="1"/>
        <pt x="530" y="136" on="1"/>
        <pt x="1028" y="136" on="1"/>
        <pt x="1028" y="481" on="1"/>
        <pt x="1151" y="481" on="1"/>
      </contour>
    </TTGlyph>
    <TTGlyph name="Lacute" xMin="86" yMin="0" xMax="1151" yMax="1925">
      <contour>
        <pt x="1151" y="0" on="1"/>
        <pt x="86" y="0" on="1"/>
        <pt x="86" y="123" on="1"/>
        <pt x="333" y="123" on="1"/>
        <pt x="333" y="1357" on="1"/>
        <pt x="86" y="1357" on="1"/>
        <pt x="86" y="1480" on="1"/>
        <pt x="765" y="1480" on="1"/>
        <pt x="765" y="1357" on="1"/>
        <pt x="530" y="1357" on="1"/>
        <pt x="530" y="136" on="1"/>
        <pt x="1028" y="136" on="1"/>
        <pt x="1028" y="481" on="1"/>
        <pt x="1151" y="481" on="1"/>
      </contour>
      <contour>
        <pt x="407" y="1604" on="1"/>
        <pt x="623" y="1925" on="1"/>
        <pt x="851" y="1925" on="1"/>
        <pt x="530" y="1604" on="1"/>
      </contour>
    </TTGlyph>
    <TTGlyph name="Lcaron" xMin="86" yMin="0" xMax="1151" yMax="1480">
      <contour>
        <pt x="1151" y="0" on="1"/>
        <pt x="86" y="0" on="1"/>
        <pt x="86" y="123" on="1"/>
        <pt x="333" y="123" on="1"/>
        <pt x="333" y="1357" on="1"/>
        <pt x="86" y="1357" on="1"/>
        <pt x="86" y="1480" on="1"/>
        <pt x="765" y="1480" on="1"/>
        <pt x="765" y="1357" on="1"/>
        <pt x="530" y="1357" on="1"/>
        <pt x="530" y="136" on="1"/>
        <pt x="1028" y="136" on="1"/>
        <pt x="1028" y="481" on="1"/>
        <pt x="1151" y="481" on="1"/>
      </contour>
      <contour>
        <pt x="937" y="1026" on="1"/>
        <pt x="937" y="1085" on="1"/>
        <pt x="1013" y="1106" on="0"/>
        <pt x="1013" y="1266" on="1"/>
        <pt x="1013" y="1283" on="1"/>
        <pt x="937" y="1283" on="1"/>
        <pt x="937" y="1480" on="1"/>
        <pt x="1134" y="1480" on="1"/>
        <pt x="1134" y="1309" on="1"/>
        <pt x="1133" y="1047" on="0"/>
      </contour>
    </TTGlyph>
    <TTGlyph name="Lcommaaccent" xMin="86" yMin="-432" xMax="1151" yMax="1480">
      <contour>
        <pt x="1151" y="0" on="1"/>
        <pt x="86" y="0" on="1"/>
        <pt x="86" y="123" on="1"/>
        <pt x="333" y="123" on="1"/>
        <pt x="333" y="1357" on="1"/>
        <pt x="86" y="1357" on="1"/>
        <pt x="86" y="1480" on="1"/>
        <pt x="765" y="1480" on="1"/>
        <pt x="765" y="1357" on="1"/>
        <pt x="530" y="1357" on="1"/>
        <pt x="530" y="136" on="1"/>
        <pt x="1028" y="136" on="1"/>
        <pt x="1028" y="481" on="1"/>
        <pt x="1151" y="481" on="1"/>
      </contour>
      <contour>
        <pt x="518" y="-421" on="1"/>
        <pt x="518" y="-336" on="1"/>
        <pt x="575" y="-345" on="0"/>
        <pt x="615" y="-345" on="1"/>
        <pt x="724" y="-345" on="0"/>
        <pt x="724" y="-278" on="1"/>
        <pt x="724" y="-205" on="0"/>
        <pt x="567" y="-188" on="1"/>
        <pt x="567" y="-111" on="1"/>
        <pt x="701" y="-114" on="0"/>
        <pt x="767" y="-143" on="1"/>
        <pt x="860" y="-185" on="0"/>
        <pt x="860" y="-280" on="1"/>
        <pt x="860" y="-432" on="0"/>
        <pt x="642" y="-432" on="1"/>
        <pt x="584" y="-432" on="0"/>
      </contour>
    </TTGlyph>
    <TTGlyph name="Ldot" xMin="86" yMin="0" xMax="1151" yMax="1480">
      <contour>
        <pt x="1151" y="0" on="1"/>
        <pt x="86" y="0" on="1"/>
        <pt x="86" y="123" on="1"/>
        <pt x="333" y="123" on="1"/>
        <pt x="333" y="1357" on="1"/>
        <pt x="86" y="1357" on="1"/>
        <pt x="86" y="1480" on="1"/>
        <pt x="765" y="1480" on="1"/>
        <pt x="765" y="1357" on="1"/>
        <pt x="530" y="1357" on="1"/>
        <pt x="530" y="136" on="1"/>
        <pt x="1028" y="136" on="1"/>
        <pt x="1028" y="481" on="1"/>
        <pt x="1151" y="481" on="1"/>
      </contour>
      <contour>
        <pt x="954" y="740" on="1"/>
        <pt x="954" y="937" on="1"/>
        <pt x="1151" y="937" on="1"/>
        <pt x="1151" y="740" on="1"/>
      </contour>
    </TTGlyph>
    <TTGlyph name="Lslash" xMin="86" yMin="0" xMax="1151" yMax="1480">
      <contour>
        <pt x="86" y="0" on="1"/>
        <pt x="86" y="123" on="1"/>
        <pt x="333" y="123" on="1"/>
        <pt x="333" y="652" on="1"/>
        <pt x="86" y="528" on="1"/>
        <pt x="86" y="666" on="1"/>
        <pt x="333" y="790" on="1"/>
        <pt x="333" y="1357" on="1"/>
        <pt x="86" y="1357" on="1"/>
        <pt x="86" y="1480" on="1"/>
        <pt x="765" y="1480" on="1"/>
        <pt x="765" y="1357" on="1"/>
        <pt x="530" y="1357" on="1"/>
        <pt x="530" y="888" on="1"/>
        <pt x="826" y="1036" on="1"/>
        <pt x="826" y="899" on="1"/>
        <pt x="530" y="750" on="1"/>
        <pt x="530" y="136" on="1"/>
        <pt x="1028" y="136" on="1"/>
        <pt x="1028" y="481" on="1"/>
        <pt x="1151" y="481" on="1"/>
        <pt x="1151" y="0" on="1"/>
      </contour>
    </TTGlyph>
    <TTGlyph name="M" xMin="25" yMin="0" xMax="1204" yMax="1480">
      <contour>
        <pt x="25" y="0" on="1"/>
        <pt x="25" y="123" on="1"/>
        <pt x="111" y="123" on="1"/>
        <pt x="111" y="1357" on="1"/>
        <pt x="25" y="1357" on="1"/>
        <pt x="25" y="1480" on="1"/>
        <pt x="310" y="1480" on="1"/>
        <pt x="616" y="462" on="1"/>
        <pt x="618" y="462" on="1"/>
        <pt x="935" y="1480" on="1"/>
        <pt x="1204" y="1480" on="1"/>
        <pt x="1204" y="1357" on="1"/>
        <pt x="1118" y="1357" on="1"/>
        <pt x="1118" y="123" on="1"/>
        <pt x="1204" y="123" on="1"/>
        <pt x="1204" y="0" on="1"/>
        <pt x="884" y="0" on="1"/>
        <pt x="884" y="123" on="1"/>
        <pt x="956" y="123" on="1"/>
        <pt x="956" y="1128" on="1"/>
        <pt x="954" y="1128" on="1"/>
        <pt x="663" y="194" on="1"/>
        <pt x="528" y="194" on="1"/>
        <pt x="237" y="1166" on="1"/>
        <pt x="235" y="1166" on="1"/>
        <pt x="235" y="123" on="1"/>
        <pt x="321" y="123" on="1"/>
        <pt x="321" y="0" on="1"/>
      </contour>
    </TTGlyph>
    <TTGlyph name="N" xMin="74" yMin="0" xMax="1155" yMax="1480">
      <contour>
        <pt x="74" y="0" on="1"/>
        <pt x="74" y="123" on="1"/>
        <pt x="185" y="123" on="1"/>
        <pt x="185" y="1357" on="1"/>
        <pt x="74" y="1357" on="1"/>
        <pt x="74" y="1480" on="1"/>
        <pt x="308" y="1480" on="1"/>
        <pt x="918" y="405" on="1"/>
        <pt x="920" y="405" on="1"/>
        <pt x="920" y="1357" on="1"/>
        <pt x="810" y="1357" on="1"/>
        <pt x="810" y="1480" on="1"/>
        <pt x="1155" y="1480" on="1"/>
        <pt x="1155" y="1357" on="1"/>
        <pt x="1044" y="1357" on="1"/>
        <pt x="1044" y="0" on="1"/>
        <pt x="920" y="0" on="1"/>
        <pt x="311" y="1076" on="1"/>
        <pt x="308" y="1076" on="1"/>
        <pt x="308" y="123" on="1"/>
        <pt x="419" y="123" on="1"/>
        <pt x="419" y="0" on="1"/>
      </contour>
    </TTGlyph>
    <TTGlyph name="Nacute" xMin="74" yMin="0" xMax="1155" yMax="1925">
      <contour>
        <pt x="74" y="0" on="1"/>
        <pt x="74" y="123" on="1"/>
        <pt x="185" y="123" on="1"/>
        <pt x="185" y="1357" on="1"/>
        <pt x="74" y="1357" on="1"/>
        <pt x="74" y="1480" on="1"/>
        <pt x="308" y="1480" on="1"/>
        <pt x="918" y="405" on="1"/>
        <pt x="920" y="405" on="1"/>
        <pt x="920" y="1357" on="1"/>
        <pt x="810" y="1357" on="1"/>
        <pt x="810" y="1480" on="1"/>
        <pt x="1155" y="1480" on="1"/>
        <pt x="1155" y="1357" on="1"/>
        <pt x="1044" y="1357" on="1"/>
        <pt x="1044" y="0" on="1"/>
        <pt x="920" y="0" on="1"/>
        <pt x="311" y="1076" on="1"/>
        <pt x="308" y="1076" on="1"/>
        <pt x="308" y="123" on="1"/>
        <pt x="419" y="123" on="1"/>
        <pt x="419" y="0" on="1"/>
      </contour>
      <contour>
        <pt x="493" y="1604" on="1"/>
        <pt x="709" y="1925" on="1"/>
        <pt x="937" y="1925" on="1"/>
        <pt x="616" y="1604" on="1"/>
      </contour>
    </TTGlyph>
    <TTGlyph name="Ncaron" xMin="74" yMin="0" xMax="1155" yMax="1925">
      <contour>
        <pt x="74" y="0" on="1"/>
        <pt x="74" y="123" on="1"/>
        <pt x="185" y="123" on="1"/>
        <pt x="185" y="1357" on="1"/>
        <pt x="74" y="1357" on="1"/>
        <pt x="74" y="1480" on="1"/>
        <pt x="308" y="1480" on="1"/>
        <pt x="918" y="405" on="1"/>
        <pt x="920" y="405" on="1"/>
        <pt x="920" y="1357" on="1"/>
        <pt x="810" y="1357" on="1"/>
        <pt x="810" y="1480" on="1"/>
        <pt x="1155" y="1480" on="1"/>
        <pt x="1155" y="1357" on="1"/>
        <pt x="1044" y="1357" on="1"/>
        <pt x="1044" y="0" on="1"/>
        <pt x="920" y="0" on="1"/>
        <pt x="311" y="1076" on="1"/>
        <pt x="308" y="1076" on="1"/>
        <pt x="308" y="123" on="1"/>
        <pt x="419" y="123" on="1"/>
        <pt x="419" y="0" on="1"/>
      </contour>
      <contour>
        <pt x="981" y="1925" on="1"/>
        <pt x="724" y="1604" on="1"/>
        <pt x="506" y="1604" on="1"/>
        <pt x="249" y="1925" on="1"/>
        <pt x="373" y="1925" on="1"/>
        <pt x="614" y="1723" on="1"/>
        <pt x="616" y="1723" on="1"/>
        <pt x="858" y="1925" on="1"/>
      </contour>
    </TTGlyph>
    <TTGlyph name="Ncommaaccent" xMin="74" yMin="-432" xMax="1155" yMax="1480">
      <contour>
        <pt x="74" y="0" on="1"/>
        <pt x="74" y="123" on="1"/>
        <pt x="185" y="123" on="1"/>
        <pt x="185" y="1357" on="1"/>
        <pt x="74" y="1357" on="1"/>
        <pt x="74" y="1480" on="1"/>
        <pt x="308" y="1480" on="1"/>
        <pt x="918" y="405" on="1"/>
        <pt x="920" y="405" on="1"/>
        <pt x="920" y="1357" on="1"/>
        <pt x="810" y="1357" on="1"/>
        <pt x="810" y="1480" on="1"/>
        <pt x="1155" y="1480" on="1"/>
        <pt x="1155" y="1357" on="1"/>
        <pt x="1044" y="1357" on="1"/>
        <pt x="1044" y="0" on="1"/>
        <pt x="920" y="0" on="1"/>
        <pt x="311" y="1076" on="1"/>
        <pt x="308" y="1076" on="1"/>
        <pt x="308" y="123" on="1"/>
        <pt x="419" y="123" on="1"/>
        <pt x="419" y="0" on="1"/>
      </contour>
      <contour>
        <pt x="481" y="-421" on="1"/>
        <pt x="481" y="-336" on="1"/>
        <pt x="538" y="-345" on="0"/>
        <pt x="578" y="-345" on="1"/>
        <pt x="687" y="-345" on="0"/>
        <pt x="687" y="-278" on="1"/>
        <pt x="687" y="-205" on="0"/>
        <pt x="530" y="-188" on="1"/>
        <pt x="530" y="-111" on="1"/>
        <pt x="664" y="-114" on="0"/>
        <pt x="730" y="-143" on="1"/>
        <pt x="823" y="-185" on="0"/>
        <pt x="823" y="-280" on="1"/>
        <pt x="823" y="-432" on="0"/>
        <pt x="605" y="-432" on="1"/>
        <pt x="547" y="-432" on="0"/>
      </contour>
    </TTGlyph>
    <TTGlyph name="Ntilde" xMin="74" yMin="0" xMax="1155" yMax="1839">
      <contour>
        <pt x="74" y="0" on="1"/>
        <pt x="74" y="123" on="1"/>
        <pt x="185" y="123" on="1"/>
        <pt x="185" y="1357" on="1"/>
        <pt x="74" y="1357" on="1"/>
        <pt x="74" y="1480" on="1"/>
        <pt x="308" y="1480" on="1"/>
        <pt x="918" y="405" on="1"/>
        <pt x="920" y="405" on="1"/>
        <pt x="920" y="1357" on="1"/>
        <pt x="810" y="1357" on="1"/>
        <pt x="810" y="1480" on="1"/>
        <pt x="1155" y="1480" on="1"/>
        <pt x="1155" y="1357" on="1"/>
        <pt x="1044" y="1357" on="1"/>
        <pt x="1044" y="0" on="1"/>
        <pt x="920" y="0" on="1"/>
        <pt x="311" y="1076" on="1"/>
        <pt x="308" y="1076" on="1"/>
        <pt x="308" y="123" on="1"/>
        <pt x="419" y="123" on="1"/>
        <pt x="419" y="0" on="1"/>
      </contour>
      <contour>
        <pt x="271" y="1604" on="1"/>
        <pt x="277" y="1699" on="0"/>
        <pt x="302" y="1749" on="1"/>
        <pt x="347" y="1839" on="0"/>
        <pt x="456" y="1839" on="1"/>
        <pt x="528" y="1839" on="0"/>
        <pt x="591" y="1800" on="1"/>
        <pt x="651" y="1763" on="1"/>
        <pt x="713" y="1725" on="0"/>
        <pt x="747" y="1725" on="1"/>
        <pt x="816" y="1725" on="0"/>
        <pt x="826" y="1839" on="1"/>
        <pt x="937" y="1839" on="1"/>
        <pt x="930" y="1745" on="0"/>
        <pt x="905" y="1695" on="1"/>
        <pt x="859" y="1604" on="0"/>
        <pt x="752" y="1604" on="1"/>
        <pt x="679" y="1604" on="0"/>
        <pt x="616" y="1643" on="1"/>
        <pt x="556" y="1680" on="1"/>
        <pt x="496" y="1717" on="0"/>
        <pt x="460" y="1717" on="1"/>
        <pt x="392" y="1717" on="0"/>
        <pt x="381" y="1604" on="1"/>
      </contour>
    </TTGlyph>
    <TTGlyph name="O" xMin="62" yMin="-37" xMax="1168" yMax="1517">
      <contour>
        <pt x="615" y="1517" on="1"/>
        <pt x="858" y="1517" on="0"/>
        <pt x="1013" y="1301" on="1"/>
        <pt x="1168" y="1085" on="0"/>
        <pt x="1168" y="742" on="1"/>
        <pt x="1168" y="394" on="0"/>
        <pt x="1013" y="179" on="1"/>
        <pt x="858" y="-37" on="0"/>
        <pt x="608" y="-37" on="1"/>
        <pt x="394" y="-37" on="0"/>
        <pt x="249" y="138" on="1"/>
        <pt x="62" y="363" on="0"/>
        <pt x="62" y="741" on="1"/>
        <pt x="62" y="1084" on="0"/>
        <pt x="216" y="1300" on="1"/>
        <pt x="371" y="1517" on="0"/>
      </contour>
      <contour>
        <pt x="615" y="1394" on="1"/>
        <pt x="454" y="1394" on="0"/>
        <pt x="365" y="1222" on="1"/>
        <pt x="275" y="1049" on="0"/>
        <pt x="275" y="740" on="1"/>
        <pt x="275" y="434" on="0"/>
        <pt x="364" y="260" on="1"/>
        <pt x="452" y="86" on="0"/>
        <pt x="614" y="86" on="1"/>
        <pt x="776" y="86" on="0"/>
        <pt x="860" y="236" on="1"/>
        <pt x="955" y="405" on="0"/>
        <pt x="955" y="738" on="1"/>
        <pt x="955" y="1051" on="0"/>
        <pt x="865" y="1222" on="1"/>
        <pt x="774" y="1394" on="0"/>
      </contour>
    </TTGlyph>
    <TTGlyph name="OE" xMin="37" yMin="-37" xMax="1167" yMax="1518">
      <contour>
        <pt x="609" y="0" on="1"/>
        <pt x="609" y="74" on="1"/>
        <pt x="549" y="-37" on="0"/>
        <pt x="436" y="-37" on="1"/>
        <pt x="252" y="-37" on="0"/>
        <pt x="145" y="170" on="1"/>
        <pt x="37" y="377" on="0"/>
        <pt x="37" y="740" on="1"/>
        <pt x="37" y="1101" on="0"/>
        <pt x="144" y="1310" on="1"/>
        <pt x="251" y="1518" on="0"/>
        <pt x="435" y="1518" on="1"/>
        <pt x="552" y="1518" on="0"/>
        <pt x="609" y="1406" on="1"/>
        <pt x="609" y="1480" on="1"/>
        <pt x="1142" y="1480" on="1"/>
        <pt x="1142" y="1166" on="1"/>
        <pt x="1019" y="1166" on="1"/>
        <pt x="1019" y="1357" on="1"/>
        <pt x="800" y="1357" on="1"/>
        <pt x="800" y="827" on="1"/>
        <pt x="945" y="827" on="1"/>
        <pt x="945" y="950" on="1"/>
        <pt x="1056" y="950" on="1"/>
        <pt x="1056" y="580" on="1"/>
        <pt x="945" y="580" on="1"/>
        <pt x="945" y="703" on="1"/>
        <pt x="800" y="703" on="1"/>
        <pt x="800" y="136" on="1"/>
        <pt x="1044" y="136" on="1"/>
        <pt x="1044" y="370" on="1"/>
        <pt x="1167" y="370" on="1"/>
        <pt x="1167" y="0" on="1"/>
      </contour>
      <contour>
        <pt x="609" y="364" on="1"/>
        <pt x="609" y="1117" on="1"/>
        <pt x="609" y="1395" on="0"/>
        <pt x="460" y="1395" on="1"/>
        <pt x="237" y="1395" on="0"/>
        <pt x="237" y="746" on="1"/>
        <pt x="237" y="396" on="0"/>
        <pt x="289" y="240" on="1"/>
        <pt x="340" y="86" on="0"/>
        <pt x="457" y="86" on="1"/>
        <pt x="609" y="86" on="0"/>
      </contour>
    </TTGlyph>
    <TTGlyph name="Oacute" xMin="62" yMin="-37" xMax="1168" yMax="1925">
      <contour>
        <pt x="615" y="1517" on="1"/>
        <pt x="858" y="1517" on="0"/>
        <pt x="1013" y="1301" on="1"/>
        <pt x="1168" y="1085" on="0"/>
        <pt x="1168" y="742" on="1"/>
        <pt x="1168" y="394" on="0"/>
        <pt x="1013" y="179" on="1"/>
        <pt x="858" y="-37" on="0"/>
        <pt x="608" y="-37" on="1"/>
        <pt x="394" y="-37" on="0"/>
        <pt x="249" y="138" on="1"/>
        <pt x="62" y="363" on="0"/>
        <pt x="62" y="741" on="1"/>
        <pt x="62" y="1084" on="0"/>
        <pt x="216" y="1300" on="1"/>
        <pt x="371" y="1517" on="0"/>
      </contour>
      <contour>
        <pt x="615" y="1394" on="1"/>
        <pt x="454" y="1394" on="0"/>
        <pt x="365" y="1222" on="1"/>
        <pt x="275" y="1049" on="0"/>
        <pt x="275" y="740" on="1"/>
        <pt x="275" y="434" on="0"/>
        <pt x="364" y="260" on="1"/>
        <pt x="452" y="86" on="0"/>
        <pt x="614" y="86" on="1"/>
        <pt x="776" y="86" on="0"/>
        <pt x="860" y="236" on="1"/>
        <pt x="955" y="405" on="0"/>
        <pt x="955" y="738" on="1"/>
        <pt x="955" y="1051" on="0"/>
        <pt x="865" y="1222" on="1"/>
        <pt x="774" y="1394" on="0"/>
      </contour>
      <contour>
        <pt x="491" y="1604" on="1"/>
        <pt x="707" y="1925" on="1"/>
        <pt x="935" y="1925" on="1"/>
        <pt x="614" y="1604" on="1"/>
      </contour>
    </TTGlyph>
    <TTGlyph name="Obreve" xMin="62" yMin="-37" xMax="1168" yMax="1925">
      <contour>
        <pt x="615" y="1517" on="1"/>
        <pt x="858" y="1517" on="0"/>
        <pt x="1013" y="1301" on="1"/>
        <pt x="1168" y="1085" on="0"/>
        <pt x="1168" y="742" on="1"/>
        <pt x="1168" y="394" on="0"/>
        <pt x="1013" y="179" on="1"/>
        <pt x="858" y="-37" on="0"/>
        <pt x="608" y="-37" on="1"/>
        <pt x="394" y="-37" on="0"/>
        <pt x="249" y="138" on="1"/>
        <pt x="62" y="363" on="0"/>
        <pt x="62" y="741" on="1"/>
        <pt x="62" y="1084" on="0"/>
        <pt x="216" y="1300" on="1"/>
        <pt x="371" y="1517" on="0"/>
      </contour>
      <contour>
        <pt x="615" y="1394" on="1"/>
        <pt x="454" y="1394" on="0"/>
        <pt x="365" y="1222" on="1"/>
        <pt x="275" y="1049" on="0"/>
        <pt x="275" y="740" on="1"/>
        <pt x="275" y="434" on="0"/>
        <pt x="364" y="260" on="1"/>
        <pt x="452" y="86" on="0"/>
        <pt x="614" y="86" on="1"/>
        <pt x="776" y="86" on="0"/>
        <pt x="860" y="236" on="1"/>
        <pt x="955" y="405" on="0"/>
        <pt x="955" y="738" on="1"/>
        <pt x="955" y="1051" on="0"/>
        <pt x="865" y="1222" on="1"/>
        <pt x="774" y="1394" on="0"/>
      </contour>
      <contour>
        <pt x="269" y="1925" on="1"/>
        <pt x="392" y="1925" on="1"/>
        <pt x="440" y="1777" on="0"/>
        <pt x="614" y="1777" on="1"/>
        <pt x="789" y="1777" on="0"/>
        <pt x="837" y="1925" on="1"/>
        <pt x="960" y="1925" on="1"/>
        <pt x="937" y="1836" on="0"/>
        <pt x="911" y="1790" on="1"/>
        <pt x="820" y="1635" on="0"/>
        <pt x="618" y="1635" on="1"/>
        <pt x="466" y="1635" on="0"/>
        <pt x="377" y="1716" on="1"/>
        <pt x="322" y="1765" on="0"/>
        <pt x="294" y="1837" on="1"/>
        <pt x="283" y="1866" on="0"/>
      </contour>
    </TTGlyph>
    <TTGlyph name="Ocircumflex" xMin="62" yMin="-37" xMax="1168" yMax="1925">
      <contour>
        <pt x="615" y="1517" on="1"/>
        <pt x="858" y="1517" on="0"/>
        <pt x="1013" y="1301" on="1"/>
        <pt x="1168" y="1085" on="0"/>
        <pt x="1168" y="742" on="1"/>
        <pt x="1168" y="394" on="0"/>
        <pt x="1013" y="179" on="1"/>
        <pt x="858" y="-37" on="0"/>
        <pt x="608" y="-37" on="1"/>
        <pt x="394" y="-37" on="0"/>
        <pt x="249" y="138" on="1"/>
        <pt x="62" y="363" on="0"/>
        <pt x="62" y="741" on="1"/>
        <pt x="62" y="1084" on="0"/>
        <pt x="216" y="1300" on="1"/>
        <pt x="371" y="1517" on="0"/>
      </contour>
      <contour>
        <pt x="615" y="1394" on="1"/>
        <pt x="454" y="1394" on="0"/>
        <pt x="365" y="1222" on="1"/>
        <pt x="275" y="1049" on="0"/>
        <pt x="275" y="740" on="1"/>
        <pt x="275" y="434" on="0"/>
        <pt x="364" y="260" on="1"/>
        <pt x="452" y="86" on="0"/>
        <pt x="614" y="86" on="1"/>
        <pt x="776" y="86" on="0"/>
        <pt x="860" y="236" on="1"/>
        <pt x="955" y="405" on="0"/>
        <pt x="955" y="738" on="1"/>
        <pt x="955" y="1051" on="0"/>
        <pt x="865" y="1222" on="1"/>
        <pt x="774" y="1394" on="0"/>
      </contour>
      <contour>
        <pt x="249" y="1604" on="1"/>
        <pt x="505" y="1925" on="1"/>
        <pt x="724" y="1925" on="1"/>
        <pt x="980" y="1604" on="1"/>
        <pt x="857" y="1604" on="1"/>
        <pt x="616" y="1806" on="1"/>
        <pt x="613" y="1806" on="1"/>
        <pt x="372" y="1604" on="1"/>
      </contour>
    </TTGlyph>
    <TTGlyph name="Odieresis" xMin="62" yMin="-37" xMax="1168" yMax="1801">
      <contour>
        <pt x="615" y="1517" on="1"/>
        <pt x="858" y="1517" on="0"/>
        <pt x="1013" y="1301" on="1"/>
        <pt x="1168" y="1085" on="0"/>
        <pt x="1168" y="742" on="1"/>
        <pt x="1168" y="394" on="0"/>
        <pt x="1013" y="179" on="1"/>
        <pt x="858" y="-37" on="0"/>
        <pt x="608" y="-37" on="1"/>
        <pt x="394" y="-37" on="0"/>
        <pt x="249" y="138" on="1"/>
        <pt x="62" y="363" on="0"/>
        <pt x="62" y="741" on="1"/>
        <pt x="62" y="1084" on="0"/>
        <pt x="216" y="1300" on="1"/>
        <pt x="371" y="1517" on="0"/>
      </contour>
      <contour>
        <pt x="615" y="1394" on="1"/>
        <pt x="454" y="1394" on="0"/>
        <pt x="365" y="1222" on="1"/>
        <pt x="275" y="1049" on="0"/>
        <pt x="275" y="740" on="1"/>
        <pt x="275" y="434" on="0"/>
        <pt x="364" y="260" on="1"/>
        <pt x="452" y="86" on="0"/>
        <pt x="614" y="86" on="1"/>
        <pt x="776" y="86" on="0"/>
        <pt x="860" y="236" on="1"/>
        <pt x="955" y="405" on="0"/>
        <pt x="955" y="738" on="1"/>
        <pt x="955" y="1051" on="0"/>
        <pt x="865" y="1222" on="1"/>
        <pt x="774" y="1394" on="0"/>
      </contour>
      <contour>
        <pt x="282" y="1604" on="1"/>
        <pt x="282" y="1801" on="1"/>
        <pt x="479" y="1801" on="1"/>
        <pt x="479" y="1604" on="1"/>
      </contour>
      <contour>
        <pt x="751" y="1604" on="1"/>
        <pt x="751" y="1801" on="1"/>
        <pt x="948" y="1801" on="1"/>
        <pt x="948" y="1604" on="1"/>
      </contour>
    </TTGlyph>
    <TTGlyph name="Ograve" xMin="62" yMin="-37" xMax="1168" yMax="1925">
      <contour>
        <pt x="615" y="1517" on="1"/>
        <pt x="858" y="1517" on="0"/>
        <pt x="1013" y="1301" on="1"/>
        <pt x="1168" y="1085" on="0"/>
        <pt x="1168" y="742" on="1"/>
        <pt x="1168" y="394" on="0"/>
        <pt x="1013" y="179" on="1"/>
        <pt x="858" y="-37" on="0"/>
        <pt x="608" y="-37" on="1"/>
        <pt x="394" y="-37" on="0"/>
        <pt x="249" y="138" on="1"/>
        <pt x="62" y="363" on="0"/>
        <pt x="62" y="741" on="1"/>
        <pt x="62" y="1084" on="0"/>
        <pt x="216" y="1300" on="1"/>
        <pt x="371" y="1517" on="0"/>
      </contour>
      <contour>
        <pt x="615" y="1394" on="1"/>
        <pt x="454" y="1394" on="0"/>
        <pt x="365" y="1222" on="1"/>
        <pt x="275" y="1049" on="0"/>
        <pt x="275" y="740" on="1"/>
        <pt x="275" y="434" on="0"/>
        <pt x="364" y="260" on="1"/>
        <pt x="452" y="86" on="0"/>
        <pt x="614" y="86" on="1"/>
        <pt x="776" y="86" on="0"/>
        <pt x="860" y="236" on="1"/>
        <pt x="955" y="405" on="0"/>
        <pt x="955" y="738" on="1"/>
        <pt x="955" y="1051" on="0"/>
        <pt x="865" y="1222" on="1"/>
        <pt x="774" y="1394" on="0"/>
      </contour>
      <contour>
        <pt x="738" y="1604" on="1"/>
        <pt x="615" y="1604" on="1"/>
        <pt x="294" y="1925" on="1"/>
        <pt x="522" y="1925" on="1"/>
      </contour>
    </TTGlyph>
    <TTGlyph name="Ohungarumlaut" xMin="62" yMin="-37" xMax="1168" yMax="1925">
      <contour>
        <pt x="615" y="1517" on="1"/>
        <pt x="858" y="1517" on="0"/>
        <pt x="1013" y="1301" on="1"/>
        <pt x="1168" y="1085" on="0"/>
        <pt x="1168" y="742" on="1"/>
        <pt x="1168" y="394" on="0"/>
        <pt x="1013" y="179" on="1"/>
        <pt x="858" y="-37" on="0"/>
        <pt x="608" y="-37" on="1"/>
        <pt x="394" y="-37" on="0"/>
        <pt x="249" y="138" on="1"/>
        <pt x="62" y="363" on="0"/>
        <pt x="62" y="741" on="1"/>
        <pt x="62" y="1084" on="0"/>
        <pt x="216" y="1300" on="1"/>
        <pt x="371" y="1517" on="0"/>
      </contour>
      <contour>
        <pt x="615" y="1394" on="1"/>
        <pt x="454" y="1394" on="0"/>
        <pt x="365" y="1222" on="1"/>
        <pt x="275" y="1049" on="0"/>
        <pt x="275" y="740" on="1"/>
        <pt x="275" y="434" on="0"/>
        <pt x="364" y="260" on="1"/>
        <pt x="452" y="86" on="0"/>
        <pt x="614" y="86" on="1"/>
        <pt x="776" y="86" on="0"/>
        <pt x="860" y="236" on="1"/>
        <pt x="955" y="405" on="0"/>
        <pt x="955" y="738" on="1"/>
        <pt x="955" y="1051" on="0"/>
        <pt x="865" y="1222" on="1"/>
        <pt x="774" y="1394" on="0"/>
      </contour>
      <contour>
        <pt x="313" y="1604" on="1"/>
        <pt x="553" y="1925" on="1"/>
        <pt x="745" y="1925" on="1"/>
        <pt x="424" y="1604" on="1"/>
      </contour>
      <contour>
        <pt x="664" y="1604" on="1"/>
        <pt x="905" y="1925" on="1"/>
        <pt x="1096" y="1925" on="1"/>
        <pt x="775" y="1604" on="1"/>
      </contour>
    </TTGlyph>
    <TTGlyph name="Omacron" xMin="62" yMin="-37" xMax="1168" yMax="1728">
      <contour>
        <pt x="615" y="1517" on="1"/>
        <pt x="858" y="1517" on="0"/>
        <pt x="1013" y="1301" on="1"/>
        <pt x="1168" y="1085" on="0"/>
        <pt x="1168" y="742" on="1"/>
        <pt x="1168" y="394" on="0"/>
        <pt x="1013" y="179" on="1"/>
        <pt x="858" y="-37" on="0"/>
        <pt x="608" y="-37" on="1"/>
        <pt x="394" y="-37" on="0"/>
        <pt x="249" y="138" on="1"/>
        <pt x="62" y="363" on="0"/>
        <pt x="62" y="741" on="1"/>
        <pt x="62" y="1084" on="0"/>
        <pt x="216" y="1300" on="1"/>
        <pt x="371" y="1517" on="0"/>
      </contour>
      <contour>
        <pt x="615" y="1394" on="1"/>
        <pt x="454" y="1394" on="0"/>
        <pt x="365" y="1222" on="1"/>
        <pt x="275" y="1049" on="0"/>
        <pt x="275" y="740" on="1"/>
        <pt x="275" y="434" on="0"/>
        <pt x="364" y="260" on="1"/>
        <pt x="452" y="86" on="0"/>
        <pt x="614" y="86" on="1"/>
        <pt x="776" y="86" on="0"/>
        <pt x="860" y="236" on="1"/>
        <pt x="955" y="405" on="0"/>
        <pt x="955" y="738" on="1"/>
        <pt x="955" y="1051" on="0"/>
        <pt x="865" y="1222" on="1"/>
        <pt x="774" y="1394" on="0"/>
      </contour>
      <contour>
        <pt x="269" y="1604" on="1"/>
        <pt x="269" y="1728" on="1"/>
        <pt x="960" y="1728" on="1"/>
        <pt x="960" y="1604" on="1"/>
      </contour>
    </TTGlyph>
    <TTGlyph name="Oslash" xMin="62" yMin="-37" xMax="1168" yMax="1517">
      <contour>
        <pt x="321" y="371" on="1"/>
        <pt x="865" y="1225" on="1"/>
        <pt x="774" y="1394" on="0"/>
        <pt x="616" y="1394" on="1"/>
        <pt x="453" y="1394" on="0"/>
        <pt x="364" y="1222" on="1"/>
        <pt x="275" y="1049" on="0"/>
        <pt x="275" y="742" on="1"/>
        <pt x="275" y="545" on="0"/>
      </contour>
      <contour>
        <pt x="364" y="254" on="1"/>
        <pt x="457" y="86" on="0"/>
        <pt x="613" y="86" on="1"/>
        <pt x="776" y="86" on="0"/>
        <pt x="865" y="258" on="1"/>
        <pt x="955" y="431" on="0"/>
        <pt x="955" y="738" on="1"/>
        <pt x="955" y="937" on="0"/>
        <pt x="908" y="1110" on="1"/>
      </contour>
      <contour>
        <pt x="62" y="-37" on="1"/>
        <pt x="206" y="190" on="1"/>
        <pt x="62" y="432" on="0"/>
        <pt x="62" y="739" on="1"/>
        <pt x="62" y="1083" on="0"/>
        <pt x="216" y="1300" on="1"/>
        <pt x="370" y="1517" on="0"/>
        <pt x="613" y="1517" on="1"/>
        <pt x="799" y="1517" on="0"/>
        <pt x="958" y="1371" on="1"/>
        <pt x="1051" y="1517" on="1"/>
        <pt x="1168" y="1517" on="1"/>
        <pt x="1023" y="1290" on="1"/>
        <pt x="1168" y="1048" on="0"/>
        <pt x="1168" y="740" on="1"/>
        <pt x="1168" y="398" on="0"/>
        <pt x="1014" y="181" on="1"/>
        <pt x="860" y="-37" on="0"/>
        <pt x="616" y="-37" on="1"/>
        <pt x="431" y="-37" on="0"/>
        <pt x="272" y="110" on="1"/>
        <pt x="179" y="-37" on="1"/>
      </contour>
    </TTGlyph>
    <TTGlyph name="Otilde" xMin="62" yMin="-37" xMax="1168" yMax="1839">
      <contour>
        <pt x="615" y="1517" on="1"/>
        <pt x="858" y="1517" on="0"/>
        <pt x="1013" y="1301" on="1"/>
        <pt x="1168" y="1085" on="0"/>
        <pt x="1168" y="742" on="1"/>
        <pt x="1168" y="394" on="0"/>
        <pt x="1013" y="179" on="1"/>
        <pt x="858" y="-37" on="0"/>
        <pt x="608" y="-37" on="1"/>
        <pt x="394" y="-37" on="0"/>
        <pt x="249" y="138" on="1"/>
        <pt x="62" y="363" on="0"/>
        <pt x="62" y="741" on="1"/>
        <pt x="62" y="1084" on="0"/>
        <pt x="216" y="1300" on="1"/>
        <pt x="371" y="1517" on="0"/>
      </contour>
      <contour>
        <pt x="615" y="1394" on="1"/>
        <pt x="454" y="1394" on="0"/>
        <pt x="365" y="1222" on="1"/>
        <pt x="275" y="1049" on="0"/>
        <pt x="275" y="740" on="1"/>
        <pt x="275" y="434" on="0"/>
        <pt x="364" y="260" on="1"/>
        <pt x="452" y="86" on="0"/>
        <pt x="614" y="86" on="1"/>
        <pt x="776" y="86" on="0"/>
        <pt x="860" y="236" on="1"/>
        <pt x="955" y="405" on="0"/>
        <pt x="955" y="738" on="1"/>
        <pt x="955" y="1051" on="0"/>
        <pt x="865" y="1222" on="1"/>
        <pt x="774" y="1394" on="0"/>
      </contour>
      <contour>
        <pt x="282" y="1604" on="1"/>
        <pt x="288" y="1699" on="0"/>
        <pt x="313" y="1749" on="1"/>
        <pt x="358" y="1839" on="0"/>
        <pt x="467" y="1839" on="1"/>
        <pt x="539" y="1839" on="0"/>
        <pt x="602" y="1800" on="1"/>
        <pt x="662" y="1763" on="1"/>
        <pt x="724" y="1725" on="0"/>
        <pt x="758" y="1725" on="1"/>
        <pt x="826" y="1725" on="0"/>
        <pt x="837" y="1839" on="1"/>
        <pt x="948" y="1839" on="1"/>
        <pt x="941" y="1745" on="0"/>
        <pt x="916" y="1695" on="1"/>
        <pt x="870" y="1604" on="0"/>
        <pt x="763" y="1604" on="1"/>
        <pt x="690" y="1604" on="0"/>
        <pt x="627" y="1643" on="1"/>
        <pt x="567" y="1680" on="1"/>
        <pt x="507" y="1717" on="0"/>
        <pt x="471" y="1717" on="1"/>
        <pt x="403" y="1717" on="0"/>
        <pt x="392" y="1604" on="1"/>
      </contour>
    </TTGlyph>
    <TTGlyph name="P" xMin="86" yMin="0" xMax="1124" yMax="1480">
      <contour>
        <pt x="481" y="598" on="1"/>
        <pt x="481" y="123" on="1"/>
        <pt x="765" y="123" on="1"/>
        <pt x="765" y="0" on="1"/>
        <pt x="86" y="0" on="1"/>
        <pt x="86" y="123" on="1"/>
        <pt x="283" y="123" on="1"/>
        <pt x="283" y="1357" on="1"/>
        <pt x="86" y="1357" on="1"/>
        <pt x="86" y="1480" on="1"/>
        <pt x="747" y="1480" on="1"/>
        <pt x="1124" y="1480" on="0"/>
        <pt x="1124" y="1119" on="1"/>
        <pt x="1124" y="878" on="0"/>
        <pt x="984" y="738" on="1"/>
        <pt x="844" y="598" on="0"/>
        <pt x="599" y="598" on="1"/>
      </contour>
      <contour>
        <pt x="481" y="722" on="1"/>
        <pt x="592" y="722" on="1"/>
        <pt x="914" y="722" on="0"/>
        <pt x="914" y="1089" on="1"/>
        <pt x="914" y="1357" on="0"/>
        <pt x="682" y="1357" on="1"/>
        <pt x="481" y="1357" on="1"/>
      </contour>
    </TTGlyph>
    <TTGlyph name="Q" xMin="62" yMin="-321" xMax="1223" yMax="1517">
      <contour>
        <pt x="615" y="-37" on="1"/>
        <pt x="459" y="-12" on="0"/>
        <pt x="376" y="29" on="1"/>
        <pt x="276" y="78" on="0"/>
        <pt x="198" y="205" on="1"/>
        <pt x="62" y="428" on="0"/>
        <pt x="62" y="740" on="1"/>
        <pt x="62" y="1083" on="0"/>
        <pt x="216" y="1300" on="1"/>
        <pt x="370" y="1517" on="0"/>
        <pt x="615" y="1517" on="1"/>
        <pt x="859" y="1517" on="0"/>
        <pt x="1013" y="1300" on="1"/>
        <pt x="1168" y="1083" on="0"/>
        <pt x="1168" y="741" on="1"/>
        <pt x="1168" y="421" on="0"/>
        <pt x="1034" y="209" on="1"/>
        <pt x="943" y="66" on="0"/>
        <pt x="789" y="-2" on="1"/>
        <pt x="951" y="-103" on="0"/>
        <pt x="1223" y="-163" on="1"/>
        <pt x="1154" y="-248" on="0"/>
        <pt x="1055" y="-321" on="1"/>
        <pt x="846" y="-242" on="0"/>
      </contour>
      <contour>
        <pt x="615" y="1394" on="1"/>
        <pt x="454" y="1394" on="0"/>
        <pt x="365" y="1222" on="1"/>
        <pt x="275" y="1050" on="0"/>
        <pt x="275" y="740" on="1"/>
        <pt x="275" y="434" on="0"/>
        <pt x="364" y="260" on="1"/>
        <pt x="452" y="86" on="0"/>
        <pt x="614" y="86" on="1"/>
        <pt x="776" y="86" on="0"/>
        <pt x="860" y="236" on="1"/>
        <pt x="955" y="405" on="0"/>
        <pt x="955" y="738" on="1"/>
        <pt x="955" y="1051" on="0"/>
        <pt x="865" y="1223" on="1"/>
        <pt x="774" y="1394" on="0"/>
      </contour>
    </TTGlyph>
    <TTGlyph name="R" xMin="86" yMin="0" xMax="1204" yMax="1480">
      <contour>
        <pt x="86" y="0" on="1"/>
        <pt x="86" y="123" on="1"/>
        <pt x="216" y="123" on="1"/>
        <pt x="216" y="1357" on="1"/>
        <pt x="86" y="1357" on="1"/>
        <pt x="86" y="1480" on="1"/>
        <pt x="673" y="1480" on="1"/>
        <pt x="849" y="1480" on="0"/>
        <pt x="950" y="1383" on="1"/>
        <pt x="1052" y="1286" on="0"/>
        <pt x="1052" y="1118" on="1"/>
        <pt x="1052" y="965" on="0"/>
        <pt x="960" y="847" on="1"/>
        <pt x="906" y="779" on="0"/>
        <pt x="803" y="709" on="1"/>
        <pt x="1116" y="123" on="1"/>
        <pt x="1204" y="123" on="1"/>
        <pt x="1204" y="0" on="1"/>
        <pt x="951" y="0" on="1"/>
        <pt x="612" y="648" on="1"/>
        <pt x="413" y="648" on="1"/>
        <pt x="413" y="123" on="1"/>
        <pt x="543" y="123" on="1"/>
        <pt x="543" y="0" on="1"/>
      </contour>
      <contour>
        <pt x="413" y="771" on="1"/>
        <pt x="512" y="771" on="1"/>
        <pt x="842" y="771" on="0"/>
        <pt x="842" y="1096" on="1"/>
        <pt x="842" y="1357" on="0"/>
        <pt x="592" y="1357" on="1"/>
        <pt x="413" y="1357" on="1"/>
      </contour>
    </TTGlyph>
    <TTGlyph name="Racute" xMin="86" yMin="0" xMax="1204" yMax="1925">
      <contour>
        <pt x="86" y="0" on="1"/>
        <pt x="86" y="123" on="1"/>
        <pt x="216" y="123" on="1"/>
        <pt x="216" y="1357" on="1"/>
        <pt x="86" y="1357" on="1"/>
        <pt x="86" y="1480" on="1"/>
        <pt x="673" y="1480" on="1"/>
        <pt x="849" y="1480" on="0"/>
        <pt x="950" y="1383" on="1"/>
        <pt x="1052" y="1286" on="0"/>
        <pt x="1052" y="1118" on="1"/>
        <pt x="1052" y="965" on="0"/>
        <pt x="960" y="847" on="1"/>
        <pt x="906" y="779" on="0"/>
        <pt x="803" y="709" on="1"/>
        <pt x="1116" y="123" on="1"/>
        <pt x="1204" y="123" on="1"/>
        <pt x="1204" y="0" on="1"/>
        <pt x="951" y="0" on="1"/>
        <pt x="612" y="648" on="1"/>
        <pt x="413" y="648" on="1"/>
        <pt x="413" y="123" on="1"/>
        <pt x="543" y="123" on="1"/>
        <pt x="543" y="0" on="1"/>
      </contour>
      <contour>
        <pt x="413" y="771" on="1"/>
        <pt x="512" y="771" on="1"/>
        <pt x="842" y="771" on="0"/>
        <pt x="842" y="1096" on="1"/>
        <pt x="842" y="1357" on="0"/>
        <pt x="592" y="1357" on="1"/>
        <pt x="413" y="1357" on="1"/>
      </contour>
      <contour>
        <pt x="450" y="1604" on="1"/>
        <pt x="666" y="1925" on="1"/>
        <pt x="894" y="1925" on="1"/>
        <pt x="573" y="1604" on="1"/>
      </contour>
    </TTGlyph>
    <TTGlyph name="Rcaron" xMin="86" yMin="0" xMax="1204" yMax="1925">
      <contour>
        <pt x="86" y="0" on="1"/>
        <pt x="86" y="123" on="1"/>
        <pt x="216" y="123" on="1"/>
        <pt x="216" y="1357" on="1"/>
        <pt x="86" y="1357" on="1"/>
        <pt x="86" y="1480" on="1"/>
        <pt x="673" y="1480" on="1"/>
        <pt x="849" y="1480" on="0"/>
        <pt x="950" y="1383" on="1"/>
        <pt x="1052" y="1286" on="0"/>
        <pt x="1052" y="1118" on="1"/>
        <pt x="1052" y="965" on="0"/>
        <pt x="960" y="847" on="1"/>
        <pt x="906" y="779" on="0"/>
        <pt x="803" y="709" on="1"/>
        <pt x="1116" y="123" on="1"/>
        <pt x="1204" y="123" on="1"/>
        <pt x="1204" y="0" on="1"/>
        <pt x="951" y="0" on="1"/>
        <pt x="612" y="648" on="1"/>
        <pt x="413" y="648" on="1"/>
        <pt x="413" y="123" on="1"/>
        <pt x="543" y="123" on="1"/>
        <pt x="543" y="0" on="1"/>
      </contour>
      <contour>
        <pt x="413" y="771" on="1"/>
        <pt x="512" y="771" on="1"/>
        <pt x="842" y="771" on="0"/>
        <pt x="842" y="1096" on="1"/>
        <pt x="842" y="1357" on="0"/>
        <pt x="592" y="1357" on="1"/>
        <pt x="413" y="1357" on="1"/>
      </contour>
      <contour>
        <pt x="925" y="1925" on="1"/>
        <pt x="668" y="1604" on="1"/>
        <pt x="450" y="1604" on="1"/>
        <pt x="193" y="1925" on="1"/>
        <pt x="317" y="1925" on="1"/>
        <pt x="558" y="1723" on="1"/>
        <pt x="560" y="1723" on="1"/>
        <pt x="802" y="1925" on="1"/>
      </contour>
    </TTGlyph>
    <TTGlyph name="Rcommaaccent" xMin="86" yMin="-432" xMax="1204" yMax="1480">
      <contour>
        <pt x="86" y="0" on="1"/>
        <pt x="86" y="123" on="1"/>
        <pt x="216" y="123" on="1"/>
        <pt x="216" y="1357" on="1"/>
        <pt x="86" y="1357" on="1"/>
        <pt x="86" y="1480" on="1"/>
        <pt x="673" y="1480" on="1"/>
        <pt x="849" y="1480" on="0"/>
        <pt x="950" y="1383" on="1"/>
        <pt x="1052" y="1286" on="0"/>
        <pt x="1052" y="1118" on="1"/>
        <pt x="1052" y="965" on="0"/>
        <pt x="960" y="847" on="1"/>
        <pt x="906" y="779" on="0"/>
        <pt x="803" y="709" on="1"/>
        <pt x="1116" y="123" on="1"/>
        <pt x="1204" y="123" on="1"/>
        <pt x="1204" y="0" on="1"/>
        <pt x="951" y="0" on="1"/>
        <pt x="612" y="648" on="1"/>
        <pt x="413" y="648" on="1"/>
        <pt x="413" y="123" on="1"/>
        <pt x="543" y="123" on="1"/>
        <pt x="543" y="0" on="1"/>
      </contour>
      <contour>
        <pt x="413" y="771" on="1"/>
        <pt x="512" y="771" on="1"/>
        <pt x="842" y="771" on="0"/>
        <pt x="842" y="1096" on="1"/>
        <pt x="842" y="1357" on="0"/>
        <pt x="592" y="1357" on="1"/>
        <pt x="413" y="1357" on="1"/>
      </contour>
      <contour>
        <pt x="542" y="-421" on="1"/>
        <pt x="542" y="-336" on="1"/>
        <pt x="599" y="-345" on="0"/>
        <pt x="639" y="-345" on="1"/>
        <pt x="748" y="-345" on="0"/>
        <pt x="748" y="-278" on="1"/>
        <pt x="748" y="-205" on="0"/>
        <pt x="591" y="-188" on="1"/>
        <pt x="591" y="-111" on="1"/>
        <pt x="725" y="-114" on="0"/>
        <pt x="791" y="-143" on="1"/>
        <pt x="884" y="-185" on="0"/>
        <pt x="884" y="-280" on="1"/>
        <pt x="884" y="-432" on="0"/>
        <pt x="666" y="-432" on="1"/>
        <pt x="607" y="-432" on="0"/>
      </contour>
    </TTGlyph>
    <TTGlyph name="S" xMin="151" yMin="-37" xMax="1091" yMax="1517">
      <contour>
        <pt x="151" y="61" on="1"/>
        <pt x="151" y="419" on="1"/>
        <pt x="275" y="419" on="1"/>
        <pt x="299" y="185" on="1"/>
        <pt x="486" y="86" on="0"/>
        <pt x="610" y="86" on="1"/>
        <pt x="737" y="86" on="0"/>
        <pt x="816" y="165" on="1"/>
        <pt x="895" y="243" on="0"/>
        <pt x="895" y="365" on="1"/>
        <pt x="895" y="522" on="0"/>
        <pt x="695" y="626" on="1"/>
        <pt x="505" y="725" on="1"/>
        <pt x="316" y="823" on="0"/>
        <pt x="249" y="906" on="1"/>
        <pt x="183" y="986" on="0"/>
        <pt x="183" y="1123" on="1"/>
        <pt x="183" y="1517" on="0"/>
        <pt x="631" y="1517" on="1"/>
        <pt x="814" y="1517" on="0"/>
        <pt x="1006" y="1444" on="1"/>
        <pt x="1006" y="1086" on="1"/>
        <pt x="883" y="1086" on="1"/>
        <pt x="858" y="1320" on="1"/>
        <pt x="733" y="1394" on="0"/>
        <pt x="616" y="1394" on="1"/>
        <pt x="375" y="1394" on="0"/>
        <pt x="375" y="1148" on="1"/>
        <pt x="375" y="1047" on="0"/>
        <pt x="431" y="999" on="1"/>
        <pt x="480" y="957" on="0"/>
        <pt x="606" y="889" on="1"/>
        <pt x="775" y="798" on="1"/>
        <pt x="970" y="693" on="0"/>
        <pt x="1030" y="620" on="1"/>
        <pt x="1091" y="546" on="0"/>
        <pt x="1091" y="413" on="1"/>
        <pt x="1091" y="209" on="0"/>
        <pt x="957" y="86" on="1"/>
        <pt x="822" y="-37" on="0"/>
        <pt x="598" y="-37" on="1"/>
        <pt x="393" y="-37" on="0"/>
      </contour>
    </TTGlyph>
    <TTGlyph name="Sacute" xMin="151" yMin="-37" xMax="1091" yMax="1925">
      <contour>
        <pt x="151" y="61" on="1"/>
        <pt x="151" y="419" on="1"/>
        <pt x="275" y="419" on="1"/>
        <pt x="299" y="185" on="1"/>
        <pt x="486" y="86" on="0"/>
        <pt x="610" y="86" on="1"/>
        <pt x="737" y="86" on="0"/>
        <pt x="816" y="165" on="1"/>
        <pt x="895" y="243" on="0"/>
        <pt x="895" y="365" on="1"/>
        <pt x="895" y="522" on="0"/>
        <pt x="695" y="626" on="1"/>
        <pt x="505" y="725" on="1"/>
        <pt x="316" y="823" on="0"/>
        <pt x="249" y="906" on="1"/>
        <pt x="183" y="986" on="0"/>
        <pt x="183" y="1123" on="1"/>
        <pt x="183" y="1517" on="0"/>
        <pt x="631" y="1517" on="1"/>
        <pt x="814" y="1517" on="0"/>
        <pt x="1006" y="1444" on="1"/>
        <pt x="1006" y="1086" on="1"/>
        <pt x="883" y="1086" on="1"/>
        <pt x="858" y="1320" on="1"/>
        <pt x="733" y="1394" on="0"/>
        <pt x="616" y="1394" on="1"/>
        <pt x="375" y="1394" on="0"/>
        <pt x="375" y="1148" on="1"/>
        <pt x="375" y="1047" on="0"/>
        <pt x="431" y="999" on="1"/>
        <pt x="480" y="957" on="0"/>
        <pt x="606" y="889" on="1"/>
        <pt x="775" y="798" on="1"/>
        <pt x="970" y="693" on="0"/>
        <pt x="1030" y="620" on="1"/>
        <pt x="1091" y="546" on="0"/>
        <pt x="1091" y="413" on="1"/>
        <pt x="1091" y="209" on="0"/>
        <pt x="957" y="86" on="1"/>
        <pt x="822" y="-37" on="0"/>
        <pt x="598" y="-37" on="1"/>
        <pt x="393" y="-37" on="0"/>
      </contour>
      <contour>
        <pt x="509" y="1604" on="1"/>
        <pt x="725" y="1925" on="1"/>
        <pt x="953" y="1925" on="1"/>
        <pt x="632" y="1604" on="1"/>
      </contour>
    </TTGlyph>
    <TTGlyph name="Scaron" xMin="151" yMin="-37" xMax="1091" yMax="1925">
      <contour>
        <pt x="151" y="61" on="1"/>
        <pt x="151" y="419" on="1"/>
        <pt x="275" y="419" on="1"/>
        <pt x="299" y="185" on="1"/>
        <pt x="486" y="86" on="0"/>
        <pt x="610" y="86" on="1"/>
        <pt x="737" y="86" on="0"/>
        <pt x="816" y="165" on="1"/>
        <pt x="895" y="243" on="0"/>
        <pt x="895" y="365" on="1"/>
        <pt x="895" y="522" on="0"/>
        <pt x="695" y="626" on="1"/>
        <pt x="505" y="725" on="1"/>
        <pt x="316" y="823" on="0"/>
        <pt x="249" y="906" on="1"/>
        <pt x="183" y="986" on="0"/>
        <pt x="183" y="1123" on="1"/>
        <pt x="183" y="1517" on="0"/>
        <pt x="631" y="1517" on="1"/>
        <pt x="814" y="1517" on="0"/>
        <pt x="1006" y="1444" on="1"/>
        <pt x="1006" y="1086" on="1"/>
        <pt x="883" y="1086" on="1"/>
        <pt x="858" y="1320" on="1"/>
        <pt x="733" y="1394" on="0"/>
        <pt x="616" y="1394" on="1"/>
        <pt x="375" y="1394" on="0"/>
        <pt x="375" y="1148" on="1"/>
        <pt x="375" y="1047" on="0"/>
        <pt x="431" y="999" on="1"/>
        <pt x="480" y="957" on="0"/>
        <pt x="606" y="889" on="1"/>
        <pt x="775" y="798" on="1"/>
        <pt x="970" y="693" on="0"/>
        <pt x="1030" y="620" on="1"/>
        <pt x="1091" y="546" on="0"/>
        <pt x="1091" y="413" on="1"/>
        <pt x="1091" y="209" on="0"/>
        <pt x="957" y="86" on="1"/>
        <pt x="822" y="-37" on="0"/>
        <pt x="598" y="-37" on="1"/>
        <pt x="393" y="-37" on="0"/>
      </contour>
      <contour>
        <pt x="999" y="1925" on="1"/>
        <pt x="742" y="1604" on="1"/>
        <pt x="524" y="1604" on="1"/>
        <pt x="267" y="1925" on="1"/>
        <pt x="391" y="1925" on="1"/>
        <pt x="632" y="1723" on="1"/>
        <pt x="634" y="1723" on="1"/>
        <pt x="876" y="1925" on="1"/>
      </contour>
    </TTGlyph>
    <TTGlyph name="Scedilla" xMin="151" yMin="-432" xMax="1091" yMax="1517">
      <contour>
        <pt x="151" y="61" on="1"/>
        <pt x="151" y="419" on="1"/>
        <pt x="275" y="419" on="1"/>
        <pt x="299" y="185" on="1"/>
        <pt x="486" y="86" on="0"/>
        <pt x="610" y="86" on="1"/>
        <pt x="737" y="86" on="0"/>
        <pt x="816" y="165" on="1"/>
        <pt x="895" y="243" on="0"/>
        <pt x="895" y="365" on="1"/>
        <pt x="895" y="522" on="0"/>
        <pt x="695" y="626" on="1"/>
        <pt x="505" y="725" on="1"/>
        <pt x="316" y="823" on="0"/>
        <pt x="249" y="906" on="1"/>
        <pt x="183" y="986" on="0"/>
        <pt x="183" y="1123" on="1"/>
        <pt x="183" y="1517" on="0"/>
        <pt x="632" y="1517" on="1"/>
        <pt x="814" y="1517" on="0"/>
        <pt x="1006" y="1444" on="1"/>
        <pt x="1006" y="1086" on="1"/>
        <pt x="883" y="1086" on="1"/>
        <pt x="858" y="1320" on="1"/>
        <pt x="733" y="1394" on="0"/>
        <pt x="616" y="1394" on="1"/>
        <pt x="375" y="1394" on="0"/>
        <pt x="375" y="1148" on="1"/>
        <pt x="375" y="1047" on="0"/>
        <pt x="431" y="999" on="1"/>
        <pt x="480" y="957" on="0"/>
        <pt x="606" y="889" on="1"/>
        <pt x="775" y="798" on="1"/>
        <pt x="970" y="693" on="0"/>
        <pt x="1030" y="620" on="1"/>
        <pt x="1091" y="546" on="0"/>
        <pt x="1091" y="413" on="1"/>
        <pt x="1091" y="209" on="0"/>
        <pt x="957" y="86" on="1"/>
        <pt x="823" y="-37" on="0"/>
        <pt x="598" y="-37" on="1"/>
        <pt x="393" y="-37" on="0"/>
      </contour>
      <contour>
        <pt x="554" y="0" on="1"/>
        <pt x="651" y="0" on="1"/>
        <pt x="591" y="-109" on="1"/>
        <pt x="663" y="-111" on="0"/>
        <pt x="715" y="-148" on="1"/>
        <pt x="785" y="-197" on="0"/>
        <pt x="785" y="-269" on="1"/>
        <pt x="785" y="-337" on="0"/>
        <pt x="726" y="-384" on="1"/>
        <pt x="668" y="-432" on="0"/>
        <pt x="581" y="-432" on="1"/>
        <pt x="514" y="-432" on="0"/>
        <pt x="438" y="-411" on="1"/>
        <pt x="438" y="-330" on="1"/>
        <pt x="488" y="-345" on="0"/>
        <pt x="542" y="-345" on="1"/>
        <pt x="646" y="-345" on="0"/>
        <pt x="646" y="-271" on="1"/>
        <pt x="646" y="-178" on="0"/>
        <pt x="459" y="-175" on="1"/>
      </contour>
    </TTGlyph>
    <TTGlyph name="Scircumflex" xMin="151" yMin="-37" xMax="1091" yMax="1925">
      <contour>
        <pt x="151" y="61" on="1"/>
        <pt x="151" y="419" on="1"/>
        <pt x="275" y="419" on="1"/>
        <pt x="299" y="185" on="1"/>
        <pt x="486" y="86" on="0"/>
        <pt x="610" y="86" on="1"/>
        <pt x="737" y="86" on="0"/>
        <pt x="816" y="165" on="1"/>
        <pt x="895" y="243" on="0"/>
        <pt x="895" y="365" on="1"/>
        <pt x="895" y="522" on="0"/>
        <pt x="695" y="626" on="1"/>
        <pt x="505" y="725" on="1"/>
        <pt x="316" y="823" on="0"/>
        <pt x="249" y="906" on="1"/>
        <pt x="183" y="986" on="0"/>
        <pt x="183" y="1123" on="1"/>
        <pt x="183" y="1517" on="0"/>
        <pt x="631" y="1517" on="1"/>
        <pt x="814" y="1517" on="0"/>
        <pt x="1006" y="1444" on="1"/>
        <pt x="1006" y="1086" on="1"/>
        <pt x="883" y="1086" on="1"/>
        <pt x="858" y="1320" on="1"/>
        <pt x="733" y="1394" on="0"/>
        <pt x="616" y="1394" on="1"/>
        <pt x="375" y="1394" on="0"/>
        <pt x="375" y="1148" on="1"/>
        <pt x="375" y="1047" on="0"/>
        <pt x="431" y="999" on="1"/>
        <pt x="480" y="957" on="0"/>
        <pt x="606" y="889" on="1"/>
        <pt x="775" y="798" on="1"/>
        <pt x="970" y="693" on="0"/>
        <pt x="1030" y="620" on="1"/>
        <pt x="1091" y="546" on="0"/>
        <pt x="1091" y="413" on="1"/>
        <pt x="1091" y="209" on="0"/>
        <pt x="957" y="86" on="1"/>
        <pt x="822" y="-37" on="0"/>
        <pt x="598" y="-37" on="1"/>
        <pt x="393" y="-37" on="0"/>
      </contour>
      <contour>
        <pt x="267" y="1604" on="1"/>
        <pt x="523" y="1925" on="1"/>
        <pt x="742" y="1925" on="1"/>
        <pt x="998" y="1604" on="1"/>
        <pt x="875" y="1604" on="1"/>
        <pt x="634" y="1806" on="1"/>
        <pt x="631" y="1806" on="1"/>
        <pt x="390" y="1604" on="1"/>
      </contour>
    </TTGlyph>
    <TTGlyph name="Scommaaccent" xMin="151" yMin="-432" xMax="1091" yMax="1517">
      <contour>
        <pt x="151" y="61" on="1"/>
        <pt x="151" y="419" on="1"/>
        <pt x="275" y="419" on="1"/>
        <pt x="299" y="185" on="1"/>
        <pt x="486" y="86" on="0"/>
        <pt x="610" y="86" on="1"/>
        <pt x="737" y="86" on="0"/>
        <pt x="816" y="165" on="1"/>
        <pt x="895" y="243" on="0"/>
        <pt x="895" y="365" on="1"/>
        <pt x="895" y="522" on="0"/>
        <pt x="695" y="626" on="1"/>
        <pt x="505" y="725" on="1"/>
        <pt x="316" y="823" on="0"/>
        <pt x="249" y="906" on="1"/>
        <pt x="183" y="986" on="0"/>
        <pt x="183" y="1123" on="1"/>
        <pt x="183" y="1517" on="0"/>
        <pt x="632" y="1517" on="1"/>
        <pt x="814" y="1517" on="0"/>
        <pt x="1006" y="1444" on="1"/>
        <pt x="1006" y="1086" on="1"/>
        <pt x="883" y="1086" on="1"/>
        <pt x="858" y="1320" on="1"/>
        <pt x="733" y="1394" on="0"/>
        <pt x="616" y="1394" on="1"/>
        <pt x="375" y="1394" on="0"/>
        <pt x="375" y="1148" on="1"/>
        <pt x="375" y="1047" on="0"/>
        <pt x="431" y="999" on="1"/>
        <pt x="480" y="957" on="0"/>
        <pt x="606" y="889" on="1"/>
        <pt x="775" y="798" on="1"/>
        <pt x="970" y="693" on="0"/>
        <pt x="1030" y="620" on="1"/>
        <pt x="1091" y="546" on="0"/>
        <pt x="1091" y="413" on="1"/>
        <pt x="1091" y="209" on="0"/>
        <pt x="957" y="86" on="1"/>
        <pt x="823" y="-37" on="0"/>
        <pt x="598" y="-37" on="1"/>
        <pt x="393" y="-37" on="0"/>
      </contour>
      <contour>
        <pt x="484" y="-421" on="1"/>
        <pt x="484" y="-336" on="1"/>
        <pt x="541" y="-345" on="0"/>
        <pt x="581" y="-345" on="1"/>
        <pt x="690" y="-345" on="0"/>
        <pt x="690" y="-278" on="1"/>
        <pt x="690" y="-205" on="0"/>
        <pt x="533" y="-188" on="1"/>
        <pt x="533" y="-111" on="1"/>
        <pt x="667" y="-114" on="0"/>
        <pt x="733" y="-143" on="1"/>
        <pt x="826" y="-185" on="0"/>
        <pt x="826" y="-280" on="1"/>
        <pt x="826" y="-432" on="0"/>
        <pt x="608" y="-432" on="1"/>
        <pt x="550" y="-432" on="0"/>
      </contour>
    </TTGlyph>
    <TTGlyph name="T" xMin="62" yMin="0" xMax="1168" yMax="1480">
      <contour>
        <pt x="257" y="0" on="1"/>
        <pt x="257" y="123" on="1"/>
        <pt x="516" y="123" on="1"/>
        <pt x="516" y="1357" on="1"/>
        <pt x="185" y="1357" on="1"/>
        <pt x="185" y="1086" on="1"/>
        <pt x="62" y="1086" on="1"/>
        <pt x="62" y="1480" on="1"/>
        <pt x="1168" y="1480" on="1"/>
        <pt x="1168" y="1086" on="1"/>
        <pt x="1044" y="1086" on="1"/>
        <pt x="1044" y="1357" on="1"/>
        <pt x="714" y="1357" on="1"/>
        <pt x="714" y="123" on="1"/>
        <pt x="973" y="123" on="1"/>
        <pt x="973" y="0" on="1"/>
      </contour>
    </TTGlyph>
    <TTGlyph name="Tbar" xMin="62" yMin="0" xMax="1168" yMax="1480">
      <contour>
        <pt x="257" y="0" on="1"/>
        <pt x="257" y="123" on="1"/>
        <pt x="516" y="123" on="1"/>
        <pt x="516" y="716" on="1"/>
        <pt x="220" y="716" on="1"/>
        <pt x="220" y="814" on="1"/>
        <pt x="516" y="814" on="1"/>
        <pt x="516" y="1357" on="1"/>
        <pt x="185" y="1357" on="1"/>
        <pt x="185" y="1086" on="1"/>
        <pt x="62" y="1086" on="1"/>
        <pt x="62" y="1480" on="1"/>
        <pt x="1168" y="1480" on="1"/>
        <pt x="1168" y="1086" on="1"/>
        <pt x="1044" y="1086" on="1"/>
        <pt x="1044" y="1357" on="1"/>
        <pt x="714" y="1357" on="1"/>
        <pt x="714" y="814" on="1"/>
        <pt x="1010" y="814" on="1"/>
        <pt x="1010" y="716" on="1"/>
        <pt x="714" y="716" on="1"/>
        <pt x="714" y="123" on="1"/>
        <pt x="973" y="123" on="1"/>
        <pt x="973" y="0" on="1"/>
      </contour>
    </TTGlyph>
    <TTGlyph name="Tcaron" xMin="62" yMin="0" xMax="1168" yMax="1925">
      <contour>
        <pt x="257" y="0" on="1"/>
        <pt x="257" y="123" on="1"/>
        <pt x="516" y="123" on="1"/>
        <pt x="516" y="1357" on="1"/>
        <pt x="185" y="1357" on="1"/>
        <pt x="185" y="1086" on="1"/>
        <pt x="62" y="1086" on="1"/>
        <pt x="62" y="1480" on="1"/>
        <pt x="1168" y="1480" on="1"/>
        <pt x="1168" y="1086" on="1"/>
        <pt x="1044" y="1086" on="1"/>
        <pt x="1044" y="1357" on="1"/>
        <pt x="714" y="1357" on="1"/>
        <pt x="714" y="123" on="1"/>
        <pt x="973" y="123" on="1"/>
        <pt x="973" y="0" on="1"/>
      </contour>
      <contour>
        <pt x="981" y="1925" on="1"/>
        <pt x="724" y="1604" on="1"/>
        <pt x="506" y="1604" on="1"/>
        <pt x="249" y="1925" on="1"/>
        <pt x="373" y="1925" on="1"/>
        <pt x="614" y="1723" on="1"/>
        <pt x="616" y="1723" on="1"/>
        <pt x="858" y="1925" on="1"/>
      </contour>
    </TTGlyph>
    <TTGlyph name="Tcommaaccent" xMin="62" yMin="-432" xMax="1168" yMax="1480">
      <contour>
        <pt x="257" y="0" on="1"/>
        <pt x="257" y="123" on="1"/>
        <pt x="516" y="123" on="1"/>
        <pt x="516" y="1357" on="1"/>
        <pt x="185" y="1357" on="1"/>
        <pt x="185" y="1086" on="1"/>
        <pt x="62" y="1086" on="1"/>
        <pt x="62" y="1480" on="1"/>
        <pt x="1168" y="1480" on="1"/>
        <pt x="1168" y="1086" on="1"/>
        <pt x="1044" y="1086" on="1"/>
        <pt x="1044" y="1357" on="1"/>
        <pt x="714" y="1357" on="1"/>
        <pt x="714" y="123" on="1"/>
        <pt x="973" y="123" on="1"/>
        <pt x="973" y="0" on="1"/>
      </contour>
      <contour>
        <pt x="592" y="0" on="1"/>
        <pt x="689" y="0" on="1"/>
        <pt x="629" y="-109" on="1"/>
        <pt x="701" y="-111" on="0"/>
        <pt x="753" y="-148" on="1"/>
        <pt x="823" y="-197" on="0"/>
        <pt x="823" y="-269" on="1"/>
        <pt x="823" y="-337" on="0"/>
        <pt x="764" y="-384" on="1"/>
        <pt x="705" y="-432" on="0"/>
        <pt x="620" y="-432" on="1"/>
        <pt x="552" y="-432" on="0"/>
        <pt x="476" y="-411" on="1"/>
        <pt x="476" y="-330" on="1"/>
        <pt x="526" y="-345" on="0"/>
        <pt x="580" y="-345" on="1"/>
        <pt x="684" y="-345" on="0"/>
        <pt x="684" y="-271" on="1"/>
        <pt x="684" y="-178" on="0"/>
        <pt x="497" y="-175" on="1"/>
      </contour>
    </TTGlyph>
    <TTGlyph name="Tcommabelow" xMin="62" yMin="-432" xMax="1168" yMax="1480">
      <contour>
        <pt x="257" y="0" on="1"/>
        <pt x="257" y="123" on="1"/>
        <pt x="516" y="123" on="1"/>
        <pt x="516" y="1357" on="1"/>
        <pt x="185" y="1357" on="1"/>
        <pt x="185" y="1086" on="1"/>
        <pt x="62" y="1086" on="1"/>
        <pt x="62" y="1480" on="1"/>
        <pt x="1168" y="1480" on="1"/>
        <pt x="1168" y="1086" on="1"/>
        <pt x="1044" y="1086" on="1"/>
        <pt x="1044" y="1357" on="1"/>
        <pt x="714" y="1357" on="1"/>
        <pt x="714" y="123" on="1"/>
        <pt x="973" y="123" on="1"/>
        <pt x="973" y="0" on="1"/>
      </contour>
      <contour>
        <pt x="472" y="-421" on="1"/>
        <pt x="472" y="-336" on="1"/>
        <pt x="529" y="-345" on="0"/>
        <pt x="569" y="-345" on="1"/>
        <pt x="678" y="-345" on="0"/>
        <pt x="678" y="-278" on="1"/>
        <pt x="678" y="-205" on="0"/>
        <pt x="521" y="-188" on="1"/>
        <pt x="521" y="-111" on="1"/>
        <pt x="655" y="-114" on="0"/>
        <pt x="721" y="-143" on="1"/>
        <pt x="814" y="-185" on="0"/>
        <pt x="814" y="-280" on="1"/>
        <pt x="814" y="-432" on="0"/>
        <pt x="596" y="-432" on="1"/>
        <pt x="538" y="-432" on="0"/>
      </contour>
    </TTGlyph>
    <TTGlyph name="Thorn" xMin="86" yMin="0" xMax="1124" yMax="1480">
      <contour>
        <pt x="481" y="1191" on="1"/>
        <pt x="670" y="1191" on="1"/>
        <pt x="1124" y="1191" on="0"/>
        <pt x="1124" y="829" on="1"/>
        <pt x="1124" y="588" on="0"/>
        <pt x="955" y="449" on="1"/>
        <pt x="787" y="309" on="0"/>
        <pt x="492" y="309" on="1"/>
        <pt x="481" y="309" on="1"/>
        <pt x="481" y="123" on="1"/>
        <pt x="678" y="123" on="1"/>
        <pt x="678" y="0" on="1"/>
        <pt x="86" y="0" on="1"/>
        <pt x="86" y="123" on="1"/>
        <pt x="283" y="123" on="1"/>
        <pt x="283" y="1357" on="1"/>
        <pt x="86" y="1357" on="1"/>
        <pt x="86" y="1480" on="1"/>
        <pt x="678" y="1480" on="1"/>
        <pt x="678" y="1357" on="1"/>
        <pt x="481" y="1357" on="1"/>
      </contour>
      <contour>
        <pt x="481" y="432" on="1"/>
        <pt x="493" y="432" on="1"/>
        <pt x="694" y="432" on="0"/>
        <pt x="804" y="528" on="1"/>
        <pt x="914" y="623" on="0"/>
        <pt x="914" y="796" on="1"/>
        <pt x="914" y="1067" on="0"/>
        <pt x="592" y="1067" on="1"/>
        <pt x="481" y="1067" on="1"/>
      </contour>
    </TTGlyph>
    <TTGlyph name="U" xMin="62" yMin="-37" xMax="1168" yMax="1480">
      <contour>
        <pt x="185" y="1357" on="1"/>
        <pt x="62" y="1357" on="1"/>
        <pt x="62" y="1480" on="1"/>
        <pt x="519" y="1480" on="1"/>
        <pt x="519" y="1357" on="1"/>
        <pt x="383" y="1357" on="1"/>
        <pt x="383" y="523" on="1"/>
        <pt x="383" y="313" on="0"/>
        <pt x="455" y="200" on="1"/>
        <pt x="526" y="86" on="0"/>
        <pt x="656" y="86" on="1"/>
        <pt x="921" y="86" on="0"/>
        <pt x="921" y="532" on="1"/>
        <pt x="921" y="1357" on="1"/>
        <pt x="785" y="1357" on="1"/>
        <pt x="785" y="1480" on="1"/>
        <pt x="1168" y="1480" on="1"/>
        <pt x="1168" y="1357" on="1"/>
        <pt x="1044" y="1357" on="1"/>
        <pt x="1044" y="496" on="1"/>
        <pt x="1044" y="244" on="0"/>
        <pt x="933" y="104" on="1"/>
        <pt x="823" y="-37" on="0"/>
        <pt x="621" y="-37" on="1"/>
        <pt x="185" y="-37" on="0"/>
        <pt x="185" y="550" on="1"/>
      </contour>
    </TTGlyph>
    <TTGlyph name="Uacute" xMin="62" yMin="-37" xMax="1168" yMax="1925">
      <contour>
        <pt x="185" y="1357" on="1"/>
        <pt x="62" y="1357" on="1"/>
        <pt x="62" y="1480" on="1"/>
        <pt x="519" y="1480" on="1"/>
        <pt x="519" y="1357" on="1"/>
        <pt x="383" y="1357" on="1"/>
        <pt x="383" y="523" on="1"/>
        <pt x="383" y="313" on="0"/>
        <pt x="455" y="200" on="1"/>
        <pt x="526" y="86" on="0"/>
        <pt x="656" y="86" on="1"/>
        <pt x="921" y="86" on="0"/>
        <pt x="921" y="532" on="1"/>
        <pt x="921" y="1357" on="1"/>
        <pt x="785" y="1357" on="1"/>
        <pt x="785" y="1480" on="1"/>
        <pt x="1168" y="1480" on="1"/>
        <pt x="1168" y="1357" on="1"/>
        <pt x="1044" y="1357" on="1"/>
        <pt x="1044" y="496" on="1"/>
        <pt x="1044" y="244" on="0"/>
        <pt x="933" y="104" on="1"/>
        <pt x="823" y="-37" on="0"/>
        <pt x="621" y="-37" on="1"/>
        <pt x="185" y="-37" on="0"/>
        <pt x="185" y="550" on="1"/>
      </contour>
      <contour>
        <pt x="528" y="1604" on="1"/>
        <pt x="744" y="1925" on="1"/>
        <pt x="972" y="1925" on="1"/>
        <pt x="651" y="1604" on="1"/>
      </contour>
    </TTGlyph>
    <TTGlyph name="Ubreve" xMin="62" yMin="-37" xMax="1168" yMax="1925">
      <contour>
        <pt x="185" y="1357" on="1"/>
        <pt x="62" y="1357" on="1"/>
        <pt x="62" y="1480" on="1"/>
        <pt x="519" y="1480" on="1"/>
        <pt x="519" y="1357" on="1"/>
        <pt x="383" y="1357" on="1"/>
        <pt x="383" y="523" on="1"/>
        <pt x="383" y="313" on="0"/>
        <pt x="455" y="200" on="1"/>
        <pt x="526" y="86" on="0"/>
        <pt x="656" y="86" on="1"/>
        <pt x="921" y="86" on="0"/>
        <pt x="921" y="532" on="1"/>
        <pt x="921" y="1357" on="1"/>
        <pt x="785" y="1357" on="1"/>
        <pt x="785" y="1480" on="1"/>
        <pt x="1168" y="1480" on="1"/>
        <pt x="1168" y="1357" on="1"/>
        <pt x="1044" y="1357" on="1"/>
        <pt x="1044" y="496" on="1"/>
        <pt x="1044" y="244" on="0"/>
        <pt x="933" y="104" on="1"/>
        <pt x="823" y="-37" on="0"/>
        <pt x="621" y="-37" on="1"/>
        <pt x="185" y="-37" on="0"/>
        <pt x="185" y="550" on="1"/>
      </contour>
      <contour>
        <pt x="306" y="1925" on="1"/>
        <pt x="429" y="1925" on="1"/>
        <pt x="477" y="1777" on="0"/>
        <pt x="651" y="1777" on="1"/>
        <pt x="826" y="1777" on="0"/>
        <pt x="874" y="1925" on="1"/>
        <pt x="997" y="1925" on="1"/>
        <pt x="974" y="1836" on="0"/>
        <pt x="948" y="1790" on="1"/>
        <pt x="857" y="1635" on="0"/>
        <pt x="655" y="1635" on="1"/>
        <pt x="503" y="1635" on="0"/>
        <pt x="414" y="1716" on="1"/>
        <pt x="359" y="1765" on="0"/>
        <pt x="331" y="1837" on="1"/>
        <pt x="320" y="1866" on="0"/>
      </contour>
    </TTGlyph>
    <TTGlyph name="Ucircumflex" xMin="62" yMin="-37" xMax="1168" yMax="1925">
      <contour>
        <pt x="185" y="1357" on="1"/>
        <pt x="62" y="1357" on="1"/>
        <pt x="62" y="1480" on="1"/>
        <pt x="519" y="1480" on="1"/>
        <pt x="519" y="1357" on="1"/>
        <pt x="383" y="1357" on="1"/>
        <pt x="383" y="523" on="1"/>
        <pt x="383" y="313" on="0"/>
        <pt x="455" y="200" on="1"/>
        <pt x="526" y="86" on="0"/>
        <pt x="656" y="86" on="1"/>
        <pt x="921" y="86" on="0"/>
        <pt x="921" y="532" on="1"/>
        <pt x="921" y="1357" on="1"/>
        <pt x="785" y="1357" on="1"/>
        <pt x="785" y="1480" on="1"/>
        <pt x="1168" y="1480" on="1"/>
        <pt x="1168" y="1357" on="1"/>
        <pt x="1044" y="1357" on="1"/>
        <pt x="1044" y="496" on="1"/>
        <pt x="1044" y="244" on="0"/>
        <pt x="933" y="104" on="1"/>
        <pt x="823" y="-37" on="0"/>
        <pt x="621" y="-37" on="1"/>
        <pt x="185" y="-37" on="0"/>
        <pt x="185" y="550" on="1"/>
      </contour>
      <contour>
        <pt x="286" y="1604" on="1"/>
        <pt x="542" y="1925" on="1"/>
        <pt x="761" y="1925" on="1"/>
        <pt x="1017" y="1604" on="1"/>
        <pt x="894" y="1604" on="1"/>
        <pt x="653" y="1806" on="1"/>
        <pt x="650" y="1806" on="1"/>
        <pt x="409" y="1604" on="1"/>
      </contour>
    </TTGlyph>
    <TTGlyph name="Udieresis" xMin="62" yMin="-37" xMax="1168" yMax="1801">
      <contour>
        <pt x="185" y="1357" on="1"/>
        <pt x="62" y="1357" on="1"/>
        <pt x="62" y="1480" on="1"/>
        <pt x="519" y="1480" on="1"/>
        <pt x="519" y="1357" on="1"/>
        <pt x="383" y="1357" on="1"/>
        <pt x="383" y="523" on="1"/>
        <pt x="383" y="313" on="0"/>
        <pt x="455" y="200" on="1"/>
        <pt x="526" y="86" on="0"/>
        <pt x="656" y="86" on="1"/>
        <pt x="921" y="86" on="0"/>
        <pt x="921" y="532" on="1"/>
        <pt x="921" y="1357" on="1"/>
        <pt x="785" y="1357" on="1"/>
        <pt x="785" y="1480" on="1"/>
        <pt x="1168" y="1480" on="1"/>
        <pt x="1168" y="1357" on="1"/>
        <pt x="1044" y="1357" on="1"/>
        <pt x="1044" y="496" on="1"/>
        <pt x="1044" y="244" on="0"/>
        <pt x="933" y="104" on="1"/>
        <pt x="823" y="-37" on="0"/>
        <pt x="621" y="-37" on="1"/>
        <pt x="185" y="-37" on="0"/>
        <pt x="185" y="550" on="1"/>
      </contour>
      <contour>
        <pt x="319" y="1604" on="1"/>
        <pt x="319" y="1801" on="1"/>
        <pt x="516" y="1801" on="1"/>
        <pt x="516" y="1604" on="1"/>
      </contour>
      <contour>
        <pt x="788" y="1604" on="1"/>
        <pt x="788" y="1801" on="1"/>
        <pt x="985" y="1801" on="1"/>
        <pt x="985" y="1604" on="1"/>
      </contour>
    </TTGlyph>
    <TTGlyph name="Ugrave" xMin="62" yMin="-37" xMax="1168" yMax="1925">
      <contour>
        <pt x="185" y="1357" on="1"/>
        <pt x="62" y="1357" on="1"/>
        <pt x="62" y="1480" on="1"/>
        <pt x="519" y="1480" on="1"/>
        <pt x="519" y="1357" on="1"/>
        <pt x="383" y="1357" on="1"/>
        <pt x="383" y="523" on="1"/>
        <pt x="383" y="313" on="0"/>
        <pt x="455" y="200" on="1"/>
        <pt x="526" y="86" on="0"/>
        <pt x="656" y="86" on="1"/>
        <pt x="921" y="86" on="0"/>
        <pt x="921" y="532" on="1"/>
        <pt x="921" y="1357" on="1"/>
        <pt x="785" y="1357" on="1"/>
        <pt x="785" y="1480" on="1"/>
        <pt x="1168" y="1480" on="1"/>
        <pt x="1168" y="1357" on="1"/>
        <pt x="1044" y="1357" on="1"/>
        <pt x="1044" y="496" on="1"/>
        <pt x="1044" y="244" on="0"/>
        <pt x="933" y="104" on="1"/>
        <pt x="823" y="-37" on="0"/>
        <pt x="621" y="-37" on="1"/>
        <pt x="185" y="-37" on="0"/>
        <pt x="185" y="550" on="1"/>
      </contour>
      <contour>
        <pt x="775" y="1604" on="1"/>
        <pt x="652" y="1604" on="1"/>
        <pt x="331" y="1925" on="1"/>
        <pt x="559" y="1925" on="1"/>
      </contour>
    </TTGlyph>
    <TTGlyph name="Uhungarumlaut" xMin="62" yMin="-37" xMax="1168" yMax="1925">
      <contour>
        <pt x="185" y="1357" on="1"/>
        <pt x="62" y="1357" on="1"/>
        <pt x="62" y="1480" on="1"/>
        <pt x="519" y="1480" on="1"/>
        <pt x="519" y="1357" on="1"/>
        <pt x="383" y="1357" on="1"/>
        <pt x="383" y="523" on="1"/>
        <pt x="383" y="313" on="0"/>
        <pt x="455" y="200" on="1"/>
        <pt x="526" y="86" on="0"/>
        <pt x="656" y="86" on="1"/>
        <pt x="921" y="86" on="0"/>
        <pt x="921" y="532" on="1"/>
        <pt x="921" y="1357" on="1"/>
        <pt x="785" y="1357" on="1"/>
        <pt x="785" y="1480" on="1"/>
        <pt x="1168" y="1480" on="1"/>
        <pt x="1168" y="1357" on="1"/>
        <pt x="1044" y="1357" on="1"/>
        <pt x="1044" y="496" on="1"/>
        <pt x="1044" y="244" on="0"/>
        <pt x="933" y="104" on="1"/>
        <pt x="823" y="-37" on="0"/>
        <pt x="621" y="-37" on="1"/>
        <pt x="185" y="-37" on="0"/>
        <pt x="185" y="550" on="1"/>
      </contour>
      <contour>
        <pt x="384" y="1604" on="1"/>
        <pt x="624" y="1925" on="1"/>
        <pt x="816" y="1925" on="1"/>
        <pt x="495" y="1604" on="1"/>
      </contour>
      <contour>
        <pt x="735" y="1604" on="1"/>
        <pt x="976" y="1925" on="1"/>
        <pt x="1167" y="1925" on="1"/>
        <pt x="846" y="1604" on="1"/>
      </contour>
    </TTGlyph>
    <TTGlyph name="Umacron" xMin="62" yMin="-37" xMax="1168" yMax="1728">
      <contour>
        <pt x="185" y="1357" on="1"/>
        <pt x="62" y="1357" on="1"/>
        <pt x="62" y="1480" on="1"/>
        <pt x="519" y="1480" on="1"/>
        <pt x="519" y="1357" on="1"/>
        <pt x="383" y="1357" on="1"/>
        <pt x="383" y="523" on="1"/>
        <pt x="383" y="313" on="0"/>
        <pt x="455" y="200" on="1"/>
        <pt x="526" y="86" on="0"/>
        <pt x="656" y="86" on="1"/>
        <pt x="921" y="86" on="0"/>
        <pt x="921" y="532" on="1"/>
        <pt x="921" y="1357" on="1"/>
        <pt x="785" y="1357" on="1"/>
        <pt x="785" y="1480" on="1"/>
        <pt x="1168" y="1480" on="1"/>
        <pt x="1168" y="1357" on="1"/>
        <pt x="1044" y="1357" on="1"/>
        <pt x="1044" y="496" on="1"/>
        <pt x="1044" y="244" on="0"/>
        <pt x="933" y="104" on="1"/>
        <pt x="823" y="-37" on="0"/>
        <pt x="621" y="-37" on="1"/>
        <pt x="185" y="-37" on="0"/>
        <pt x="185" y="550" on="1"/>
      </contour>
      <contour>
        <pt x="303" y="1604" on="1"/>
        <pt x="303" y="1728" on="1"/>
        <pt x="994" y="1728" on="1"/>
        <pt x="994" y="1604" on="1"/>
      </contour>
    </TTGlyph>
    <TTGlyph name="Unterkomma" xMin="464" yMin="-432" xMax="806" yMax="-111">
      <contour>
        <pt x="464" y="-421" on="1"/>
        <pt x="464" y="-336" on="1"/>
        <pt x="521" y="-345" on="0"/>
        <pt x="561" y="-345" on="1"/>
        <pt x="670" y="-345" on="0"/>
        <pt x="670" y="-278" on="1"/>
        <pt x="670" y="-205" on="0"/>
        <pt x="513" y="-188" on="1"/>
        <pt x="513" y="-111" on="1"/>
        <pt x="647" y="-114" on="0"/>
        <pt x="713" y="-143" on="1"/>
        <pt x="806" y="-185" on="0"/>
        <pt x="806" y="-280" on="1"/>
        <pt x="806" y="-432" on="0"/>
        <pt x="588" y="-432" on="1"/>
        <pt x="530" y="-432" on="0"/>
      </contour>
    </TTGlyph>
    <TTGlyph name="Uogonek" xMin="62" yMin="-370" xMax="1168" yMax="1480">
      <contour>
        <pt x="185" y="1357" on="1"/>
        <pt x="62" y="1357" on="1"/>
        <pt x="62" y="1480" on="1"/>
        <pt x="519" y="1480" on="1"/>
        <pt x="519" y="1357" on="1"/>
        <pt x="383" y="1357" on="1"/>
        <pt x="383" y="523" on="1"/>
        <pt x="383" y="313" on="0"/>
        <pt x="455" y="200" on="1"/>
        <pt x="526" y="86" on="0"/>
        <pt x="656" y="86" on="1"/>
        <pt x="921" y="86" on="0"/>
        <pt x="921" y="532" on="1"/>
        <pt x="921" y="1357" on="1"/>
        <pt x="785" y="1357" on="1"/>
        <pt x="785" y="1480" on="1"/>
        <pt x="1168" y="1480" on="1"/>
        <pt x="1168" y="1357" on="1"/>
        <pt x="1044" y="1357" on="1"/>
        <pt x="1044" y="496" on="1"/>
        <pt x="1044" y="244" on="0"/>
        <pt x="933" y="104" on="1"/>
        <pt x="823" y="-37" on="0"/>
        <pt x="621" y="-37" on="1"/>
        <pt x="185" y="-37" on="0"/>
        <pt x="185" y="550" on="1"/>
      </contour>
      <contour>
        <pt x="686" y="0" on="1"/>
        <pt x="793" y="0" on="1"/>
        <pt x="664" y="-81" on="0"/>
        <pt x="664" y="-179" on="1"/>
        <pt x="664" y="-275" on="0"/>
        <pt x="779" y="-275" on="1"/>
        <pt x="833" y="-275" on="0"/>
        <pt x="870" y="-260" on="1"/>
        <pt x="870" y="-341" on="1"/>
        <pt x="808" y="-370" on="0"/>
        <pt x="730" y="-370" on="1"/>
        <pt x="528" y="-370" on="0"/>
        <pt x="528" y="-213" on="1"/>
        <pt x="528" y="-90" on="0"/>
      </contour>
    </TTGlyph>
    <TTGlyph name="Uring" xMin="62" yMin="-37" xMax="1168" yMax="2033">
      <contour>
        <pt x="185" y="1357" on="1"/>
        <pt x="62" y="1357" on="1"/>
        <pt x="62" y="1480" on="1"/>
        <pt x="519" y="1480" on="1"/>
        <pt x="519" y="1357" on="1"/>
        <pt x="383" y="1357" on="1"/>
        <pt x="383" y="523" on="1"/>
        <pt x="383" y="313" on="0"/>
        <pt x="455" y="200" on="1"/>
        <pt x="526" y="86" on="0"/>
        <pt x="656" y="86" on="1"/>
        <pt x="921" y="86" on="0"/>
        <pt x="921" y="532" on="1"/>
        <pt x="921" y="1357" on="1"/>
        <pt x="785" y="1357" on="1"/>
        <pt x="785" y="1480" on="1"/>
        <pt x="1168" y="1480" on="1"/>
        <pt x="1168" y="1357" on="1"/>
        <pt x="1044" y="1357" on="1"/>
        <pt x="1044" y="496" on="1"/>
        <pt x="1044" y="244" on="0"/>
        <pt x="933" y="104" on="1"/>
        <pt x="823" y="-37" on="0"/>
        <pt x="621" y="-37" on="1"/>
        <pt x="185" y="-37" on="0"/>
        <pt x="185" y="550" on="1"/>
      </contour>
      <contour>
        <pt x="606" y="2033" on="1"/>
        <pt x="700" y="2033" on="0"/>
        <pt x="766" y="1967" on="1"/>
        <pt x="833" y="1901" on="0"/>
        <pt x="833" y="1807" on="1"/>
        <pt x="833" y="1710" on="0"/>
        <pt x="766" y="1645" on="1"/>
        <pt x="700" y="1579" on="0"/>
        <pt x="604" y="1579" on="1"/>
        <pt x="521" y="1579" on="0"/>
        <pt x="459" y="1633" on="1"/>
        <pt x="379" y="1703" on="0"/>
        <pt x="379" y="1806" on="1"/>
        <pt x="379" y="1900" on="0"/>
        <pt x="446" y="1966" on="1"/>
        <pt x="512" y="2033" on="0"/>
      </contour>
      <contour>
        <pt x="606" y="1946" on="1"/>
        <pt x="549" y="1946" on="0"/>
        <pt x="507" y="1905" on="1"/>
        <pt x="465" y="1865" on="0"/>
        <pt x="465" y="1806" on="1"/>
        <pt x="465" y="1748" on="0"/>
        <pt x="506" y="1707" on="1"/>
        <pt x="548" y="1665" on="0"/>
        <pt x="604" y="1665" on="1"/>
        <pt x="658" y="1665" on="0"/>
        <pt x="697" y="1698" on="1"/>
        <pt x="747" y="1741" on="0"/>
        <pt x="747" y="1807" on="1"/>
        <pt x="747" y="1865" on="0"/>
        <pt x="705" y="1905" on="1"/>
        <pt x="664" y="1946" on="0"/>
      </contour>
    </TTGlyph>
    <TTGlyph name="Utilde" xMin="62" yMin="-37" xMax="1168" yMax="1839">
      <contour>
        <pt x="185" y="1357" on="1"/>
        <pt x="62" y="1357" on="1"/>
        <pt x="62" y="1480" on="1"/>
        <pt x="519" y="1480" on="1"/>
        <pt x="519" y="1357" on="1"/>
        <pt x="383" y="1357" on="1"/>
        <pt x="383" y="523" on="1"/>
        <pt x="383" y="313" on="0"/>
        <pt x="455" y="200" on="1"/>
        <pt x="526" y="86" on="0"/>
        <pt x="656" y="86" on="1"/>
        <pt x="921" y="86" on="0"/>
        <pt x="921" y="532" on="1"/>
        <pt x="921" y="1357" on="1"/>
        <pt x="785" y="1357" on="1"/>
        <pt x="785" y="1480" on="1"/>
        <pt x="1168" y="1480" on="1"/>
        <pt x="1168" y="1357" on="1"/>
        <pt x="1044" y="1357" on="1"/>
        <pt x="1044" y="496" on="1"/>
        <pt x="1044" y="244" on="0"/>
        <pt x="933" y="104" on="1"/>
        <pt x="823" y="-37" on="0"/>
        <pt x="621" y="-37" on="1"/>
        <pt x="185" y="-37" on="0"/>
        <pt x="185" y="550" on="1"/>
      </contour>
      <contour>
        <pt x="284" y="1604" on="1"/>
        <pt x="290" y="1699" on="0"/>
        <pt x="315" y="1749" on="1"/>
        <pt x="360" y="1839" on="0"/>
        <pt x="469" y="1839" on="1"/>
        <pt x="541" y="1839" on="0"/>
        <pt x="604" y="1800" on="1"/>
        <pt x="664" y="1763" on="1"/>
        <pt x="726" y="1725" on="0"/>
        <pt x="760" y="1725" on="1"/>
        <pt x="828" y="1725" on="0"/>
        <pt x="839" y="1839" on="1"/>
        <pt x="950" y="1839" on="1"/>
        <pt x="943" y="1745" on="0"/>
        <pt x="918" y="1695" on="1"/>
        <pt x="872" y="1604" on="0"/>
        <pt x="765" y="1604" on="1"/>
        <pt x="692" y="1604" on="0"/>
        <pt x="629" y="1643" on="1"/>
        <pt x="569" y="1680" on="1"/>
        <pt x="509" y="1717" on="0"/>
        <pt x="473" y="1717" on="1"/>
        <pt x="405" y="1717" on="0"/>
        <pt x="394" y="1604" on="1"/>
      </contour>
    </TTGlyph>
    <TTGlyph name="V" xMin="26" yMin="0" xMax="1204" yMax="1480">
      <contour>
        <pt x="520" y="0" on="1"/>
        <pt x="100" y="1357" on="1"/>
        <pt x="26" y="1357" on="1"/>
        <pt x="26" y="1480" on="1"/>
        <pt x="463" y="1480" on="1"/>
        <pt x="463" y="1357" on="1"/>
        <pt x="306" y="1357" on="1"/>
        <pt x="652" y="237" on="1"/>
        <pt x="654" y="237" on="1"/>
        <pt x="1001" y="1357" on="1"/>
        <pt x="858" y="1357" on="1"/>
        <pt x="858" y="1480" on="1"/>
        <pt x="1204" y="1480" on="1"/>
        <pt x="1204" y="1357" on="1"/>
        <pt x="1130" y="1357" on="1"/>
        <pt x="709" y="0" on="1"/>
      </contour>
    </TTGlyph>
    <TTGlyph name="W" xMin="23" yMin="0" xMax="1207" yMax="1480">
      <contour>
        <pt x="242" y="0" on="1"/>
        <pt x="72" y="1357" on="1"/>
        <pt x="23" y="1357" on="1"/>
        <pt x="23" y="1480" on="1"/>
        <pt x="332" y="1480" on="1"/>
        <pt x="332" y="1357" on="1"/>
        <pt x="234" y="1357" on="1"/>
        <pt x="368" y="281" on="1"/>
        <pt x="370" y="281" on="1"/>
        <pt x="556" y="1258" on="1"/>
        <pt x="712" y="1258" on="1"/>
        <pt x="896" y="285" on="1"/>
        <pt x="899" y="285" on="1"/>
        <pt x="1033" y="1357" on="1"/>
        <pt x="934" y="1357" on="1"/>
        <pt x="934" y="1480" on="1"/>
        <pt x="1207" y="1480" on="1"/>
        <pt x="1207" y="1357" on="1"/>
        <pt x="1157" y="1357" on="1"/>
        <pt x="987" y="0" on="1"/>
        <pt x="799" y="0" on="1"/>
        <pt x="617" y="974" on="1"/>
        <pt x="615" y="974" on="1"/>
        <pt x="431" y="0" on="1"/>
      </contour>
    </TTGlyph>
    <TTGlyph name="Wcircumflex" xMin="23" yMin="0" xMax="1207" yMax="1925">
      <contour>
        <pt x="242" y="0" on="1"/>
        <pt x="72" y="1357" on="1"/>
        <pt x="23" y="1357" on="1"/>
        <pt x="23" y="1480" on="1"/>
        <pt x="332" y="1480" on="1"/>
        <pt x="332" y="1357" on="1"/>
        <pt x="234" y="1357" on="1"/>
        <pt x="368" y="281" on="1"/>
        <pt x="370" y="281" on="1"/>
        <pt x="556" y="1258" on="1"/>
        <pt x="712" y="1258" on="1"/>
        <pt x="896" y="285" on="1"/>
        <pt x="899" y="285" on="1"/>
        <pt x="1033" y="1357" on="1"/>
        <pt x="934" y="1357" on="1"/>
        <pt x="934" y="1480" on="1"/>
        <pt x="1207" y="1480" on="1"/>
        <pt x="1207" y="1357" on="1"/>
        <pt x="1157" y="1357" on="1"/>
        <pt x="987" y="0" on="1"/>
        <pt x="799" y="0" on="1"/>
        <pt x="617" y="974" on="1"/>
        <pt x="615" y="974" on="1"/>
        <pt x="431" y="0" on="1"/>
      </contour>
      <contour>
        <pt x="267" y="1604" on="1"/>
        <pt x="523" y="1925" on="1"/>
        <pt x="742" y="1925" on="1"/>
        <pt x="998" y="1604" on="1"/>
        <pt x="875" y="1604" on="1"/>
        <pt x="634" y="1806" on="1"/>
        <pt x="631" y="1806" on="1"/>
        <pt x="390" y="1604" on="1"/>
      </contour>
    </TTGlyph>
    <TTGlyph name="X" xMin="49" yMin="0" xMax="1179" yMax="1480">
      <contour>
        <pt x="49" y="0" on="1"/>
        <pt x="49" y="123" on="1"/>
        <pt x="160" y="123" on="1"/>
        <pt x="510" y="730" on="1"/>
        <pt x="148" y="1357" on="1"/>
        <pt x="49" y="1357" on="1"/>
        <pt x="49" y="1480" on="1"/>
        <pt x="469" y="1480" on="1"/>
        <pt x="469" y="1357" on="1"/>
        <pt x="369" y="1357" on="1"/>
        <pt x="657" y="857" on="1"/>
        <pt x="946" y="1357" on="1"/>
        <pt x="818" y="1357" on="1"/>
        <pt x="818" y="1480" on="1"/>
        <pt x="1179" y="1480" on="1"/>
        <pt x="1179" y="1357" on="1"/>
        <pt x="1074" y="1357" on="1"/>
        <pt x="721" y="746" on="1"/>
        <pt x="1081" y="123" on="1"/>
        <pt x="1179" y="123" on="1"/>
        <pt x="1179" y="0" on="1"/>
        <pt x="736" y="0" on="1"/>
        <pt x="736" y="123" on="1"/>
        <pt x="860" y="123" on="1"/>
        <pt x="574" y="619" on="1"/>
        <pt x="288" y="123" on="1"/>
        <pt x="442" y="123" on="1"/>
        <pt x="442" y="0" on="1"/>
      </contour>
    </TTGlyph>
    <TTGlyph name="Y" xMin="27" yMin="0" xMax="1201" yMax="1480">
      <contour>
        <pt x="294" y="0" on="1"/>
        <pt x="294" y="123" on="1"/>
        <pt x="516" y="123" on="1"/>
        <pt x="516" y="660" on="1"/>
        <pt x="113" y="1357" on="1"/>
        <pt x="27" y="1357" on="1"/>
        <pt x="27" y="1480" on="1"/>
        <pt x="490" y="1480" on="1"/>
        <pt x="490" y="1357" on="1"/>
        <pt x="341" y="1357" on="1"/>
        <pt x="656" y="813" on="1"/>
        <pt x="658" y="813" on="1"/>
        <pt x="973" y="1357" on="1"/>
        <pt x="825" y="1357" on="1"/>
        <pt x="825" y="1480" on="1"/>
        <pt x="1201" y="1480" on="1"/>
        <pt x="1201" y="1357" on="1"/>
        <pt x="1115" y="1357" on="1"/>
        <pt x="713" y="661" on="1"/>
        <pt x="713" y="123" on="1"/>
        <pt x="935" y="123" on="1"/>
        <pt x="935" y="0" on="1"/>
      </contour>
    </TTGlyph>
    <TTGlyph name="Yacute" xMin="27" yMin="0" xMax="1201" yMax="1925">
      <contour>
        <pt x="294" y="0" on="1"/>
        <pt x="294" y="123" on="1"/>
        <pt x="516" y="123" on="1"/>
        <pt x="516" y="660" on="1"/>
        <pt x="113" y="1357" on="1"/>
        <pt x="27" y="1357" on="1"/>
        <pt x="27" y="1480" on="1"/>
        <pt x="490" y="1480" on="1"/>
        <pt x="490" y="1357" on="1"/>
        <pt x="341" y="1357" on="1"/>
        <pt x="656" y="813" on="1"/>
        <pt x="658" y="813" on="1"/>
        <pt x="973" y="1357" on="1"/>
        <pt x="825" y="1357" on="1"/>
        <pt x="825" y="1480" on="1"/>
        <pt x="1201" y="1480" on="1"/>
        <pt x="1201" y="1357" on="1"/>
        <pt x="1115" y="1357" on="1"/>
        <pt x="713" y="661" on="1"/>
        <pt x="713" y="123" on="1"/>
        <pt x="935" y="123" on="1"/>
        <pt x="935" y="0" on="1"/>
      </contour>
      <contour>
        <pt x="534" y="1604" on="1"/>
        <pt x="750" y="1925" on="1"/>
        <pt x="978" y="1925" on="1"/>
        <pt x="657" y="1604" on="1"/>
      </contour>
    </TTGlyph>
    <TTGlyph name="Ycircumflex" xMin="27" yMin="0" xMax="1201" yMax="1925">
      <contour>
        <pt x="294" y="0" on="1"/>
        <pt x="294" y="123" on="1"/>
        <pt x="516" y="123" on="1"/>
        <pt x="516" y="660" on="1"/>
        <pt x="113" y="1357" on="1"/>
        <pt x="27" y="1357" on="1"/>
        <pt x="27" y="1480" on="1"/>
        <pt x="490" y="1480" on="1"/>
        <pt x="490" y="1357" on="1"/>
        <pt x="341" y="1357" on="1"/>
        <pt x="656" y="813" on="1"/>
        <pt x="658" y="813" on="1"/>
        <pt x="973" y="1357" on="1"/>
        <pt x="825" y="1357" on="1"/>
        <pt x="825" y="1480" on="1"/>
        <pt x="1201" y="1480" on="1"/>
        <pt x="1201" y="1357" on="1"/>
        <pt x="1115" y="1357" on="1"/>
        <pt x="713" y="661" on="1"/>
        <pt x="713" y="123" on="1"/>
        <pt x="935" y="123" on="1"/>
        <pt x="935" y="0" on="1"/>
      </contour>
      <contour>
        <pt x="291" y="1604" on="1"/>
        <pt x="547" y="1925" on="1"/>
        <pt x="766" y="1925" on="1"/>
        <pt x="1022" y="1604" on="1"/>
        <pt x="899" y="1604" on="1"/>
        <pt x="658" y="1806" on="1"/>
        <pt x="655" y="1806" on="1"/>
        <pt x="414" y="1604" on="1"/>
      </contour>
    </TTGlyph>
    <TTGlyph name="Ydieresis" xMin="27" yMin="0" xMax="1201" yMax="1801">
      <contour>
        <pt x="294" y="0" on="1"/>
        <pt x="294" y="123" on="1"/>
        <pt x="516" y="123" on="1"/>
        <pt x="516" y="660" on="1"/>
        <pt x="113" y="1357" on="1"/>
        <pt x="27" y="1357" on="1"/>
        <pt x="27" y="1480" on="1"/>
        <pt x="490" y="1480" on="1"/>
        <pt x="490" y="1357" on="1"/>
        <pt x="341" y="1357" on="1"/>
        <pt x="656" y="813" on="1"/>
        <pt x="658" y="813" on="1"/>
        <pt x="973" y="1357" on="1"/>
        <pt x="825" y="1357" on="1"/>
        <pt x="825" y="1480" on="1"/>
        <pt x="1201" y="1480" on="1"/>
        <pt x="1201" y="1357" on="1"/>
        <pt x="1115" y="1357" on="1"/>
        <pt x="713" y="661" on="1"/>
        <pt x="713" y="123" on="1"/>
        <pt x="935" y="123" on="1"/>
        <pt x="935" y="0" on="1"/>
      </contour>
      <contour>
        <pt x="324" y="1604" on="1"/>
        <pt x="324" y="1801" on="1"/>
        <pt x="521" y="1801" on="1"/>
        <pt x="521" y="1604" on="1"/>
      </contour>
      <contour>
        <pt x="793" y="1604" on="1"/>
        <pt x="793" y="1801" on="1"/>
        <pt x="990" y="1801" on="1"/>
        <pt x="990" y="1604" on="1"/>
      </contour>
    </TTGlyph>
    <TTGlyph name="Z" xMin="148" yMin="0" xMax="1081" yMax="1480">
      <contour>
        <pt x="148" y="0" on="1"/>
        <pt x="148" y="136" on="1"/>
        <pt x="848" y="1357" on="1"/>
        <pt x="290" y="1357" on="1"/>
        <pt x="290" y="1086" on="1"/>
        <pt x="167" y="1086" on="1"/>
        <pt x="167" y="1480" on="1"/>
        <pt x="1068" y="1480" on="1"/>
        <pt x="1068" y="1357" on="1"/>
        <pt x="368" y="136" on="1"/>
        <pt x="957" y="136" on="1"/>
        <pt x="957" y="432" on="1"/>
        <pt x="1081" y="432" on="1"/>
        <pt x="1081" y="0" on="1"/>
      </contour>
    </TTGlyph>
    <TTGlyph name="Zacute" xMin="148" yMin="0" xMax="1081" yMax="1925">
      <contour>
        <pt x="148" y="0" on="1"/>
        <pt x="148" y="136" on="1"/>
        <pt x="848" y="1357" on="1"/>
        <pt x="290" y="1357" on="1"/>
        <pt x="290" y="1086" on="1"/>
        <pt x="167" y="1086" on="1"/>
        <pt x="167" y="1480" on="1"/>
        <pt x="1068" y="1480" on="1"/>
        <pt x="1068" y="1357" on="1"/>
        <pt x="368" y="136" on="1"/>
        <pt x="957" y="136" on="1"/>
        <pt x="957" y="432" on="1"/>
        <pt x="1081" y="432" on="1"/>
        <pt x="1081" y="0" on="1"/>
      </contour>
      <contour>
        <pt x="491" y="1604" on="1"/>
        <pt x="707" y="1925" on="1"/>
        <pt x="935" y="1925" on="1"/>
        <pt x="614" y="1604" on="1"/>
      </contour>
    </TTGlyph>
    <TTGlyph name="Zcaron" xMin="148" yMin="0" xMax="1081" yMax="1925">
      <contour>
        <pt x="148" y="0" on="1"/>
        <pt x="148" y="136" on="1"/>
        <pt x="848" y="1357" on="1"/>
        <pt x="290" y="1357" on="1"/>
        <pt x="290" y="1086" on="1"/>
        <pt x="167" y="1086" on="1"/>
        <pt x="167" y="1480" on="1"/>
        <pt x="1068" y="1480" on="1"/>
        <pt x="1068" y="1357" on="1"/>
        <pt x="368" y="136" on="1"/>
        <pt x="957" y="136" on="1"/>
        <pt x="957" y="432" on="1"/>
        <pt x="1081" y="432" on="1"/>
        <pt x="1081" y="0" on="1"/>
      </contour>
      <contour>
        <pt x="980" y="1925" on="1"/>
        <pt x="723" y="1604" on="1"/>
        <pt x="505" y="1604" on="1"/>
        <pt x="248" y="1925" on="1"/>
        <pt x="372" y="1925" on="1"/>
        <pt x="613" y="1723" on="1"/>
        <pt x="615" y="1723" on="1"/>
        <pt x="857" y="1925" on="1"/>
      </contour>
    </TTGlyph>
    <TTGlyph name="Zdotaccent" xMin="148" yMin="0" xMax="1081" yMax="1801">
      <contour>
        <pt x="148" y="0" on="1"/>
        <pt x="148" y="136" on="1"/>
        <pt x="848" y="1357" on="1"/>
        <pt x="290" y="1357" on="1"/>
        <pt x="290" y="1086" on="1"/>
        <pt x="167" y="1086" on="1"/>
        <pt x="167" y="1480" on="1"/>
        <pt x="1068" y="1480" on="1"/>
        <pt x="1068" y="1357" on="1"/>
        <pt x="368" y="136" on="1"/>
        <pt x="957" y="136" on="1"/>
        <pt x="957" y="432" on="1"/>
        <pt x="1081" y="432" on="1"/>
        <pt x="1081" y="0" on="1"/>
      </contour>
      <contour>
        <pt x="516" y="1604" on="1"/>
        <pt x="516" y="1801" on="1"/>
        <pt x="713" y="1801" on="1"/>
        <pt x="713" y="1604" on="1"/>
      </contour>
    </TTGlyph>
    <TTGlyph name="a" xMin="148" yMin="-25" xMax="1167" yMax="1111">
      <contour>
        <pt x="834" y="119" on="1"/>
        <pt x="661" y="-25" on="0"/>
        <pt x="483" y="-25" on="1"/>
        <pt x="330" y="-25" on="0"/>
        <pt x="239" y="61" on="1"/>
        <pt x="148" y="146" on="0"/>
        <pt x="148" y="293" on="1"/>
        <pt x="148" y="483" on="0"/>
        <pt x="290" y="569" on="1"/>
        <pt x="432" y="654" on="0"/>
        <pt x="749" y="654" on="1"/>
        <pt x="834" y="654" on="1"/>
        <pt x="834" y="822" on="1"/>
        <pt x="834" y="987" on="0"/>
        <pt x="630" y="987" on="1"/>
        <pt x="527" y="987" on="0"/>
        <pt x="373" y="929" on="1"/>
        <pt x="348" y="802" on="1"/>
        <pt x="225" y="802" on="1"/>
        <pt x="225" y="1018" on="1"/>
        <pt x="454" y="1111" on="0"/>
        <pt x="692" y="1111" on="1"/>
        <pt x="881" y="1111" on="0"/>
        <pt x="956" y="1046" on="1"/>
        <pt x="1031" y="980" on="0"/>
        <pt x="1031" y="819" on="1"/>
        <pt x="1031" y="123" on="1"/>
        <pt x="1167" y="123" on="1"/>
        <pt x="1167" y="0" on="1"/>
        <pt x="854" y="0" on="1"/>
      </contour>
      <contour>
        <pt x="834" y="278" on="1"/>
        <pt x="834" y="531" on="1"/>
        <pt x="781" y="531" on="1"/>
        <pt x="551" y="531" on="0"/>
        <pt x="454" y="479" on="1"/>
        <pt x="358" y="427" on="0"/>
        <pt x="358" y="301" on="1"/>
        <pt x="358" y="123" on="0"/>
        <pt x="544" y="123" on="1"/>
        <pt x="691" y="123" on="0"/>
      </contour>
    </TTGlyph>
    <TTGlyph name="aacute" xMin="148" yMin="-25" xMax="1167" yMax="1604">
      <component glyphName="a" x="0" y="0" flags="0x4"/>
      <component glyphName="acute" x="160" y="0" flags="0x4"/>
    </TTGlyph>
    <TTGlyph name="abreve" xMin="148" yMin="-25" xMax="1167" yMax="1579">
      <component glyphName="a" x="0" y="0" flags="0x4"/>
      <component glyphName="breve" x="12" y="0" flags="0x4"/>
    </TTGlyph>
    <TTGlyph name="acircumflex" xMin="148" yMin="-25" xMax="1167" yMax="1604">
      <component glyphName="a" x="0" y="0" flags="0x4"/>
      <component glyphName="circumflex" x="27" y="0" flags="0x4"/>
    </TTGlyph>
    <TTGlyph name="acute" xMin="392" yMin="1283" xMax="836" yMax="1604">
      <contour>
        <pt x="392" y="1283" on="1"/>
        <pt x="608" y="1604" on="1"/>
        <pt x="836" y="1604" on="1"/>
        <pt x="515" y="1283" on="1"/>
      </contour>
    </TTGlyph>
    <TTGlyph name="adieresis" xMin="148" yMin="-25" xMax="1167" yMax="1480">
      <component glyphName="a" x="0" y="0" flags="0x4"/>
      <component glyphName="dieresis" x="35" y="0" flags="0x4"/>
    </TTGlyph>
    <TTGlyph name="ae" xMin="37" yMin="-25" xMax="1192" yMax="1110">
      <contour>
        <pt x="589" y="154" on="1"/>
        <pt x="552" y="73" on="0"/>
        <pt x="508" y="33" on="1"/>
        <pt x="443" y="-25" on="0"/>
        <pt x="347" y="-25" on="1"/>
        <pt x="216" y="-25" on="0"/>
        <pt x="127" y="70" on="1"/>
        <pt x="37" y="164" on="0"/>
        <pt x="37" y="307" on="1"/>
        <pt x="37" y="475" on="0"/>
        <pt x="154" y="571" on="1"/>
        <pt x="270" y="666" on="0"/>
        <pt x="476" y="666" on="1"/>
        <pt x="519" y="666" on="1"/>
        <pt x="519" y="807" on="1"/>
        <pt x="519" y="917" on="0"/>
        <pt x="498" y="952" on="1"/>
        <pt x="476" y="987" on="0"/>
        <pt x="408" y="987" on="1"/>
        <pt x="345" y="987" on="0"/>
        <pt x="284" y="947" on="1"/>
        <pt x="259" y="811" on="1"/>
        <pt x="136" y="811" on="1"/>
        <pt x="136" y="1043" on="1"/>
        <pt x="289" y="1110" on="0"/>
        <pt x="434" y="1110" on="1"/>
        <pt x="531" y="1110" on="0"/>
        <pt x="592" y="1062" on="1"/>
        <pt x="628" y="1033" on="0"/>
        <pt x="658" y="979" on="1"/>
        <pt x="736" y="1110" on="0"/>
        <pt x="879" y="1110" on="1"/>
        <pt x="1025" y="1110" on="0"/>
        <pt x="1106" y="974" on="1"/>
        <pt x="1186" y="838" on="0"/>
        <pt x="1186" y="592" on="1"/>
        <pt x="1186" y="543" on="1"/>
        <pt x="704" y="543" on="1"/>
        <pt x="707" y="492" on="1"/>
        <pt x="729" y="123" on="0"/>
        <pt x="948" y="123" on="1"/>
        <pt x="1032" y="123" on="0"/>
        <pt x="1192" y="191" on="1"/>
        <pt x="1192" y="43" on="1"/>
        <pt x="1016" y="-25" on="0"/>
        <pt x="885" y="-25" on="1"/>
        <pt x="719" y="-25" on="0"/>
      </contour>
      <contour>
        <pt x="519" y="228" on="1"/>
        <pt x="519" y="543" on="1"/>
        <pt x="488" y="543" on="1"/>
        <pt x="241" y="543" on="0"/>
        <pt x="241" y="315" on="1"/>
        <pt x="241" y="136" on="0"/>
        <pt x="382" y="136" on="1"/>
        <pt x="467" y="136" on="0"/>
      </contour>
      <contour>
        <pt x="704" y="666" on="1"/>
        <pt x="984" y="666" on="1"/>
        <pt x="981" y="844" on="0"/>
        <pt x="949" y="916" on="1"/>
        <pt x="918" y="987" on="0"/>
        <pt x="859" y="987" on="1"/>
        <pt x="725" y="987" on="0"/>
      </contour>
    </TTGlyph>
    <TTGlyph name="afii00208" xMin="0" yMin="543" xMax="1229" yMax="666">
      <contour>
        <pt x="0" y="543" on="1"/>
        <pt x="0" y="666" on="1"/>
        <pt x="1229" y="666" on="1"/>
        <pt x="1229" y="543" on="1"/>
      </contour>
    </TTGlyph>
    <TTGlyph name="agrave" xMin="148" yMin="-25" xMax="1167" yMax="1604">
      <component glyphName="a" x="0" y="0" flags="0x4"/>
      <component glyphName="grave" x="-38" y="0" flags="0x4"/>
    </TTGlyph>
    <TTGlyph name="amacron" xMin="148" yMin="-25" xMax="1167" yMax="1407">
      <component glyphName="a" x="0" y="0" flags="0x4"/>
      <component glyphName="macron" x="22" y="0" flags="0x4"/>
    </TTGlyph>
    <TTGlyph name="ampersand" xMin="57" yMin="-37" xMax="1192" yMax="1518">
      <contour>
        <pt x="928" y="0" on="1"/>
        <pt x="834" y="110" on="1"/>
        <pt x="653" y="-37" on="0"/>
        <pt x="478" y="-37" on="1"/>
        <pt x="290" y="-37" on="0"/>
        <pt x="174" y="88" on="1"/>
        <pt x="57" y="213" on="0"/>
        <pt x="57" y="413" on="1"/>
        <pt x="57" y="591" on="0"/>
        <pt x="164" y="728" on="1"/>
        <pt x="226" y="808" on="0"/>
        <pt x="345" y="889" on="1"/>
        <pt x="273" y="1056" on="0"/>
        <pt x="273" y="1188" on="1"/>
        <pt x="273" y="1340" on="0"/>
        <pt x="357" y="1429" on="1"/>
        <pt x="441" y="1518" on="0"/>
        <pt x="588" y="1518" on="1"/>
        <pt x="740" y="1518" on="0"/>
        <pt x="814" y="1436" on="1"/>
        <pt x="878" y="1365" on="0"/>
        <pt x="878" y="1240" on="1"/>
        <pt x="878" y="1095" on="0"/>
        <pt x="767" y="979" on="1"/>
        <pt x="700" y="909" on="0"/>
        <pt x="572" y="836" on="1"/>
        <pt x="745" y="504" on="0"/>
        <pt x="879" y="332" on="1"/>
        <pt x="968" y="451" on="0"/>
        <pt x="969" y="632" on="1"/>
        <pt x="967" y="691" on="1"/>
        <pt x="868" y="691" on="1"/>
        <pt x="868" y="814" on="1"/>
        <pt x="1192" y="814" on="1"/>
        <pt x="1192" y="691" on="1"/>
        <pt x="1120" y="691" on="1"/>
        <pt x="1111" y="527" on="0"/>
        <pt x="1079" y="440" on="1"/>
        <pt x="1048" y="352" on="0"/>
        <pt x="958" y="240" on="1"/>
        <pt x="1068" y="123" on="1"/>
        <pt x="1192" y="123" on="1"/>
        <pt x="1192" y="0" on="1"/>
      </contour>
      <contour>
        <pt x="757" y="208" on="1"/>
        <pt x="580" y="433" on="0"/>
        <pt x="405" y="785" on="1"/>
        <pt x="236" y="654" on="0"/>
        <pt x="236" y="441" on="1"/>
        <pt x="236" y="287" on="0"/>
        <pt x="311" y="199" on="1"/>
        <pt x="386" y="110" on="0"/>
        <pt x="515" y="110" on="1"/>
        <pt x="639" y="110" on="0"/>
      </contour>
      <contour>
        <pt x="518" y="938" on="1"/>
        <pt x="599" y="992" on="0"/>
        <pt x="640" y="1047" on="1"/>
        <pt x="699" y="1127" on="0"/>
        <pt x="699" y="1232" on="1"/>
        <pt x="699" y="1394" on="0"/>
        <pt x="584" y="1394" on="1"/>
        <pt x="452" y="1394" on="0"/>
        <pt x="452" y="1198" on="1"/>
        <pt x="452" y="1059" on="0"/>
        <pt x="511" y="950" on="1"/>
        <pt x="513" y="946" on="0"/>
      </contour>
    </TTGlyph>
    <TTGlyph name="anoteleia" xMin="491" yMin="419" xMax="738" yMax="666">
      <contour>
        <pt x="491" y="419" on="1"/>
        <pt x="491" y="666" on="1"/>
        <pt x="738" y="666" on="1"/>
        <pt x="738" y="419" on="1"/>
      </contour>
    </TTGlyph>
    <TTGlyph name="aogonek" xMin="148" yMin="-370" xMax="1167" yMax="1111">
      <component glyphName="a" x="0" y="0" flags="0x4"/>
      <component glyphName="ogonek" x="282" y="0" flags="0x4"/>
    </TTGlyph>
    <TTGlyph name="aring" xMin="148" yMin="-25" xMax="1167" yMax="1737">
      <component glyphName="a" x="0" y="0" flags="0x4"/>
      <component glyphName="ring" x="61" y="0" flags="0x4"/>
    </TTGlyph>
    <TTGlyph name="asciicircum" xMin="146" yMin="543" xMax="1084" yMax="1480">
      <contour>
        <pt x="146" y="543" on="1"/>
        <pt x="615" y="1480" on="1"/>
        <pt x="1084" y="543" on="1"/>
        <pt x="918" y="543" on="1"/>
        <pt x="615" y="1149" on="1"/>
        <pt x="311" y="543" on="1"/>
      </contour>
    </TTGlyph>
    <TTGlyph name="asciitilde" xMin="121" yMin="412" xMax="1108" yMax="772">
      <contour>
        <pt x="269" y="444" on="1"/>
        <pt x="121" y="444" on="1"/>
        <pt x="124" y="550" on="0"/>
        <pt x="143" y="605" on="1"/>
        <pt x="201" y="772" on="0"/>
        <pt x="386" y="772" on="1"/>
        <pt x="484" y="772" on="0"/>
        <pt x="585" y="703" on="1"/>
        <pt x="697" y="626" on="1"/>
        <pt x="764" y="580" on="1"/>
        <pt x="793" y="560" on="0"/>
        <pt x="839" y="560" on="1"/>
        <pt x="956" y="560" on="0"/>
        <pt x="960" y="740" on="1"/>
        <pt x="1108" y="740" on="1"/>
        <pt x="1105" y="634" on="0"/>
        <pt x="1086" y="579" on="1"/>
        <pt x="1028" y="412" on="0"/>
        <pt x="843" y="412" on="1"/>
        <pt x="744" y="412" on="0"/>
        <pt x="644" y="481" on="1"/>
        <pt x="532" y="558" on="1"/>
        <pt x="465" y="604" on="1"/>
        <pt x="436" y="624" on="0"/>
        <pt x="389" y="624" on="1"/>
        <pt x="273" y="624" on="0"/>
      </contour>
    </TTGlyph>
    <TTGlyph name="asterisk" xMin="161" yMin="614" xMax="1068" yMax="1480">
      <contour>
        <pt x="459" y="615" on="1"/>
        <pt x="288" y="720" on="1"/>
        <pt x="523" y="991" on="1"/>
        <pt x="545" y="951" on="0"/>
        <pt x="599" y="937" on="1"/>
      </contour>
      <contour>
        <pt x="161" y="1073" on="1"/>
        <pt x="219" y="1263" on="1"/>
        <pt x="541" y="1112" on="1"/>
        <pt x="511" y="1080" on="0"/>
        <pt x="511" y="1044" on="1"/>
        <pt x="511" y="1036" on="0"/>
        <pt x="513" y="1021" on="1"/>
      </contour>
      <contour>
        <pt x="563" y="1129" on="1"/>
        <pt x="518" y="1480" on="1"/>
        <pt x="715" y="1480" on="1"/>
        <pt x="664" y="1129" on="1"/>
        <pt x="629" y="1142" on="0"/>
        <pt x="614" y="1142" on="1"/>
        <pt x="597" y="1142" on="0"/>
      </contour>
      <contour>
        <pt x="687" y="1111" on="1"/>
        <pt x="1011" y="1264" on="1"/>
        <pt x="1068" y="1071" on="1"/>
        <pt x="716" y="1023" on="1"/>
        <pt x="716" y="1026" on="0"/>
        <pt x="717" y="1031" on="1"/>
        <pt x="717" y="1034" on="1"/>
        <pt x="717" y="1037" on="1"/>
        <pt x="717" y="1081" on="0"/>
      </contour>
      <contour>
        <pt x="783" y="614" on="1"/>
        <pt x="622" y="936" on="1"/>
        <pt x="673" y="942" on="0"/>
        <pt x="702" y="986" on="1"/>
        <pt x="946" y="728" on="1"/>
      </contour>
    </TTGlyph>
    <TTGlyph name="at" xMin="87" yMin="-37" xMax="1186" yMax="1517">
      <contour>
        <pt x="945" y="12" on="1"/>
        <pt x="794" y="-37" on="0"/>
        <pt x="691" y="-37" on="1"/>
        <pt x="415" y="-37" on="0"/>
        <pt x="251" y="166" on="1"/>
        <pt x="87" y="369" on="0"/>
        <pt x="87" y="719" on="1"/>
        <pt x="87" y="1074" on="0"/>
        <pt x="249" y="1296" on="1"/>
        <pt x="411" y="1517" on="0"/>
        <pt x="675" y="1517" on="1"/>
        <pt x="1068" y="1517" on="0"/>
        <pt x="1068" y="1042" on="1"/>
        <pt x="1068" y="414" on="1"/>
        <pt x="1186" y="414" on="1"/>
        <pt x="1186" y="291" on="1"/>
        <pt x="945" y="291" on="1"/>
        <pt x="945" y="658" on="1"/>
        <pt x="920" y="658" on="1"/>
        <pt x="882" y="499" on="0"/>
        <pt x="816" y="406" on="1"/>
        <pt x="730" y="284" on="0"/>
        <pt x="621" y="284" on="1"/>
        <pt x="517" y="284" on="0"/>
        <pt x="451" y="388" on="1"/>
        <pt x="384" y="492" on="0"/>
        <pt x="384" y="654" on="1"/>
        <pt x="384" y="873" on="0"/>
        <pt x="498" y="1025" on="1"/>
        <pt x="612" y="1178" on="0"/>
        <pt x="776" y="1178" on="1"/>
        <pt x="840" y="1178" on="0"/>
        <pt x="936" y="1152" on="1"/>
        <pt x="907" y="1287" on="0"/>
        <pt x="833" y="1343" on="1"/>
        <pt x="767" y="1394" on="0"/>
        <pt x="663" y="1394" on="1"/>
        <pt x="459" y="1394" on="0"/>
        <pt x="335" y="1212" on="1"/>
        <pt x="210" y="1029" on="0"/>
        <pt x="210" y="733" on="1"/>
        <pt x="210" y="436" on="0"/>
        <pt x="343" y="261" on="1"/>
        <pt x="475" y="86" on="0"/>
        <pt x="694" y="86" on="1"/>
        <pt x="811" y="86" on="0"/>
        <pt x="945" y="150" on="1"/>
      </contour>
      <contour>
        <pt x="945" y="927" on="1"/>
        <pt x="945" y="1038" on="1"/>
        <pt x="862" y="1086" on="0"/>
        <pt x="794" y="1086" on="1"/>
        <pt x="673" y="1086" on="0"/>
        <pt x="603" y="974" on="1"/>
        <pt x="532" y="862" on="0"/>
        <pt x="532" y="674" on="1"/>
        <pt x="532" y="565" on="0"/>
        <pt x="563" y="495" on="1"/>
        <pt x="593" y="426" on="0"/>
        <pt x="639" y="426" on="1"/>
        <pt x="709" y="426" on="0"/>
        <pt x="783" y="551" on="1"/>
        <pt x="855" y="672" on="0"/>
      </contour>
    </TTGlyph>
    <TTGlyph name="atilde" xMin="148" yMin="-25" xMax="1167" yMax="1518">
      <component glyphName="a" x="0" y="0" flags="0x4"/>
      <component glyphName="tilde" x="22" y="0" flags="0x4"/>
    </TTGlyph>
    <TTGlyph name="b" xMin="62" yMin="-25" xMax="1118" yMax="1579">
      <contour>
        <pt x="383" y="0" on="1"/>
        <pt x="185" y="0" on="1"/>
        <pt x="185" y="1456" on="1"/>
        <pt x="62" y="1456" on="1"/>
        <pt x="62" y="1579" on="1"/>
        <pt x="383" y="1579" on="1"/>
        <pt x="383" y="864" on="1"/>
        <pt x="458" y="975" on="0"/>
        <pt x="529" y="1030" on="1"/>
        <pt x="631" y="1110" on="0"/>
        <pt x="749" y="1110" on="1"/>
        <pt x="914" y="1110" on="0"/>
        <pt x="1016" y="967" on="1"/>
        <pt x="1118" y="823" on="0"/>
        <pt x="1118" y="588" on="1"/>
        <pt x="1118" y="302" on="0"/>
        <pt x="983" y="139" on="1"/>
        <pt x="849" y="-25" on="0"/>
        <pt x="614" y="-25" on="1"/>
        <pt x="526" y="-25" on="0"/>
      </contour>
      <contour>
        <pt x="383" y="146" on="1"/>
        <pt x="519" y="123" on="0"/>
        <pt x="595" y="123" on="1"/>
        <pt x="762" y="123" on="0"/>
        <pt x="835" y="230" on="1"/>
        <pt x="908" y="337" on="0"/>
        <pt x="908" y="578" on="1"/>
        <pt x="908" y="950" on="0"/>
        <pt x="694" y="950" on="1"/>
        <pt x="530" y="950" on="0"/>
        <pt x="383" y="716" on="1"/>
      </contour>
    </TTGlyph>
    <TTGlyph name="backslash" xMin="99" yMin="-296" xMax="1131" yMax="1579">
      <contour>
        <pt x="1131" y="-296" on="1"/>
        <pt x="967" y="-296" on="1"/>
        <pt x="99" y="1579" on="1"/>
        <pt x="262" y="1579" on="1"/>
      </contour>
    </TTGlyph>
    <TTGlyph name="bar" xMin="540" yMin="-296" xMax="688" yMax="1579">
      <contour>
        <pt x="540" y="-296" on="1"/>
        <pt x="540" y="1579" on="1"/>
        <pt x="688" y="1579" on="1"/>
        <pt x="688" y="-296" on="1"/>
      </contour>
    </TTGlyph>
    <TTGlyph name="braceleft" xMin="183" yMin="-296" xMax="1002" yMax="1579">
      <contour>
        <pt x="1002" y="-296" on="1"/>
        <pt x="871" y="-296" on="1"/>
        <pt x="699" y="-296" on="0"/>
        <pt x="590" y="-201" on="1"/>
        <pt x="480" y="-106" on="0"/>
        <pt x="480" y="47" on="1"/>
        <pt x="480" y="100" on="0"/>
        <pt x="493" y="176" on="1"/>
        <pt x="514" y="297" on="1"/>
        <pt x="522" y="344" on="0"/>
        <pt x="522" y="387" on="1"/>
        <pt x="522" y="580" on="0"/>
        <pt x="295" y="580" on="1"/>
        <pt x="183" y="580" on="1"/>
        <pt x="183" y="703" on="1"/>
        <pt x="295" y="703" on="1"/>
        <pt x="522" y="703" on="0"/>
        <pt x="522" y="900" on="1"/>
        <pt x="522" y="939" on="0"/>
        <pt x="514" y="986" on="1"/>
        <pt x="493" y="1107" on="1"/>
        <pt x="480" y="1183" on="0"/>
        <pt x="480" y="1241" on="1"/>
        <pt x="480" y="1390" on="0"/>
        <pt x="591" y="1485" on="1"/>
        <pt x="701" y="1579" on="0"/>
        <pt x="871" y="1579" on="1"/>
        <pt x="1002" y="1579" on="1"/>
        <pt x="1002" y="1456" on="1"/>
        <pt x="943" y="1456" on="1"/>
        <pt x="665" y="1456" on="0"/>
        <pt x="665" y="1249" on="1"/>
        <pt x="665" y="1209" on="0"/>
        <pt x="673" y="1163" on="1"/>
        <pt x="695" y="1038" on="1"/>
        <pt x="703" y="992" on="0"/>
        <pt x="703" y="954" on="1"/>
        <pt x="703" y="825" on="0"/>
        <pt x="625" y="737" on="1"/>
        <pt x="579" y="686" on="0"/>
        <pt x="493" y="642" on="1"/>
        <pt x="587" y="594" on="0"/>
        <pt x="634" y="536" on="1"/>
        <pt x="702" y="451" on="0"/>
        <pt x="702" y="326" on="1"/>
        <pt x="702" y="285" on="0"/>
        <pt x="695" y="245" on="1"/>
        <pt x="673" y="120" on="1"/>
        <pt x="665" y="74" on="0"/>
        <pt x="665" y="29" on="1"/>
        <pt x="665" y="-173" on="0"/>
        <pt x="943" y="-173" on="1"/>
        <pt x="1002" y="-173" on="1"/>
      </contour>
    </TTGlyph>
    <TTGlyph name="braceright" xMin="227" yMin="-296" xMax="1046" yMax="1579">
      <contour>
        <pt x="227" y="1579" on="1"/>
        <pt x="358" y="1579" on="1"/>
        <pt x="530" y="1579" on="0"/>
        <pt x="639" y="1484" on="1"/>
        <pt x="749" y="1388" on="0"/>
        <pt x="749" y="1237" on="1"/>
        <pt x="749" y="1182" on="0"/>
        <pt x="736" y="1107" on="1"/>
        <pt x="715" y="986" on="1"/>
        <pt x="707" y="940" on="0"/>
        <pt x="707" y="896" on="1"/>
        <pt x="707" y="703" on="0"/>
        <pt x="934" y="703" on="1"/>
        <pt x="1046" y="703" on="1"/>
        <pt x="1046" y="580" on="1"/>
        <pt x="934" y="580" on="1"/>
        <pt x="707" y="580" on="0"/>
        <pt x="707" y="383" on="1"/>
        <pt x="707" y="342" on="0"/>
        <pt x="715" y="297" on="1"/>
        <pt x="736" y="177" on="1"/>
        <pt x="749" y="103" on="0"/>
        <pt x="749" y="42" on="1"/>
        <pt x="749" y="-106" on="0"/>
        <pt x="638" y="-201" on="1"/>
        <pt x="528" y="-296" on="0"/>
        <pt x="358" y="-296" on="1"/>
        <pt x="227" y="-296" on="1"/>
        <pt x="227" y="-173" on="1"/>
        <pt x="286" y="-173" on="1"/>
        <pt x="564" y="-173" on="0"/>
        <pt x="564" y="33" on="1"/>
        <pt x="564" y="75" on="0"/>
        <pt x="556" y="120" on="1"/>
        <pt x="534" y="245" on="1"/>
        <pt x="527" y="285" on="0"/>
        <pt x="527" y="330" on="1"/>
        <pt x="527" y="458" on="0"/>
        <pt x="604" y="546" on="1"/>
        <pt x="649" y="597" on="0"/>
        <pt x="736" y="642" on="1"/>
        <pt x="643" y="690" on="0"/>
        <pt x="596" y="748" on="1"/>
        <pt x="527" y="833" on="0"/>
        <pt x="527" y="957" on="1"/>
        <pt x="527" y="998" on="0"/>
        <pt x="534" y="1038" on="1"/>
        <pt x="556" y="1163" on="1"/>
        <pt x="564" y="1208" on="0"/>
        <pt x="564" y="1254" on="1"/>
        <pt x="564" y="1456" on="0"/>
        <pt x="286" y="1456" on="1"/>
        <pt x="227" y="1456" on="1"/>
      </contour>
    </TTGlyph>
    <TTGlyph name="bracketleft" xMin="395" yMin="-296" xMax="938" yMax="1579">
      <contour>
        <pt x="395" y="-296" on="1"/>
        <pt x="395" y="1579" on="1"/>
        <pt x="938" y="1579" on="1"/>
        <pt x="938" y="1456" on="1"/>
        <pt x="568" y="1456" on="1"/>
        <pt x="568" y="-173" on="1"/>
        <pt x="938" y="-173" on="1"/>
        <pt x="938" y="-296" on="1"/>
      </contour>
    </TTGlyph>
    <TTGlyph name="bracketright" xMin="291" yMin="-296" xMax="834" yMax="1579">
      <contour>
        <pt x="834" y="-296" on="1"/>
        <pt x="291" y="-296" on="1"/>
        <pt x="291" y="-173" on="1"/>
        <pt x="661" y="-173" on="1"/>
        <pt x="661" y="1456" on="1"/>
        <pt x="291" y="1456" on="1"/>
        <pt x="291" y="1579" on="1"/>
        <pt x="834" y="1579" on="1"/>
      </contour>
    </TTGlyph>
    <TTGlyph name="breve" xMin="269" yMin="1289" xMax="960" yMax="1579">
      <contour>
        <pt x="269" y="1579" on="1"/>
        <pt x="392" y="1579" on="1"/>
        <pt x="440" y="1431" on="0"/>
        <pt x="614" y="1431" on="1"/>
        <pt x="789" y="1431" on="0"/>
        <pt x="837" y="1579" on="1"/>
        <pt x="960" y="1579" on="1"/>
        <pt x="937" y="1490" on="0"/>
        <pt x="911" y="1444" on="1"/>
        <pt x="820" y="1289" on="0"/>
        <pt x="618" y="1289" on="1"/>
        <pt x="466" y="1289" on="0"/>
        <pt x="377" y="1370" on="1"/>
        <pt x="322" y="1419" on="0"/>
        <pt x="294" y="1491" on="1"/>
        <pt x="283" y="1520" on="0"/>
      </contour>
    </TTGlyph>
    <TTGlyph name="brokenbar" xMin="540" yMin="-296" xMax="688" yMax="1579">
      <contour>
        <pt x="540" y="-296" on="1"/>
        <pt x="540" y="444" on="1"/>
        <pt x="688" y="444" on="1"/>
        <pt x="688" y="-296" on="1"/>
      </contour>
      <contour>
        <pt x="540" y="839" on="1"/>
        <pt x="540" y="1579" on="1"/>
        <pt x="688" y="1579" on="1"/>
        <pt x="688" y="839" on="1"/>
      </contour>
    </TTGlyph>
    <TTGlyph name="bullet" xMin="318" yMin="518" xMax="910" yMax="1110">
      <contour>
        <pt x="614" y="1110" on="1"/>
        <pt x="737" y="1110" on="0"/>
        <pt x="823" y="1023" on="1"/>
        <pt x="910" y="937" on="0"/>
        <pt x="910" y="815" on="1"/>
        <pt x="910" y="690" on="0"/>
        <pt x="823" y="604" on="1"/>
        <pt x="737" y="518" on="0"/>
        <pt x="612" y="518" on="1"/>
        <pt x="503" y="518" on="0"/>
        <pt x="423" y="588" on="1"/>
        <pt x="318" y="679" on="0"/>
        <pt x="318" y="814" on="1"/>
        <pt x="318" y="937" on="0"/>
        <pt x="405" y="1023" on="1"/>
        <pt x="492" y="1110" on="0"/>
      </contour>
    </TTGlyph>
    <TTGlyph name="c" xMin="148" yMin="-25" xMax="1031" yMax="1110">
      <contour>
        <pt x="1031" y="46" on="1"/>
        <pt x="883" y="-25" on="0"/>
        <pt x="693" y="-25" on="1"/>
        <pt x="441" y="-25" on="0"/>
        <pt x="294" y="133" on="1"/>
        <pt x="148" y="291" on="0"/>
        <pt x="148" y="555" on="1"/>
        <pt x="148" y="815" on="0"/>
        <pt x="291" y="962" on="1"/>
        <pt x="434" y="1110" on="0"/>
        <pt x="690" y="1110" on="1"/>
        <pt x="862" y="1110" on="0"/>
        <pt x="1019" y="1056" on="1"/>
        <pt x="1019" y="711" on="1"/>
        <pt x="895" y="711" on="1"/>
        <pt x="863" y="943" on="1"/>
        <pt x="753" y="987" on="0"/>
        <pt x="680" y="987" on="1"/>
        <pt x="534" y="987" on="0"/>
        <pt x="448" y="869" on="1"/>
        <pt x="361" y="751" on="0"/>
        <pt x="361" y="552" on="1"/>
        <pt x="361" y="349" on="0"/>
        <pt x="459" y="236" on="1"/>
        <pt x="556" y="123" on="0"/>
        <pt x="729" y="123" on="1"/>
        <pt x="866" y="123" on="0"/>
        <pt x="1031" y="200" on="1"/>
      </contour>
    </TTGlyph>
    <TTGlyph name="cacute" xMin="148" yMin="-25" xMax="1031" yMax="1604">
      <component glyphName="c" x="0" y="0" flags="0x4"/>
      <component glyphName="acute" x="164" y="0" flags="0x4"/>
    </TTGlyph>
    <TTGlyph name="caron" xMin="248" yMin="1283" xMax="980" yMax="1604">
      <contour>
        <pt x="980" y="1604" on="1"/>
        <pt x="723" y="1283" on="1"/>
        <pt x="505" y="1283" on="1"/>
        <pt x="248" y="1604" on="1"/>
        <pt x="372" y="1604" on="1"/>
        <pt x="613" y="1402" on="1"/>
        <pt x="615" y="1402" on="1"/>
        <pt x="857" y="1604" on="1"/>
      </contour>
    </TTGlyph>
    <TTGlyph name="ccaron" xMin="148" yMin="-25" xMax="1046" yMax="1604">
      <component glyphName="c" x="0" y="0" flags="0x4"/>
      <component glyphName="caron" x="66" y="0" flags="0x4"/>
    </TTGlyph>
    <TTGlyph name="ccedilla" xMin="148" yMin="-432" xMax="1031" yMax="1110">
      <component glyphName="c" x="0" y="0" flags="0x4"/>
      <component glyphName="cedilla" x="53" y="0" flags="0x4"/>
    </TTGlyph>
    <TTGlyph name="ccircumflex" xMin="148" yMin="-25" xMax="1045" yMax="1604">
      <contour>
        <pt x="1031" y="46" on="1"/>
        <pt x="883" y="-25" on="0"/>
        <pt x="693" y="-25" on="1"/>
        <pt x="441" y="-25" on="0"/>
        <pt x="294" y="133" on="1"/>
        <pt x="148" y="291" on="0"/>
        <pt x="148" y="555" on="1"/>
        <pt x="148" y="815" on="0"/>
        <pt x="291" y="962" on="1"/>
        <pt x="434" y="1110" on="0"/>
        <pt x="690" y="1110" on="1"/>
        <pt x="862" y="1110" on="0"/>
        <pt x="1019" y="1056" on="1"/>
        <pt x="1019" y="711" on="1"/>
        <pt x="895" y="711" on="1"/>
        <pt x="863" y="943" on="1"/>
        <pt x="753" y="987" on="0"/>
        <pt x="680" y="987" on="1"/>
        <pt x="534" y="987" on="0"/>
        <pt x="448" y="869" on="1"/>
        <pt x="361" y="751" on="0"/>
        <pt x="361" y="552" on="1"/>
        <pt x="361" y="349" on="0"/>
        <pt x="459" y="236" on="1"/>
        <pt x="556" y="123" on="0"/>
        <pt x="729" y="123" on="1"/>
        <pt x="866" y="123" on="0"/>
        <pt x="1031" y="200" on="1"/>
      </contour>
      <contour>
        <pt x="314" y="1283" on="1"/>
        <pt x="570" y="1604" on="1"/>
        <pt x="789" y="1604" on="1"/>
        <pt x="1045" y="1283" on="1"/>
        <pt x="922" y="1283" on="1"/>
        <pt x="681" y="1485" on="1"/>
        <pt x="678" y="1485" on="1"/>
        <pt x="437" y="1283" on="1"/>
      </contour>
    </TTGlyph>
    <TTGlyph name="cdotaccent" xMin="148" yMin="-25" xMax="1031" yMax="1480">
      <contour>
        <pt x="1031" y="46" on="1"/>
        <pt x="883" y="-25" on="0"/>
        <pt x="693" y="-25" on="1"/>
        <pt x="441" y="-25" on="0"/>
        <pt x="294" y="133" on="1"/>
        <pt x="148" y="291" on="0"/>
        <pt x="148" y="555" on="1"/>
        <pt x="148" y="815" on="0"/>
        <pt x="291" y="962" on="1"/>
        <pt x="434" y="1110" on="0"/>
        <pt x="690" y="1110" on="1"/>
        <pt x="862" y="1110" on="0"/>
        <pt x="1019" y="1056" on="1"/>
        <pt x="1019" y="711" on="1"/>
        <pt x="895" y="711" on="1"/>
        <pt x="863" y="943" on="1"/>
        <pt x="753" y="987" on="0"/>
        <pt x="680" y="987" on="1"/>
        <pt x="534" y="987" on="0"/>
        <pt x="448" y="869" on="1"/>
        <pt x="361" y="751" on="0"/>
        <pt x="361" y="552" on="1"/>
        <pt x="361" y="349" on="0"/>
        <pt x="459" y="236" on="1"/>
        <pt x="556" y="123" on="0"/>
        <pt x="729" y="123" on="1"/>
        <pt x="866" y="123" on="0"/>
        <pt x="1031" y="200" on="1"/>
      </contour>
      <contour>
        <pt x="581" y="1283" on="1"/>
        <pt x="581" y="1480" on="1"/>
        <pt x="778" y="1480" on="1"/>
        <pt x="778" y="1283" on="1"/>
      </contour>
    </TTGlyph>
</ttFont>
